<?xml version="1.0" encoding="UTF-8" standalone="no"?>
<svg
   width="128"
   height="128"
   viewBox="0 0 33.866666 33.866668"
   version="1.1"
   id="svg1015"
   inkscape:version="1.1.2 (0a00cf5339, 2022-02-04)"
   sodipodi:docname="010editor.svg"
   xmlns:inkscape="http://www.inkscape.org/namespaces/inkscape"
   xmlns:sodipodi="http://sodipodi.sourceforge.net/DTD/sodipodi-0.dtd"
   xmlns:xlink="http://www.w3.org/1999/xlink"
   xmlns="http://www.w3.org/2000/svg"
   xmlns:svg="http://www.w3.org/2000/svg"
   xmlns:rdf="http://www.w3.org/1999/02/22-rdf-syntax-ns#"
   xmlns:cc="http://creativecommons.org/ns#"
   xmlns:dc="http://purl.org/dc/elements/1.1/">
  <defs
     id="defs1009">
    <linearGradient
       inkscape:collect="always"
       id="linearGradient4065">
      <stop
         style="stop-color:#fff9f2;stop-opacity:1;"
         offset="0"
         id="stop4061" />
      <stop
         style="stop-color:#ff9131;stop-opacity:1"
         offset="1"
         id="stop4063" />
    </linearGradient>
    <linearGradient
       inkscape:collect="always"
       id="linearGradient873">
      <stop
         style="stop-color:#0b0b0b;stop-opacity:1;"
         offset="0"
         id="stop869" />
      <stop
         style="stop-color:#0b0b0b;stop-opacity:0.85882353;"
         offset="0.68076366"
         id="stop878" />
      <stop
         style="stop-color:#0b0b0b;stop-opacity:0.83137255;"
         offset="0.69925421"
         id="stop888" />
      <stop
         style="stop-color:#0b0b0b;stop-opacity:0.80392157;"
         offset="0.71879315"
         id="stop890" />
      <stop
         style="stop-color:#0b0b0b;stop-opacity:0.78039216;"
         offset="0.73593426"
         id="stop892" />
      <stop
         style="stop-color:#0b0b0b;stop-opacity:0.75686275;"
         offset="0.75022364"
         id="stop894" />
      <stop
         style="stop-color:#0b0b0b;stop-opacity:0.73333333;"
         offset="0.76798755"
         id="stop896" />
      <stop
         style="stop-color:#0b0b0b;stop-opacity:0.08235294;"
         offset="0.9150058"
         id="stop919" />
      <stop
         style="stop-color:#0b0b0b;stop-opacity:0.07058824;"
         offset="0.92246956"
         id="stop917" />
      <stop
         style="stop-color:#0b0b0b;stop-opacity:0.05882353;"
         offset="0.92918676"
         id="stop915" />
      <stop
         style="stop-color:#0b0b0b;stop-opacity:0.04705882;"
         offset="0.93840873"
         id="stop912" />
      <stop
         style="stop-color:#0b0b0b;stop-opacity:0.03137255;"
         offset="0.94760686"
         id="stop910" />
      <stop
         style="stop-color:#0b0b0b;stop-opacity:0.02352941;"
         offset="0.95380515"
         id="stop908" />
      <stop
         style="stop-color:#0b0b0b;stop-opacity:0.01568627;"
         offset="0.95886087"
         id="stop906" />
      <stop
         style="stop-color:#0b0b0b;stop-opacity:0.01176471;"
         offset="0.96356124"
         id="stop904" />
      <stop
         style="stop-color:#0b0b0b;stop-opacity:0.00784314;"
         offset="0.96845078"
         id="stop902" />
      <stop
         style="stop-color:#0b0b0b;stop-opacity:0.00392157;"
         offset="0.97347641"
         id="stop900" />
      <stop
         style="stop-color:#0b0b0b;stop-opacity:0;"
         offset="0.97812337"
         id="stop886" />
      <stop
         style="stop-color:#0b0b0b;stop-opacity:0;"
         offset="0.98456311"
         id="stop884" />
      <stop
         style="stop-color:#0b0b0b;stop-opacity:0;"
         offset="0.98700982"
         id="stop882" />
      <stop
         style="stop-color:#0b0b0b;stop-opacity:0;"
         offset="0.98924524"
         id="stop880" />
      <stop
         style="stop-color:#0b0b0b;stop-opacity:0;"
         offset="1"
         id="stop871" />
    </linearGradient>
    <linearGradient
       inkscape:collect="always"
       xlink:href="#linearGradient895"
       id="linearGradient897"
       x1="2685.9844"
       y1="1088.7905"
       x2="2685.9844"
       y2="1770.3615"
       gradientUnits="userSpaceOnUse"
       gradientTransform="matrix(0.04277854,0,0,0.04277854,-95.919086,-44.867312)" />
    <linearGradient
       inkscape:collect="always"
       id="linearGradient895">
      <stop
         style="stop-color:#fce68c;stop-opacity:1"
         offset="0"
         id="stop891" />
      <stop
         style="stop-color:#ff7628;stop-opacity:1"
         offset="1"
         id="stop893" />
    </linearGradient>
    <linearGradient
       inkscape:collect="always"
       id="linearGradient879">
      <stop
         style="stop-color:#ffda8e;stop-opacity:0.98219877"
         offset="0"
         id="stop875" />
      <stop
         style="stop-color:#ff9131;stop-opacity:1"
         offset="1"
         id="stop877" />
    </linearGradient>
    <radialGradient
       inkscape:collect="always"
       xlink:href="#linearGradient873"
       id="radialGradient898"
       gradientUnits="userSpaceOnUse"
       cx="60.636452"
       cy="20.456388"
       fx="60.636452"
       fy="20.456388"
       r="17.303919"
       gradientTransform="translate(-43.433354,-3.9448764)" />
    <radialGradient
       inkscape:collect="always"
       xlink:href="#linearGradient879"
       id="radialGradient993"
       cx="17.488945"
       cy="3.9765341"
       fx="17.488945"
       fy="3.9765341"
       r="13.695572"
       gradientUnits="userSpaceOnUse"
       gradientTransform="matrix(2.0751827,0,0,1.5420669,-18.496474,-0.93384809)" />
    <linearGradient
       inkscape:collect="always"
       xlink:href="#linearGradient4065"
       id="linearGradient4067"
       x1="7.931313"
       y1="12.961464"
       x2="7.931313"
       y2="61.427444"
       gradientUnits="userSpaceOnUse" />
  </defs>
  <sodipodi:namedview
     id="base"
     pagecolor="#ffffff"
     bordercolor="#666666"
     borderopacity="1.0"
     inkscape:pageopacity="0.0"
     inkscape:pageshadow="2"
     inkscape:zoom="0.9899495"
     inkscape:cx="-291.93408"
     inkscape:cy="103.03556"
     inkscape:document-units="mm"
     inkscape:current-layer="layer1"
     inkscape:document-rotation="0"
     showgrid="false"
     units="px"
     inkscape:window-width="1920"
     inkscape:window-height="1050"
     inkscape:window-x="0"
     inkscape:window-y="0"
     inkscape:window-maximized="1"
     inkscape:pagecheckerboard="0" />
  <metadata
     id="metadata1012">
    <rdf:RDF>
      <cc:Work
         rdf:about="">
        <dc:format>image/svg+xml</dc:format>
        <dc:type
           rdf:resource="http://purl.org/dc/dcmitype/StillImage" />
      </cc:Work>
    </rdf:RDF>
  </metadata>
  <g
     inkscape:label="Capa 1"
     inkscape:groupmode="layer"
     id="layer1">
    <circle
       style="opacity:0.309726;fill:url(#radialGradient898);fill-opacity:1;stroke-width:3;stroke-linecap:square;stroke-linejoin:round"
       id="path867"
       cx="17.203098"
       cy="16.511513"
       r="17.303919" />
    <circle
       style="fill:url(#linearGradient897);fill-opacity:1;stroke:#b1aaaa;stroke-width:0.0575565;stroke-linecap:square;stroke-opacity:0.992157"
       id="circle839"
       cx="17.203098"
       cy="16.511513"
       r="15.118138" />
    <circle
       style="fill:url(#radialGradient993);fill-opacity:1;stroke:none;stroke-width:0.0498826;stroke-linecap:square;stroke-opacity:1"
       id="circle839-3"
       cx="17.203098"
       cy="16.511513"
       r="13.102469" />
    <g
       id="g8050"
       style="fill:#5e1700;fill-opacity:0.04994624">
      <path
         id="path5239"
         style="fill:#5e1700;fill-opacity:0.04994624;stroke-width:0.335866"
         d="m 17.473335,9.6434905 c -2.370458,0.05358 -5.43569,0.7895295 -9.6010621,1.9902725 0.1078751,1.134563 0.4352729,1.543077 0.5871118,2.515063 0.4136966,2.648268 0.554621,4.782994 1.3854495,6.360474 2.5354638,4.814052 7.0142778,5.21647 17.5077038,1.013504 C 24.541305,12.711329 22.688343,9.5256025 17.473335,9.6434905 Z m -7.370041,2.6836525 c 0.07572,-0.0017 0.15179,0.0064 0.225004,0.02362 h 6.71e-4 c 0.07322,0.0173 0.143955,0.04397 0.211228,0.07938 l 6.72e-4,6.7e-4 3.534474,1.7961 -0.05904,0.121357 7.478935,3.925441 2.099166,1.445145 -0.0066,0.01377 c 0.187689,0.03083 0.365919,0.06908 0.527416,0.118081 0.134359,0.04079 0.260682,0.08687 0.380474,0.137759 0.239593,0.101743 0.453279,0.221593 0.654021,0.350298 0.10036,0.06437 0.197063,0.13102 0.292572,0.198764 0.190878,0.135356 0.375276,0.275242 0.566119,0.410651 l 6.71e-4,6.71e-4 -1.78434,0.110832 -0.984639,-0.56743 -0.006,0.01311 -2.402889,-0.974145 -7.515672,-3.742419 -0.0492,0.10036 -3.5364394,-1.809875 C 9.2914991,13.864505 9.1513579,13.418266 9.244603,13.029707 l -6.716e-4,-6.71e-4 c 0.00279,-0.01155 0.00736,-0.02265 0.010536,-0.03411 0.00876,-0.03156 0.01762,-0.0633 0.029527,-0.09381 0.0019,-0.005 0.00457,-0.0095 0.0066,-0.01443 0.074946,-0.183135 0.2059618,-0.341433 0.3850664,-0.442794 0.013176,-0.0075 0.026962,-0.01412 0.040672,-0.021 0.041002,-0.02039 0.084327,-0.03709 0.1298855,-0.05117 0.019803,-0.0062 0.039035,-0.01285 0.059701,-0.01771 0.062493,-0.01461 0.1275117,-0.0253 0.1974527,-0.0269 z" />
      <path
         id="path5547"
         style="fill:#5e1700;fill-opacity:0.04994624;stroke-width:0.335866"
         d="m 17.384235,9.9537815 c -2.370458,0.053581 -5.43569,0.7895295 -9.6010626,1.9902725 0.1078751,1.134563 0.4352729,1.543077 0.5871118,2.515063 0.4136966,2.648268 0.554621,4.782994 1.3854495,6.360474 2.5354643,4.814052 7.0142783,5.21647 17.5077043,1.013504 C 24.452205,13.02162 22.599243,9.8358935 17.384235,9.9537815 Z m -7.370041,2.6836525 c 0.07572,-0.0017 0.15179,0.0064 0.225004,0.02362 h 6.71e-4 c 0.07322,0.0173 0.143955,0.04397 0.211228,0.07938 l 6.72e-4,6.7e-4 3.534474,1.7961 -0.05904,0.121357 7.478935,3.925441 2.099166,1.445145 -0.0066,0.01377 c 0.187689,0.03083 0.365919,0.06908 0.527416,0.118081 0.134359,0.04079 0.260682,0.08687 0.380474,0.137759 0.239593,0.101743 0.453279,0.221593 0.654021,0.350298 0.10036,0.06437 0.197063,0.13102 0.292572,0.198764 0.190878,0.135356 0.375276,0.275242 0.566119,0.410651 l 6.71e-4,6.71e-4 -1.78434,0.110832 -0.984639,-0.56743 -0.006,0.01311 -2.402889,-0.974145 -7.515672,-3.742419 -0.0492,0.10036 -3.5364399,-1.809875 C 9.2023986,14.174796 9.0622574,13.728557 9.1555025,13.339998 l -6.716e-4,-6.71e-4 c 0.00279,-0.01155 0.00736,-0.02265 0.010536,-0.03411 0.00876,-0.03156 0.01762,-0.0633 0.029527,-0.09381 0.0019,-0.005 0.00457,-0.0095 0.0066,-0.01443 0.074946,-0.183135 0.2059618,-0.341433 0.3850664,-0.442794 0.013176,-0.0075 0.026962,-0.01412 0.040672,-0.021 0.041002,-0.02039 0.084327,-0.03709 0.1298855,-0.05117 0.019803,-0.0062 0.039035,-0.01285 0.059701,-0.01771 0.062493,-0.01461 0.1275117,-0.0253 0.1974532,-0.0269 z" />
      <path
         id="path5549"
         style="fill:#5e1700;fill-opacity:0.04994624;stroke-width:0.335866"
         d="m 17.311871,10.407876 c -2.370458,0.05358 -5.43569,0.78953 -9.6010629,1.990273 0.1078751,1.134563 0.4352729,1.543077 0.5871118,2.515063 0.4136966,2.648268 0.554621,4.782994 1.3854495,6.360474 2.5354646,4.814052 7.0142786,5.21647 17.5077046,1.013504 -2.811233,-8.811475 -4.664195,-11.997202 -9.879203,-11.879314 z m -7.3700413,2.683653 c 0.07572,-0.0017 0.1517903,0.0064 0.2250043,0.02362 h 6.71e-4 c 0.07322,0.0173 0.143955,0.04397 0.211228,0.07938 l 6.72e-4,6.7e-4 3.534474,1.7961 -0.05904,0.121357 7.478935,3.925441 2.099166,1.445145 -0.0066,0.01377 c 0.187689,0.03083 0.365919,0.06908 0.527416,0.118081 0.134359,0.04079 0.260682,0.08687 0.380474,0.137759 0.239593,0.101743 0.453279,0.221593 0.654021,0.350298 0.10036,0.06437 0.197063,0.13102 0.292572,0.198764 0.190878,0.135356 0.375276,0.275242 0.566119,0.410651 l 6.71e-4,6.71e-4 -1.78434,0.110832 -0.984639,-0.56743 -0.006,0.01311 -2.402889,-0.974145 -7.515672,-3.742419 -0.0492,0.10036 -3.5364402,-1.809875 C 9.1300343,14.628891 8.9898931,14.182652 9.0831382,13.794093 l -6.716e-4,-6.71e-4 c 0.00279,-0.01155 0.00736,-0.02265 0.010536,-0.03411 0.00876,-0.03156 0.01762,-0.0633 0.029527,-0.09381 0.0019,-0.005 0.00457,-0.0095 0.0066,-0.01443 0.074946,-0.183135 0.2059618,-0.341433 0.3850664,-0.442794 0.013176,-0.0075 0.026962,-0.01412 0.040672,-0.021 0.041002,-0.02039 0.084327,-0.03709 0.1298855,-0.05117 0.019803,-0.0062 0.039035,-0.01285 0.059701,-0.01771 0.062493,-0.01461 0.1275117,-0.0253 0.1974532,-0.0269 z" />
      <path
         id="path7106"
         style="fill:#5e1700;fill-opacity:0.04994624;stroke-width:0.335866"
         d="m 16.831609,10.962661 c -2.370458,0.05358 -5.43569,0.78953 -9.6010629,1.990273 0.1078751,1.134563 0.4352729,1.543077 0.5871118,2.515063 0.4136966,2.648268 0.554621,4.782994 1.3854495,6.360474 2.5354646,4.814052 7.0142786,5.21647 17.5077046,1.013504 C 23.899579,14.0305 22.046617,10.844773 16.831609,10.962661 Z m -7.3700413,2.683653 c 0.07572,-0.0017 0.1517903,0.0064 0.2250043,0.02362 h 6.71e-4 c 0.07322,0.0173 0.143955,0.04397 0.211228,0.07938 l 6.72e-4,6.7e-4 3.534474,1.7961 -0.05904,0.121357 7.478935,3.925441 2.099166,1.445145 -0.0066,0.01377 c 0.187689,0.03083 0.365919,0.06908 0.527416,0.118081 0.134359,0.04079 0.260682,0.08687 0.380474,0.137759 0.239593,0.101743 0.453279,0.221593 0.654021,0.350298 0.10036,0.06437 0.197063,0.13102 0.292572,0.198764 0.190878,0.135356 0.375276,0.275242 0.566119,0.410651 l 6.71e-4,6.71e-4 -1.78434,0.110832 -0.984639,-0.56743 -0.006,0.01311 -2.402889,-0.974145 -7.515672,-3.742419 -0.0492,0.10036 -3.5364402,-1.809875 C 8.6497723,15.183676 8.5096311,14.737437 8.6028762,14.348878 l -6.716e-4,-6.71e-4 c 0.00279,-0.01155 0.00736,-0.02265 0.010536,-0.03411 0.00876,-0.03156 0.01762,-0.0633 0.029527,-0.09381 0.0019,-0.005 0.00457,-0.0095 0.0066,-0.01443 0.074946,-0.183135 0.2059618,-0.341433 0.3850664,-0.442794 0.013176,-0.0075 0.026962,-0.01412 0.040672,-0.021 0.041002,-0.02039 0.084327,-0.03709 0.1298855,-0.05117 0.019803,-0.0062 0.039035,-0.01285 0.059701,-0.01771 0.062493,-0.01461 0.1275117,-0.0253 0.1974532,-0.0269 z" />
    </g>
    <path
       id="path4"
       style="fill:url(#linearGradient4067);fill-opacity:1;stroke-width:0.335866"
       d="m 17.532375,9.5221335 c -2.370458,0.05358 -5.43569,0.7895295 -9.6010621,1.9902725 0.1078751,1.134563 0.4352729,1.543077 0.5871118,2.515063 0.4136966,2.648268 0.554621,4.782994 1.3854495,6.360474 2.5354638,4.814052 7.0142778,5.21647 17.5077038,1.013504 C 24.600345,12.589972 22.747383,9.4042455 17.532375,9.5221335 Z m -7.370041,2.6836525 c 0.07572,-0.0017 0.15179,0.0064 0.225004,0.02362 h 6.71e-4 c 0.07322,0.0173 0.143955,0.04397 0.211228,0.07938 l 6.72e-4,6.7e-4 3.534474,1.7961 -0.05904,0.121357 7.478935,3.925441 2.099166,1.445145 -0.0066,0.01377 c 0.187689,0.03083 0.365919,0.06908 0.527416,0.118081 0.134359,0.04079 0.260682,0.08687 0.380474,0.137759 0.239593,0.101743 0.453279,0.221593 0.654021,0.350298 0.10036,0.06437 0.197063,0.13102 0.292572,0.198764 0.190878,0.135356 0.375276,0.275242 0.566119,0.410651 l 6.71e-4,6.71e-4 -1.78434,0.110832 -0.984639,-0.56743 -0.006,0.01311 -2.402889,-0.974145 -7.515672,-3.742419 -0.0492,0.10036 -3.5364394,-1.809875 C 9.3505391,13.743148 9.2103979,13.296909 9.303643,12.90835 l -6.716e-4,-6.71e-4 c 0.00279,-0.01155 0.00736,-0.02265 0.010536,-0.03411 0.00876,-0.03156 0.01762,-0.0633 0.029527,-0.09381 0.0019,-0.005 0.00457,-0.0095 0.0066,-0.01443 0.074946,-0.183135 0.2059618,-0.341433 0.3850664,-0.442794 0.013176,-0.0075 0.026962,-0.01412 0.040672,-0.021 0.041002,-0.02039 0.084327,-0.03709 0.1298855,-0.05117 0.019803,-0.0062 0.039035,-0.01285 0.059701,-0.01771 0.062493,-0.01461 0.1275117,-0.0253 0.1974527,-0.0269 z" />
  </g>
</svg>
