<?xml version="1.0" encoding="UTF-8" standalone="no"?>
<svg
   width="128"
   height="128"
   viewBox="0 0 33.866666 33.866668"
   version="1.1"
   id="svg1015"
   inkscape:version="1.1.2 (0a00cf5339, 2022-02-04)"
   sodipodi:docname="8tracks.svg"
   xmlns:inkscape="http://www.inkscape.org/namespaces/inkscape"
   xmlns:sodipodi="http://sodipodi.sourceforge.net/DTD/sodipodi-0.dtd"
   xmlns:xlink="http://www.w3.org/1999/xlink"
   xmlns="http://www.w3.org/2000/svg"
   xmlns:svg="http://www.w3.org/2000/svg"
   xmlns:rdf="http://www.w3.org/1999/02/22-rdf-syntax-ns#"
   xmlns:cc="http://creativecommons.org/ns#"
   xmlns:dc="http://purl.org/dc/elements/1.1/">
  <defs
     id="defs1009">
    <linearGradient
       inkscape:collect="always"
       id="linearGradient873">
      <stop
         style="stop-color:#0b0b0b;stop-opacity:1;"
         offset="0"
         id="stop869" />
      <stop
         style="stop-color:#0b0b0b;stop-opacity:0.85882353;"
         offset="0.68076366"
         id="stop878" />
      <stop
         style="stop-color:#0b0b0b;stop-opacity:0.83137255;"
         offset="0.69925421"
         id="stop888" />
      <stop
         style="stop-color:#0b0b0b;stop-opacity:0.80392157;"
         offset="0.71879315"
         id="stop890" />
      <stop
         style="stop-color:#0b0b0b;stop-opacity:0.78039216;"
         offset="0.73593426"
         id="stop892" />
      <stop
         style="stop-color:#0b0b0b;stop-opacity:0.75686275;"
         offset="0.75022364"
         id="stop894" />
      <stop
         style="stop-color:#0b0b0b;stop-opacity:0.73333333;"
         offset="0.76798755"
         id="stop896" />
      <stop
         style="stop-color:#0b0b0b;stop-opacity:0.08235294;"
         offset="0.9150058"
         id="stop919" />
      <stop
         style="stop-color:#0b0b0b;stop-opacity:0.07058824;"
         offset="0.92246956"
         id="stop917" />
      <stop
         style="stop-color:#0b0b0b;stop-opacity:0.05882353;"
         offset="0.92918676"
         id="stop915" />
      <stop
         style="stop-color:#0b0b0b;stop-opacity:0.04705882;"
         offset="0.93840873"
         id="stop912" />
      <stop
         style="stop-color:#0b0b0b;stop-opacity:0.03137255;"
         offset="0.94760686"
         id="stop910" />
      <stop
         style="stop-color:#0b0b0b;stop-opacity:0.02352941;"
         offset="0.95380515"
         id="stop908" />
      <stop
         style="stop-color:#0b0b0b;stop-opacity:0.01568627;"
         offset="0.95886087"
         id="stop906" />
      <stop
         style="stop-color:#0b0b0b;stop-opacity:0.01176471;"
         offset="0.96356124"
         id="stop904" />
      <stop
         style="stop-color:#0b0b0b;stop-opacity:0.00784314;"
         offset="0.96845078"
         id="stop902" />
      <stop
         style="stop-color:#0b0b0b;stop-opacity:0.00392157;"
         offset="0.97347641"
         id="stop900" />
      <stop
         style="stop-color:#0b0b0b;stop-opacity:0;"
         offset="0.97812337"
         id="stop886" />
      <stop
         style="stop-color:#0b0b0b;stop-opacity:0;"
         offset="0.98456311"
         id="stop884" />
      <stop
         style="stop-color:#0b0b0b;stop-opacity:0;"
         offset="0.98700982"
         id="stop882" />
      <stop
         style="stop-color:#0b0b0b;stop-opacity:0;"
         offset="0.98924524"
         id="stop880" />
      <stop
         style="stop-color:#0b0b0b;stop-opacity:0;"
         offset="1"
         id="stop871" />
    </linearGradient>
    <linearGradient
       inkscape:collect="always"
       xlink:href="#linearGradient895"
       id="linearGradient897"
       x1="2685.9844"
       y1="1088.7905"
       x2="2685.9844"
       y2="1770.3615"
       gradientUnits="userSpaceOnUse"
       gradientTransform="matrix(0.04277854,0,0,0.04277854,-95.919086,-44.867312)" />
    <linearGradient
       inkscape:collect="always"
       id="linearGradient895">
      <stop
         style="stop-color:#55ccfa;stop-opacity:1"
         offset="0"
         id="stop891" />
      <stop
         style="stop-color:#2a54fb;stop-opacity:1"
         offset="1"
         id="stop893" />
    </linearGradient>
    <linearGradient
       inkscape:collect="always"
       id="linearGradient879">
      <stop
         style="stop-color:#5abdf7;stop-opacity:0.97647059"
         offset="0"
         id="stop875" />
      <stop
         style="stop-color:#3874f8;stop-opacity:1"
         offset="1"
         id="stop877" />
    </linearGradient>
    <radialGradient
       inkscape:collect="always"
       xlink:href="#linearGradient873"
       id="radialGradient898"
       gradientUnits="userSpaceOnUse"
       cx="60.636452"
       cy="20.456388"
       fx="60.636452"
       fy="20.456388"
       r="17.303919"
       gradientTransform="translate(-43.433354,-3.9448764)" />
    <radialGradient
       inkscape:collect="always"
       xlink:href="#linearGradient879"
       id="radialGradient993"
       cx="17.488945"
       cy="3.9765341"
       fx="17.488945"
       fy="3.9765341"
       r="13.695572"
       gradientUnits="userSpaceOnUse"
       gradientTransform="matrix(2.0751827,0,0,1.5420669,-18.496474,-0.93384809)" />
    <linearGradient
       inkscape:collect="always"
       xlink:href="#linearGradient897-3"
       id="linearGradient899"
       x1="12.193735"
       y1="14.984776"
       x2="22.17016"
       y2="25.581543"
       gradientUnits="userSpaceOnUse"
       gradientTransform="matrix(0.9634535,0,0,0.9634535,0.5485619,-0.25441475)" />
    <linearGradient
       inkscape:collect="always"
       id="linearGradient897-3">
      <stop
         style="stop-color:#ffffff;stop-opacity:1;"
         offset="0"
         id="stop893-6" />
      <stop
         style="stop-color:#cedffe;stop-opacity:1"
         offset="1"
         id="stop895" />
    </linearGradient>
  </defs>
  <sodipodi:namedview
     id="base"
     pagecolor="#ffffff"
     bordercolor="#666666"
     borderopacity="1.0"
     inkscape:pageopacity="0.0"
     inkscape:pageshadow="2"
     inkscape:zoom="3.959798"
     inkscape:cx="91.166267"
     inkscape:cy="57.326157"
     inkscape:document-units="mm"
     inkscape:current-layer="layer1"
     inkscape:document-rotation="0"
     showgrid="false"
     units="px"
     inkscape:window-width="1920"
     inkscape:window-height="1050"
     inkscape:window-x="0"
     inkscape:window-y="0"
     inkscape:window-maximized="1"
     inkscape:pagecheckerboard="0" />
  <metadata
     id="metadata1012">
    <rdf:RDF>
      <cc:Work
         rdf:about="">
        <dc:format>image/svg+xml</dc:format>
        <dc:type
           rdf:resource="http://purl.org/dc/dcmitype/StillImage" />
      </cc:Work>
    </rdf:RDF>
  </metadata>
  <g
     inkscape:label="Capa 1"
     inkscape:groupmode="layer"
     id="layer1">
    <circle
       style="opacity:0.309726;fill:url(#radialGradient898);fill-opacity:1;stroke-width:3;stroke-linecap:square;stroke-linejoin:round"
       id="path867"
       cx="17.203098"
       cy="16.511513"
       r="17.303919" />
    <circle
       style="fill:url(#linearGradient897);fill-opacity:1;stroke:#b1aaaa;stroke-width:0.0575565;stroke-linecap:square;stroke-opacity:0.992157"
       id="circle839"
       cx="17.203098"
       cy="16.511513"
       r="15.118138" />
    <circle
       style="fill:url(#radialGradient993);fill-opacity:1;stroke:none;stroke-width:0.0498826;stroke-linecap:square;stroke-opacity:1"
       id="circle839-3"
       cx="17.203098"
       cy="16.511513"
       r="13.102469" />
    <g
       id="g883"
       style="opacity:0.482302"
       transform="matrix(0.9634535,0,0,0.9634535,0.54856191,-0.25441475)">
      <path
         style="color:#000000;font-style:normal;font-variant:normal;font-weight:normal;font-stretch:normal;font-size:medium;line-height:normal;font-family:sans-serif;font-variant-ligatures:normal;font-variant-position:normal;font-variant-caps:normal;font-variant-numeric:normal;font-variant-alternates:normal;font-variant-east-asian:normal;font-feature-settings:normal;font-variation-settings:normal;text-indent:0;text-align:start;text-decoration:none;text-decoration-line:none;text-decoration-style:solid;text-decoration-color:#000000;letter-spacing:normal;word-spacing:normal;text-transform:none;writing-mode:lr-tb;direction:ltr;text-orientation:mixed;dominant-baseline:auto;baseline-shift:baseline;text-anchor:start;white-space:normal;shape-padding:0;shape-margin:0;inline-size:0;clip-rule:nonzero;display:inline;overflow:visible;visibility:visible;opacity:1;isolation:auto;mix-blend-mode:normal;color-interpolation:sRGB;color-interpolation-filters:linearRGB;solid-color:#000000;solid-opacity:1;vector-effect:none;fill:#044ef7;fill-opacity:0.357319;fill-rule:nonzero;stroke:none;stroke-linecap:butt;stroke-linejoin:round;stroke-miterlimit:4;stroke-dasharray:none;stroke-dashoffset:0;stroke-opacity:1;color-rendering:auto;image-rendering:auto;shape-rendering:auto;text-rendering:auto;enable-background:accumulate;stop-color:#000000;stop-opacity:1"
         d="m 21.915502,7.6432496 c -1.527034,0 -2.727325,0.296948 -3.640625,0.8925781 -0.913299,0.5956302 -1.459514,1.4850043 -1.710937,2.3398433 -0.502847,1.70968 -0.125,3.427943 -0.125,4.070313 h 2.433593 c 0,-1.18331 -0.230509,-2.508065 0.02734,-3.384766 0.128927,-0.43835 0.30617,-0.72617 0.705078,-0.986328 0.398908,-0.260157 1.099061,-0.498047 2.310547,-0.498047 1.053712,0 1.689056,0.36119 2.15625,0.90625 0.467194,0.54506 0.734375,1.332549 0.734375,2.136719 0,0.80417 -0.267181,1.591659 -0.734375,2.136719 -0.467194,0.54506 -1.102538,0.90625 -2.15625,0.90625 h -8.519531 c -1.684809,0 -3.103794,0.703449 -4.0058597,1.755859 -0.9020665,1.05241 -1.3183599,2.394913 -1.3183599,3.720703 0,1.325791 0.4162934,2.670246 1.3183599,3.722657 0.9020657,1.05241 2.3210507,1.755859 4.0058597,1.755859 1.549574,0 2.783225,-0.354175 3.693359,-1.011719 0.910135,-0.657544 1.426004,-1.586979 1.671875,-2.464844 0.245871,-0.877864 0.257612,-1.722742 0.22461,-2.419922 -0.033,-0.697179 -0.110743,-1.309089 -0.113282,-1.43164 l -2.433593,0.05078 c 0.01007,0.486009 0.09077,0.938119 0.117187,1.496094 0.02641,0.557975 -0.001,1.157042 -0.138672,1.648437 -0.137629,0.491396 -0.347894,0.855107 -0.753906,1.148438 -0.406012,0.293331 -1.078631,0.548828 -2.267578,0.548828 -1.053712,0 -1.689056,-0.36119 -2.15625,-0.90625 -0.467194,-0.54506 -0.734375,-1.332549 -0.734375,-2.136719 0,-0.804169 0.267181,-1.589706 0.734375,-2.134765 0.467194,-0.54506 1.102538,-0.90625 2.15625,-0.90625 h 8.519531 c 1.684809,0 3.103793,-0.705402 4.00586,-1.757813 0.902066,-1.05241 1.318359,-2.394912 1.318359,-3.720703 0,-1.325791 -0.416293,-2.668293 -1.318359,-3.720703 -0.902067,-1.0524105 -2.321051,-1.7558594 -4.00586,-1.7558594 z"
         id="path873" />
      <path
         style="color:#000000;font-style:normal;font-variant:normal;font-weight:normal;font-stretch:normal;font-size:medium;line-height:normal;font-family:sans-serif;font-variant-ligatures:normal;font-variant-position:normal;font-variant-caps:normal;font-variant-numeric:normal;font-variant-alternates:normal;font-variant-east-asian:normal;font-feature-settings:normal;font-variation-settings:normal;text-indent:0;text-align:start;text-decoration:none;text-decoration-line:none;text-decoration-style:solid;text-decoration-color:#000000;letter-spacing:normal;word-spacing:normal;text-transform:none;writing-mode:lr-tb;direction:ltr;text-orientation:mixed;dominant-baseline:auto;baseline-shift:baseline;text-anchor:start;white-space:normal;shape-padding:0;shape-margin:0;inline-size:0;clip-rule:nonzero;display:inline;overflow:visible;visibility:visible;opacity:1;isolation:auto;mix-blend-mode:normal;color-interpolation:sRGB;color-interpolation-filters:linearRGB;solid-color:#000000;solid-opacity:1;vector-effect:none;fill:#044ef7;fill-opacity:0.357319;fill-rule:nonzero;stroke:none;stroke-linecap:butt;stroke-linejoin:round;stroke-miterlimit:4;stroke-dasharray:none;stroke-dashoffset:0;stroke-opacity:1;color-rendering:auto;image-rendering:auto;shape-rendering:auto;text-rendering:auto;enable-background:accumulate;stop-color:#000000;stop-opacity:1"
         d="m 22.375367,7.9671991 c -1.527034,0 -2.727325,0.296948 -3.640625,0.8925781 -0.913299,0.5956302 -1.459514,1.4850048 -1.710937,2.3398438 -0.502847,1.70968 -0.125,3.427943 -0.125,4.070313 h 2.433593 c 0,-1.18331 -0.230509,-2.508065 0.02734,-3.384766 0.128927,-0.43835 0.30617,-0.72617 0.705078,-0.986328 0.398908,-0.260157 1.099061,-0.498047 2.310547,-0.498047 1.053712,0 1.689056,0.36119 2.15625,0.90625 0.467194,0.54506 0.734375,1.332549 0.734375,2.136719 0,0.80417 -0.267181,1.591659 -0.734375,2.136719 -0.467194,0.54506 -1.102538,0.90625 -2.15625,0.90625 h -8.519531 c -1.684809,0 -3.103794,0.703449 -4.0058597,1.755859 -0.9020665,1.05241 -1.3183599,2.394913 -1.3183599,3.720703 0,1.325791 0.4162934,2.670246 1.3183599,3.722657 0.9020657,1.05241 2.3210507,1.755859 4.0058597,1.755859 1.549574,0 2.783225,-0.354175 3.693359,-1.011719 0.910135,-0.657544 1.426004,-1.586979 1.671875,-2.464844 0.245871,-0.877864 0.257612,-1.722742 0.22461,-2.419922 -0.033,-0.697179 -0.110743,-1.309089 -0.113282,-1.43164 l -2.433593,0.05078 c 0.01007,0.486009 0.09077,0.938119 0.117187,1.496094 0.02641,0.557975 -0.001,1.157042 -0.138672,1.648437 -0.137629,0.491396 -0.347894,0.855107 -0.753906,1.148438 -0.406012,0.293331 -1.078631,0.548828 -2.267578,0.548828 -1.053712,0 -1.689056,-0.36119 -2.15625,-0.90625 -0.467194,-0.54506 -0.734375,-1.332549 -0.734375,-2.136719 0,-0.804169 0.267181,-1.589706 0.734375,-2.134765 0.467194,-0.54506 1.102538,-0.90625 2.15625,-0.90625 h 8.519531 c 1.684809,0 3.103793,-0.705402 4.00586,-1.757813 0.902066,-1.05241 1.318359,-2.394912 1.318359,-3.720703 0,-1.325791 -0.416293,-2.668293 -1.318359,-3.7207035 C 25.479156,8.670647 24.060172,7.9671981 22.375363,7.9671981 Z"
         id="path879" />
    </g>
    <path
       d="m 17.02519,13.849385 c 0,-1.758958 -1.172639,-5.8631926 4.104234,-5.8631926 5.276875,0 5.276875,8.2084716 0,8.2084716 h -8.208469 c -5.276875,0 -5.276875,8.208471 0,8.208471 5.276875,0 4.128521,-4.690555 4.104235,-5.863194"
       fill="none"
       stroke="#ffffff"
       stroke-linejoin="round"
       stroke-width="2.34527"
       id="path8"
       style="stroke:url(#linearGradient899)" />
  </g>
</svg>
