<?xml version="1.0" encoding="UTF-8" standalone="no"?>
<svg
   width="128"
   height="128"
   viewBox="0 0 33.866666 33.866668"
   version="1.1"
   id="svg1015"
   inkscape:version="1.1.2 (0a00cf5339, 2022-02-04)"
   sodipodi:docname="aks.svg"
   xmlns:inkscape="http://www.inkscape.org/namespaces/inkscape"
   xmlns:sodipodi="http://sodipodi.sourceforge.net/DTD/sodipodi-0.dtd"
   xmlns:xlink="http://www.w3.org/1999/xlink"
   xmlns="http://www.w3.org/2000/svg"
   xmlns:svg="http://www.w3.org/2000/svg"
   xmlns:rdf="http://www.w3.org/1999/02/22-rdf-syntax-ns#"
   xmlns:cc="http://creativecommons.org/ns#"
   xmlns:dc="http://purl.org/dc/elements/1.1/">
  <defs
     id="defs1009">
    <linearGradient
       inkscape:collect="always"
       id="linearGradient873">
      <stop
         style="stop-color:#0b0b0b;stop-opacity:1;"
         offset="0"
         id="stop869" />
      <stop
         style="stop-color:#0b0b0b;stop-opacity:0.85882353;"
         offset="0.68076366"
         id="stop878" />
      <stop
         style="stop-color:#0b0b0b;stop-opacity:0.83137255;"
         offset="0.69925421"
         id="stop888" />
      <stop
         style="stop-color:#0b0b0b;stop-opacity:0.80392157;"
         offset="0.71879315"
         id="stop890" />
      <stop
         style="stop-color:#0b0b0b;stop-opacity:0.78039216;"
         offset="0.73593426"
         id="stop892" />
      <stop
         style="stop-color:#0b0b0b;stop-opacity:0.75686275;"
         offset="0.75022364"
         id="stop894" />
      <stop
         style="stop-color:#0b0b0b;stop-opacity:0.73333333;"
         offset="0.76798755"
         id="stop896" />
      <stop
         style="stop-color:#0b0b0b;stop-opacity:0.08235294;"
         offset="0.9150058"
         id="stop919" />
      <stop
         style="stop-color:#0b0b0b;stop-opacity:0.07058824;"
         offset="0.92246956"
         id="stop917" />
      <stop
         style="stop-color:#0b0b0b;stop-opacity:0.05882353;"
         offset="0.92918676"
         id="stop915" />
      <stop
         style="stop-color:#0b0b0b;stop-opacity:0.04705882;"
         offset="0.93840873"
         id="stop912" />
      <stop
         style="stop-color:#0b0b0b;stop-opacity:0.03137255;"
         offset="0.94760686"
         id="stop910" />
      <stop
         style="stop-color:#0b0b0b;stop-opacity:0.02352941;"
         offset="0.95380515"
         id="stop908" />
      <stop
         style="stop-color:#0b0b0b;stop-opacity:0.01568627;"
         offset="0.95886087"
         id="stop906" />
      <stop
         style="stop-color:#0b0b0b;stop-opacity:0.01176471;"
         offset="0.96356124"
         id="stop904" />
      <stop
         style="stop-color:#0b0b0b;stop-opacity:0.00784314;"
         offset="0.96845078"
         id="stop902" />
      <stop
         style="stop-color:#0b0b0b;stop-opacity:0.00392157;"
         offset="0.97347641"
         id="stop900" />
      <stop
         style="stop-color:#0b0b0b;stop-opacity:0;"
         offset="0.97812337"
         id="stop886" />
      <stop
         style="stop-color:#0b0b0b;stop-opacity:0;"
         offset="0.98456311"
         id="stop884" />
      <stop
         style="stop-color:#0b0b0b;stop-opacity:0;"
         offset="0.98700982"
         id="stop882" />
      <stop
         style="stop-color:#0b0b0b;stop-opacity:0;"
         offset="0.98924524"
         id="stop880" />
      <stop
         style="stop-color:#0b0b0b;stop-opacity:0;"
         offset="1"
         id="stop871" />
    </linearGradient>
    <linearGradient
       inkscape:collect="always"
       xlink:href="#linearGradient895"
       id="linearGradient897"
       x1="2685.9844"
       y1="1088.7905"
       x2="2685.9844"
       y2="1770.3615"
       gradientUnits="userSpaceOnUse"
       gradientTransform="matrix(0.04277854,0,0,0.04277854,-95.919086,-44.867312)" />
    <linearGradient
       inkscape:collect="always"
       id="linearGradient895">
      <stop
         style="stop-color:#bb67ff;stop-opacity:1"
         offset="0"
         id="stop891" />
      <stop
         style="stop-color:#4103b5;stop-opacity:1"
         offset="1"
         id="stop893" />
    </linearGradient>
    <linearGradient
       inkscape:collect="always"
       id="linearGradient879">
      <stop
         style="stop-color:#aa5fff;stop-opacity:1"
         offset="0"
         id="stop875" />
      <stop
         style="stop-color:#5100ea;stop-opacity:1"
         offset="1"
         id="stop877" />
    </linearGradient>
    <radialGradient
       inkscape:collect="always"
       xlink:href="#linearGradient873"
       id="radialGradient898"
       gradientUnits="userSpaceOnUse"
       cx="60.636452"
       cy="20.456388"
       fx="60.636452"
       fy="20.456388"
       r="17.303919"
       gradientTransform="translate(-43.433354,-3.9448764)" />
    <radialGradient
       inkscape:collect="always"
       xlink:href="#linearGradient879"
       id="radialGradient993"
       cx="16.968126"
       cy="4.670938"
       fx="16.968126"
       fy="4.670938"
       r="13.695572"
       gradientUnits="userSpaceOnUse"
       gradientTransform="matrix(4.8885673,0,0,1.5420669,-65.723642,-0.93384819)" />
    <linearGradient
       inkscape:collect="always"
       xlink:href="#linearGradient1155"
       id="linearGradient1157"
       x1="24.246094"
       y1="29.900776"
       x2="24.246094"
       y2="352.80118"
       gradientUnits="userSpaceOnUse" />
    <linearGradient
       inkscape:collect="always"
       id="linearGradient1155">
      <stop
         style="stop-color:#f6f6f7;stop-opacity:1;"
         offset="0"
         id="stop1151" />
      <stop
         style="stop-color:#6c1df0;stop-opacity:1"
         offset="1"
         id="stop1153" />
    </linearGradient>
  </defs>
  <sodipodi:namedview
     id="base"
     pagecolor="#ffffff"
     bordercolor="#666666"
     borderopacity="1.0"
     inkscape:pageopacity="0.0"
     inkscape:pageshadow="2"
     inkscape:zoom="2.8"
     inkscape:cx="-7.6785714"
     inkscape:cy="73.214286"
     inkscape:document-units="mm"
     inkscape:current-layer="layer1"
     inkscape:document-rotation="0"
     showgrid="false"
     units="px"
     inkscape:window-width="1920"
     inkscape:window-height="1022"
     inkscape:window-x="0"
     inkscape:window-y="0"
     inkscape:window-maximized="1"
     inkscape:pagecheckerboard="0" />
  <metadata
     id="metadata1012">
    <rdf:RDF>
      <cc:Work
         rdf:about="">
        <dc:format>image/svg+xml</dc:format>
        <dc:type
           rdf:resource="http://purl.org/dc/dcmitype/StillImage" />
      </cc:Work>
    </rdf:RDF>
  </metadata>
  <g
     inkscape:label="Capa 1"
     inkscape:groupmode="layer"
     id="layer1">
    <circle
       style="opacity:0.309726;fill:url(#radialGradient898);fill-opacity:1;stroke-width:3;stroke-linecap:square;stroke-linejoin:round"
       id="path867"
       cx="17.203098"
       cy="16.511513"
       r="17.303919" />
    <circle
       style="fill:url(#linearGradient897);fill-opacity:1;stroke:#b1aaaa;stroke-width:0.0575565;stroke-linecap:square;stroke-opacity:0.992157"
       id="circle839"
       cx="17.203098"
       cy="16.511513"
       r="15.118138" />
    <circle
       style="fill:url(#radialGradient993);fill-opacity:1;stroke:none;stroke-width:0.0498826;stroke-linecap:square;stroke-opacity:1"
       id="circle839-3"
       cx="17.203098"
       cy="16.511513"
       r="13.102469" />
    <g
       id="g1034"
       transform="matrix(0.83942049,0,0,0.83942049,3.2502016,3.2491504)">
      <path
         id="path2778"
         style="fill:#08084e;fill-opacity:0.21335;stroke-width:0.421439"
         d="m 17.040815,5.8149711 v 0.00155 A 2.6724327,2.6833147 0 0 0 15.641417,6.1736054 L 7.7783308,10.7325 a 2.6724327,2.6833147 0 0 0 -1.3363524,2.324406 v 9.117273 a 2.6724327,2.6833147 0 0 0 1.3363524,2.323372 l 7.8630862,4.558379 a 2.6724327,2.6833147 0 0 0 2.673222,0 l 7.863085,-4.558379 a 2.6724327,2.6833147 0 0 0 1.336352,-2.323372 V 13.056906 A 2.6724327,2.6833147 0 0 0 26.177724,10.7325 L 18.314639,6.1736054 A 2.6724327,2.6833147 0 0 0 17.040815,5.8149711 Z m 0.436665,4.5899009 c 0.09718,-0.0032 0.179891,0.0064 0.22841,0.03256 0.156528,0.08445 0.13599,0.204638 -0.03514,0.204638 -0.07806,0 -0.313334,0.0142 -0.522965,0.03204 -0.280769,0.02396 -0.381372,0.01691 -0.381372,-0.02739 0,-0.11098 0.419534,-0.232347 0.711067,-0.241845 z m -0.200504,0.38809 c 0.102758,-4.04e-4 0.187068,0.02199 0.187068,0.04961 0,0.05398 -0.0054,0.0549 -0.361218,0.06873 -0.130135,0.0048 -0.236678,-0.0059 -0.236678,-0.02377 0,-0.04843 0.196488,-0.09379 0.410828,-0.09457 z m -0.448035,0.585494 c 0.07447,-9.4e-4 0.15567,-8.29e-4 0.24598,0 0.776862,0.0071 1.20757,0.07649 1.879988,0.30179 0.942409,0.315746 1.770448,0.799919 2.518193,1.473295 0.218467,0.196731 0.40533,0.333012 0.415478,0.302307 0.05809,-0.175698 -0.821236,-1.080975 -1.346687,-1.386478 -0.36984,-0.215026 -0.474856,-0.323495 -0.314193,-0.323495 0.04042,0 0.283106,0.113053 0.539502,0.251148 0.504774,0.271866 0.566723,0.290505 0.591178,0.1757 0.02835,-0.13321 0.431906,0.114639 0.814938,0.500744 1.006154,1.0142 1.720633,2.663511 1.915128,4.420402 0.111722,1.009096 0.06436,1.519903 -0.278536,2.987931 -0.152499,0.652838 -0.63714,1.672567 -1.038179,2.184363 -0.151496,0.19333 -0.36776,0.471791 -0.480074,0.619084 -0.230218,0.301916 -1.275571,1.109705 -1.789038,1.382344 -0.508728,0.270121 -1.639955,0.642519 -1.643828,0.541569 0.0013,-0.01915 0.129547,-0.07891 0.286288,-0.133325 0.185456,-0.06437 0.303271,-0.13758 0.333829,-0.207739 0.02598,-0.05957 0.194087,-0.193669 0.373621,-0.298173 0.179535,-0.104504 0.490944,-0.300897 0.691947,-0.436149 0.315152,-0.212048 0.361286,-0.26183 0.336414,-0.361735 -0.01916,-0.07688 -0.0037,-0.125611 0.04547,-0.144694 0.09011,-0.03485 0.09935,-0.132077 0.0124,-0.131775 -0.03426,9.6e-5 -0.163503,0.06874 -0.286805,0.152962 -0.310148,0.211856 -0.661702,0.388744 -0.72657,0.365352 -0.0298,-0.01078 -0.175204,0.03738 -0.323495,0.106971 -0.148292,0.06957 -0.328585,0.126853 -0.400492,0.127124 -0.07191,2.54e-4 -0.226127,0.03399 -0.342615,0.07545 -0.116484,0.04141 -0.235336,0.07545 -0.264066,0.07545 -0.09034,0 0.170218,-0.243809 0.497127,-0.465088 0.327616,-0.221767 0.405643,-0.320444 0.187069,-0.236678 -0.168878,0.06473 -0.42013,0.06266 -0.42013,-0.0036 0,-0.0289 0.0693,-0.09092 0.153996,-0.137977 0.348508,-0.193556 0.602931,-0.368891 0.575676,-0.396358 -0.01595,-0.01607 -0.185049,0.06412 -0.375688,0.178284 -0.19064,0.114158 -0.370519,0.207739 -0.399976,0.207739 -0.131235,0 -0.02762,-0.117211 0.29559,-0.33383 0.362245,-0.242808 0.44521,-0.366148 0.113688,-0.168982 -0.266337,0.158409 -0.661975,0.309496 -0.661975,0.252698 0,-0.02623 0.192564,-0.175557 0.42788,-0.331762 0.235321,-0.15621 0.467357,-0.350458 0.516248,-0.431499 0.0489,-0.08104 0.236606,-0.270116 0.417029,-0.420129 0.180424,-0.150013 0.349224,-0.312538 0.375171,-0.361218 0.02597,-0.04869 0.184774,-0.257953 0.352433,-0.465088 0.367344,-0.453832 0.817101,-1.337589 0.945679,-1.857768 0.05529,-0.223718 0.107858,-0.682207 0.129191,-1.129647 0.03188,-0.668971 0.02346,-0.814727 -0.07441,-1.301729 -0.287608,-1.431324 -0.790714,-2.379028 -1.594735,-3.002917 -0.814726,-0.632203 -1.489355,-0.860413 -2.54093,-0.860413 -0.788075,0 -1.270411,0.113616 -2.09858,0.495577 -0.792007,0.365292 -1.022024,0.525474 -1.574064,1.092956 -0.468317,0.481418 -0.473875,0.489857 -0.908472,1.467094 l -0.156579,0.351917 0.03204,-0.251147 c 0.04073,-0.319001 0.297371,-0.882011 0.575159,-1.261939 0.427853,-0.585177 1.210585,-1.231531 1.664497,-1.374076 0.109605,-0.03442 0.410447,-0.178109 0.668177,-0.319877 l 0.468705,-0.257866 -0.219625,-0.01395 c -0.120736,-0.0077 -0.270152,-0.03969 -0.331763,-0.07131 -0.0817,-0.04188 -0.159078,-0.04276 -0.286287,-0.0036 -0.268714,0.08313 -0.208491,-0.02149 0.100252,-0.17415 0.276824,-0.136856 0.307731,-0.190833 0.163298,-0.28267 -0.09917,-0.06306 -0.561313,0.131386 -1.068669,0.449068 -0.565497,0.354093 -1.144826,0.923278 -0.707967,0.695565 l 0.156063,-0.08165 -0.03411,0.137976 c -0.02218,0.08912 -0.01254,0.151852 0.02739,0.176734 0.04444,0.02768 0.0064,0.104266 -0.134359,0.271301 -0.287872,0.341557 -0.625055,0.789794 -0.780831,1.038179 -0.0752,0.119893 -0.222064,0.32539 -0.326078,0.456303 -0.194779,0.245164 -0.458887,0.942734 -0.458887,1.211813 0,0.07612 -0.02221,0.179815 -0.04909,0.230476 -0.03552,0.06692 -0.02992,0.09937 0.01912,0.11834 0.100703,0.03893 0.140911,0.332107 0.153479,1.113627 0.01338,0.833026 0.083,1.064757 0.504879,1.685685 0.147703,0.217386 0.268201,0.40759 0.268201,0.422713 0,0.01514 -0.06158,0.01362 -0.136943,-0.0036 -0.116517,-0.02636 -0.08213,0.02392 0.228927,0.336413 0.201164,0.202099 0.344487,0.374827 0.318843,0.38344 -0.02564,0.0086 -0.148161,-0.02851 -0.272335,-0.08217 -0.20399,-0.08813 -0.324934,-0.205838 -0.679028,-0.658875 -0.120117,-0.153692 -0.195119,-0.09963 -0.113172,0.08165 0.101326,0.224151 0.02723,0.186878 -0.172082,-0.08682 -0.104615,-0.143659 -0.198219,-0.236539 -0.208256,-0.206189 -0.02409,0.07287 0.03732,0.18385 0.349849,0.629936 0.143563,0.204892 0.29928,0.443341 0.346233,0.5302 0.05626,0.10407 0.136002,0.167913 0.233577,0.187585 0.08144,0.01644 0.160239,0.06202 0.175183,0.101286 0.03458,0.09085 0.672142,0.381714 0.761194,0.347266 0.0368,-0.01418 0.179357,0.01876 0.316776,0.07338 0.137414,0.05459 0.366699,0.09971 0.50953,0.09974 0.707345,10e-5 1.577943,0.776445 1.579232,1.408182 5.92e-4,0.309513 -0.245076,0.72266 -0.553455,0.930693 -0.38926,0.262594 -1.237258,0.356591 -1.772501,0.19637 -0.661445,-0.197974 -2.531118,-1.858319 -3.27887,-2.911966 -0.443646,-0.625142 -0.681263,-1.145617 -0.8950358,-1.958537 -0.2900159,-1.299077 0.086729,-3.092755 0.4278808,-4.110861 0.283019,-0.838295 0.36824,-1.017612 0.499195,-1.052132 0.122089,-0.0322 0.144809,0.0058 0.09043,0.149862 -0.0884,0.234381 -0.06354,0.283974 0.127641,0.252698 0.220864,-0.03611 0.220936,-0.02609 -0.0026,0.647505 -0.175998,0.53025 -0.211818,0.799379 -0.04496,0.337448 0.269009,-0.744696 0.471398,-1.054369 0.401526,-0.613916 -0.04568,0.28799 0.05843,0.238136 0.225826,-0.108521 0.07232,-0.14976 0.203636,-0.340379 0.291455,-0.42323 l 0.15968,-0.150378 -0.13901,0.287321 c -0.07642,0.158041 -0.122837,0.303333 -0.103353,0.322977 0.05512,0.05554 0.114781,-0.03029 0.280087,-0.402559 0.114685,-0.25829 0.13329,-0.336759 0.07493,-0.314193 -0.0466,0.01806 -0.01178,-0.06282 0.08682,-0.201538 0.09053,-0.127394 0.191501,-0.242489 0.224276,-0.255281 0.03276,-0.01275 0.16135,-0.162569 0.28577,-0.332797 0.403353,-0.55186 0.922676,-0.89514 2.10013,-1.388029 0.271363,-0.1136 0.642664,-0.297116 0.824756,-0.407727 0.4052,-0.246147 0.579909,-0.305544 1.101225,-0.312125 z m 1.122412,0.392224 c -0.02486,5.76e-4 -0.04293,0.0035 -0.05219,0.0093 -0.06236,0.03882 0.05055,0.07917 0.536401,0.191202 0.41873,0.09655 0.538985,0.09483 0.357601,-0.0041 -0.160134,-0.0875 -0.667762,-0.200402 -0.841809,-0.19637 z m -4.505668,0.209806 c 0.01035,0.0017 0.01302,0.01123 0.0057,0.03049 -0.02225,0.05844 -0.62421,0.607772 -1.141015,1.04128 l -0.149345,0.125574 0.111621,-0.15968 c 0.218617,-0.312373 1.07297,-1.054221 1.173055,-1.037663 z m 5.732983,0.127124 c -0.03908,0.0068 0.09519,0.09444 0.40256,0.256832 0.273991,0.144773 0.609855,0.334798 0.746207,0.422196 0.251843,0.16142 0.338766,0.177679 0.227377,0.04237 -0.118698,-0.144167 -0.622061,-0.44894 -0.970484,-0.587561 -0.239805,-0.0954 -0.375261,-0.139148 -0.40566,-0.133842 z m -6.893636,0.317294 c 0.02229,-0.0046 0.03179,0.0098 0.03824,0.04186 0.02049,0.101792 -0.132467,0.334347 -0.220142,0.334347 -0.03794,0 -0.06925,-0.04342 -0.06925,-0.09663 0,-0.05327 0.06158,-0.1458 0.136943,-0.205672 0.05691,-0.04523 0.09191,-0.06926 0.114204,-0.0739 z m 2.865458,0.476456 c 0.04272,0 0.06395,0.02251 0.04703,0.05013 -0.01693,0.02762 -0.05225,0.05064 -0.07803,0.05064 -0.02577,0 -0.04651,-0.02309 -0.04651,-0.05064 0,-0.02762 0.03479,-0.05013 0.07751,-0.05013 z m 6.223393,3.630786 c 0.05496,0.0034 0.129366,0.406233 0.115239,0.652674 -0.01466,0.256605 -0.01619,0.253351 -0.08527,-0.178284 -0.03869,-0.241795 -0.05715,-0.45328 -0.04083,-0.469739 0.0035,-0.0035 0.0072,-0.0049 0.01085,-0.0047 z m 0.09819,1.19941 c 0.0036,-0.0036 0.0079,0.0055 0.0124,0.02894 0.01195,0.06246 0.01164,0.152494 -0.001,0.200505 -0.01242,0.04802 -0.02222,-0.0026 -0.0217,-0.113172 3.43e-4,-0.06905 0.0044,-0.110306 0.01034,-0.116272 z m -0.001,0.600997 c 0.0017,-1.79e-4 0.0032,5.73e-4 0.0047,0.0021 0.03613,0.03641 -0.111168,0.852406 -0.202055,1.119828 -0.08536,0.251128 -0.309119,0.728121 -0.341581,0.728121 -0.0096,0 0.05695,-0.197592 0.147794,-0.439249 0.140903,-0.374932 0.256111,-0.803465 0.351917,-1.311548 0.01088,-0.05723 0.02738,-0.09797 0.03927,-0.09922 z m -0.646472,2.018482 c 0.02797,-0.0088 -0.168496,0.379463 -0.304891,0.597379 -0.06482,0.10357 -0.15097,0.188102 -0.19172,0.188102 -0.04078,0 -0.07441,-0.01145 -0.07441,-0.02584 0,-0.02478 0.464215,-0.645437 0.562757,-0.752409 0.0039,-0.0043 0.0064,-0.0066 0.0083,-0.0072 z M 20.34246,24.11773 c -0.04861,-0.0027 -0.249586,0.08443 -0.353984,0.158129 -0.150348,0.106149 -0.06429,0.09229 0.167432,-0.02687 0.108505,-0.05578 0.197404,-0.111472 0.197404,-0.124024 0,-0.0044 -0.0039,-0.0068 -0.01085,-0.0072 z" />
      <path
         id="path4"
         style="fill:url(#linearGradient1157);fill-opacity:1;stroke-width:1.59284"
         d="m 64.304688,19.964844 v 0.0059 a 10.100533,10.141662 0 0 0 -5.289063,1.349609 l -29.71875,17.230469 a 10.100533,10.141662 0 0 0 -5.050781,8.785157 v 34.458984 a 10.100533,10.141662 0 0 0 5.050781,8.78125 l 29.71875,17.228517 a 10.100533,10.141662 0 0 0 10.103516,0 l 29.71875,-17.228517 a 10.100533,10.141662 0 0 0 5.050779,-8.78125 V 47.335938 A 10.100533,10.141662 0 0 0 98.837891,38.550781 L 69.119141,21.320312 a 10.100533,10.141662 0 0 0 -4.814453,-1.355468 z m 1.65039,17.347656 c 0.367286,-0.01197 0.679901,0.02411 0.863281,0.123047 0.591602,0.319196 0.513978,0.773437 -0.132812,0.773437 -0.29503,0 -1.184256,0.05367 -1.976563,0.121094 -1.061174,0.09056 -1.441406,0.06392 -1.441406,-0.103516 0,-0.419454 1.585642,-0.878162 2.6875,-0.914062 z m -0.757812,1.466797 c 0.388376,-0.0015 0.707031,0.08312 0.707031,0.1875 0,0.204019 -0.02059,0.20751 -1.365235,0.259765 -0.491848,0.01807 -0.894531,-0.02237 -0.894531,-0.08984 0,-0.183058 0.742631,-0.354482 1.552735,-0.357422 z m -1.69336,2.212891 c 0.281476,-0.0036 0.58836,-0.0031 0.929688,0 2.936171,0.02683 4.564046,0.289116 7.105468,1.140624 3.561858,1.193371 6.691456,3.023317 9.517579,5.56836 0.825702,0.74355 1.531954,1.258628 1.570312,1.142578 0.219553,-0.664055 -3.103887,-4.085574 -5.089844,-5.240234 -1.39782,-0.812697 -1.79473,-1.222657 -1.1875,-1.222657 0.152769,0 1.070007,0.427285 2.039063,0.949219 1.907807,1.027525 2.141947,1.097975 2.234375,0.664063 0.107149,-0.503471 1.632398,0.433283 3.080078,1.892578 3.802787,3.833197 6.503182,10.066813 7.238281,16.707031 0.422257,3.813906 0.243266,5.744516 -1.052734,11.292969 -0.576374,2.467419 -2.40809,6.321512 -3.923828,8.255859 -0.572584,0.730696 -1.38996,1.783146 -1.814453,2.339844 -0.870116,1.1411 -4.821056,4.194163 -6.761719,5.224609 -1.922749,1.020929 -6.198253,2.428416 -6.212891,2.046875 0.0049,-0.07237 0.489627,-0.298253 1.082031,-0.503906 0.700937,-0.243288 1.146224,-0.519988 1.261719,-0.785156 0.09819,-0.225147 0.733556,-0.731978 1.41211,-1.126953 0.678557,-0.394976 1.855534,-1.137249 2.615234,-1.648438 1.191122,-0.801441 1.365489,-0.989594 1.271484,-1.367187 -0.07242,-0.29057 -0.01393,-0.474751 0.171875,-0.546875 0.340574,-0.131717 0.375505,-0.499189 0.04687,-0.498047 -0.129486,3.63e-4 -0.617964,0.259805 -1.083984,0.578125 -1.172213,0.800715 -2.500923,1.46927 -2.746094,1.380859 -0.11263,-0.04074 -0.662186,0.14128 -1.222656,0.404297 -0.560477,0.262942 -1.241897,0.479444 -1.513672,0.480469 -0.271786,9.6e-4 -0.854652,0.128457 -1.294922,0.285156 -0.440254,0.15651 -0.889461,0.285156 -0.998047,0.285156 -0.341442,0 0.643345,-0.921482 1.878907,-1.757812 1.238233,-0.838175 1.533137,-1.211127 0.707031,-0.894532 -0.638279,0.244649 -1.587891,0.236836 -1.587891,-0.01367 0,-0.109229 0.261902,-0.343624 0.582031,-0.521485 1.317196,-0.73155 2.278793,-1.394234 2.175782,-1.498047 -0.06028,-0.06074 -0.699397,0.24235 -1.419922,0.673829 -0.720529,0.431463 -1.400385,0.785156 -1.511719,0.785156 -0.496006,0 -0.104378,-0.443002 1.117188,-1.261719 1.369115,-0.9177 1.682684,-1.38387 0.429687,-0.638672 -1.006628,0.598708 -2.501953,1.169748 -2.501953,0.955078 0,-0.09914 0.727804,-0.663525 1.617187,-1.253906 0.889403,-0.5904 1.766387,-1.324563 1.951172,-1.630859 0.184819,-0.306293 0.894259,-1.020913 1.576172,-1.587891 0.681918,-0.566978 1.319902,-1.181247 1.417969,-1.365234 0.09815,-0.184026 0.698359,-0.97494 1.332031,-1.757813 1.388387,-1.71527 3.088255,-5.055453 3.574219,-7.021484 0.20897,-0.845549 0.407653,-2.57842 0.488281,-4.269532 0.120492,-2.528394 0.08865,-3.079284 -0.28125,-4.919921 -1.087022,-5.409729 -2.988524,-8.991604 -6.027344,-11.34961 -3.079279,-2.389425 -5.629058,-3.251953 -9.603515,-3.251953 -2.978551,0 -4.801553,0.429415 -7.931641,1.873047 -2.993412,1.380631 -3.862768,1.986042 -5.949218,4.130859 -1.770018,1.819533 -1.791023,1.851428 -3.433594,5.544922 l -0.591797,1.330078 0.121094,-0.949218 c 0.15394,-1.205673 1.12392,-3.333583 2.173828,-4.769532 1.617082,-2.211692 4.575439,-4.654606 6.291015,-5.193359 0.414255,-0.130091 1.551293,-0.673165 2.525391,-1.208984 l 1.771484,-0.97461 -0.830078,-0.05273 c -0.456325,-0.0291 -1.021049,-0.150023 -1.253906,-0.269531 -0.308787,-0.158287 -0.601241,-0.161603 -1.082031,-0.01367 -1.015612,0.314192 -0.787997,-0.08124 0.378906,-0.658203 1.046264,-0.517251 1.163076,-0.721259 0.617188,-1.06836 -0.374816,-0.238337 -2.121497,0.496578 -4.039063,1.697266 -2.137311,1.338304 -4.326902,3.489554 -2.675781,2.628906 l 0.589844,-0.308594 -0.128907,0.521485 c -0.08383,0.336831 -0.0474,0.573926 0.103516,0.667968 0.167962,0.104618 0.02435,0.394078 -0.507813,1.025391 -1.08802,1.290924 -2.362412,2.98505 -2.951172,3.923828 -0.28422,0.453139 -0.839298,1.22982 -1.232421,1.72461 -0.736173,0.926604 -1.734375,3.563086 -1.734375,4.580078 0,0.287697 -0.08395,0.679615 -0.185547,0.871093 -0.134249,0.252926 -0.113083,0.375568 0.07227,0.447266 0.38061,0.147137 0.532577,1.255208 0.580078,4.208984 0.05057,3.148445 0.313715,4.02428 1.908204,6.371094 0.558247,0.821617 1.013672,1.540499 1.013672,1.597656 0,0.05722 -0.232757,0.05149 -0.517579,-0.01367 -0.440379,-0.09963 -0.31041,0.0904 0.865235,1.271484 0.760308,0.763839 1.302,1.416666 1.205078,1.449219 -0.09691,0.0325 -0.559978,-0.107738 -1.029297,-0.310547 -0.770986,-0.33309 -1.228098,-0.777969 -2.566406,-2.490235 -0.453986,-0.580883 -0.737459,-0.376559 -0.427735,0.308594 0.382961,0.847185 0.1029,0.706309 -0.65039,-0.328125 -0.395396,-0.542963 -0.749175,-0.894005 -0.78711,-0.779297 -0.09105,0.275415 0.141039,0.694869 1.322266,2.38086 0.5426,0.774395 1.131137,1.67562 1.308594,2.003906 0.212636,0.393335 0.514025,0.634634 0.882812,0.708984 0.307805,0.06214 0.605628,0.23441 0.66211,0.382813 0.130696,0.34337 2.540378,1.442697 2.876953,1.3125 0.139086,-0.05359 0.677883,0.07091 1.197265,0.277344 0.51936,0.206324 1.385948,0.376839 1.925782,0.376953 2.67343,3.81e-4 5.963878,2.934598 5.96875,5.322265 0.0022,1.16981 -0.92627,2.731312 -2.091797,3.517579 -1.471219,0.992481 -4.676253,1.347747 -6.699219,0.742187 C 50.6563,89.173627 43.589821,82.898307 40.763672,78.916016 39.086899,76.553278 38.18882,74.586125 37.380859,71.513672 36.284736,66.603775 37.708653,59.824522 38.998047,55.976562 40.067724,52.8082 40.389821,52.130469 40.884766,52 c 0.461442,-0.121701 0.547312,0.02204 0.341796,0.566406 -0.33411,0.88585 -0.240163,1.073287 0.482422,0.955078 0.834762,-0.136478 0.835035,-0.09862 -0.0098,2.447266 -0.66519,2.004091 -0.800574,3.021272 -0.169922,1.275391 1.016727,-2.814599 1.781661,-3.985017 1.517578,-2.320313 -0.172649,1.088466 0.220849,0.900044 0.853516,-0.410156 0.273335,-0.566022 0.769648,-1.286472 1.101562,-1.59961 l 0.603516,-0.568359 -0.525391,1.085938 c -0.288831,0.59732 -0.464265,1.146458 -0.390625,1.220703 0.208328,0.209915 0.433815,-0.114499 1.058594,-1.521485 0.433455,-0.976214 0.503776,-1.272788 0.283203,-1.1875 -0.176126,0.06826 -0.04454,-0.237419 0.328125,-0.761718 0.342161,-0.48149 0.723782,-0.916493 0.847656,-0.964844 0.123818,-0.04819 0.60983,-0.614431 1.080078,-1.257813 1.524484,-2.08577 3.487277,-3.383206 7.9375,-5.246093 1.025621,-0.429358 2.428966,-1.122959 3.117188,-1.541016 1.531465,-0.93032 2.191781,-1.154815 4.162109,-1.179687 z m 4.242188,1.482421 c -0.09397,0.0022 -0.162259,0.01335 -0.197266,0.03516 -0.235691,0.146721 0.191068,0.299239 2.027344,0.722656 1.582601,0.364913 2.037108,0.358397 1.351562,-0.01563 -0.60523,-0.330719 -2.523824,-0.757427 -3.18164,-0.742188 z m -17.029297,0.792969 c 0.03913,0.0065 0.04919,0.04245 0.02148,0.115234 -0.08409,0.220876 -2.359221,2.297092 -4.3125,3.935547 l -0.564453,0.47461 0.421875,-0.603516 c 0.826267,-1.180621 4.055318,-3.984458 4.433594,-3.921875 z m 21.667969,0.480469 c -0.14772,0.02579 0.359776,0.356929 1.521484,0.970703 1.035557,0.547174 2.304966,1.26538 2.820312,1.595703 0.951848,0.610088 1.280373,0.671542 0.859376,0.160156 -0.448623,-0.544883 -2.351095,-1.696781 -3.667969,-2.220703 -0.90635,-0.36058 -1.41831,-0.525915 -1.533203,-0.505859 z m -26.054688,1.199219 c 0.08425,-0.01751 0.12015,0.03707 0.144531,0.158203 0.07744,0.384725 -0.500661,1.263672 -0.832031,1.263672 -0.143395,0 -0.261719,-0.164126 -0.261719,-0.365235 0,-0.201335 0.232753,-0.551056 0.517579,-0.777344 0.2151,-0.170929 0.347388,-0.261783 0.43164,-0.279296 z m 10.830078,1.800781 c 0.161462,0 0.241684,0.08506 0.177735,0.189453 -0.06399,0.104391 -0.197486,0.191406 -0.294922,0.191406 -0.0974,0 -0.175782,-0.08728 -0.175781,-0.191406 0,-0.104391 0.131507,-0.189453 0.292968,-0.189453 z m 23.521485,13.722656 c 0.207734,0.01293 0.488941,1.535368 0.435547,2.466797 -0.05541,0.969846 -0.06118,0.957548 -0.322266,-0.673828 -0.14623,-0.913871 -0.215979,-1.713184 -0.154297,-1.775391 0.01308,-0.01318 0.02717,-0.01844 0.04102,-0.01758 z m 0.371093,4.533203 c 0.01348,-0.01353 0.02985,0.02084 0.04687,0.109375 0.04517,0.23607 0.04398,0.576354 -0.0039,0.757813 -0.04694,0.181493 -0.084,-0.0098 -0.08203,-0.427735 0.0013,-0.260983 0.01659,-0.416905 0.03906,-0.439453 z m -0.0039,2.271485 c 0.0064,-6.76e-4 0.01197,0.0022 0.01758,0.0078 0.136555,0.137613 -0.420162,3.221693 -0.763672,4.232422 -0.32262,0.949145 -1.168324,2.751953 -1.291015,2.751953 -0.03628,0 0.215257,-0.746807 0.558593,-1.660156 0.532547,-1.417066 0.967977,-3.036718 1.330079,-4.957031 0.04111,-0.216317 0.103478,-0.370269 0.148437,-0.375 z m -2.443359,7.628906 c 0.105721,-0.03329 -0.636835,1.434192 -1.152344,2.257812 -0.244989,0.391446 -0.570594,0.710938 -0.724609,0.710938 -0.15413,0 -0.28125,-0.04327 -0.28125,-0.09766 0,-0.09366 1.754514,-2.439447 2.126953,-2.84375 0.01492,-0.01619 0.0242,-0.02513 0.03125,-0.02734 z m -1.822266,14.236328 c -0.183732,-0.01032 -0.943315,0.3191 -1.337891,0.597656 -0.568244,0.401193 -0.243006,0.348806 0.632813,-0.101562 0.410098,-0.210822 0.746094,-0.42131 0.746094,-0.46875 0,-0.01646 -0.01477,-0.02587 -0.04102,-0.02734 z"
         transform="matrix(0.26458333,0,0,0.26458333,-0.64751133,-0.44511172)" />
    </g>
  </g>
</svg>
