<?xml version="1.0" encoding="UTF-8" standalone="no"?>
<svg
   width="128"
   height="128"
   viewBox="0 0 33.866666 33.866668"
   version="1.1"
   id="svg1015"
   inkscape:version="1.1.2 (0a00cf5339, 2022-02-04)"
   sodipodi:docname="heroesofnewerth.svg"
   xmlns:inkscape="http://www.inkscape.org/namespaces/inkscape"
   xmlns:sodipodi="http://sodipodi.sourceforge.net/DTD/sodipodi-0.dtd"
   xmlns:xlink="http://www.w3.org/1999/xlink"
   xmlns="http://www.w3.org/2000/svg"
   xmlns:svg="http://www.w3.org/2000/svg"
   xmlns:rdf="http://www.w3.org/1999/02/22-rdf-syntax-ns#"
   xmlns:cc="http://creativecommons.org/ns#"
   xmlns:dc="http://purl.org/dc/elements/1.1/">
  <defs
     id="defs1009">
    <linearGradient
       inkscape:collect="always"
       id="linearGradient873">
      <stop
         style="stop-color:#0b0b0b;stop-opacity:1;"
         offset="0"
         id="stop869" />
      <stop
         style="stop-color:#0b0b0b;stop-opacity:0.85882353;"
         offset="0.68076366"
         id="stop878" />
      <stop
         style="stop-color:#0b0b0b;stop-opacity:0.83137255;"
         offset="0.69925421"
         id="stop888" />
      <stop
         style="stop-color:#0b0b0b;stop-opacity:0.80392157;"
         offset="0.71879315"
         id="stop890" />
      <stop
         style="stop-color:#0b0b0b;stop-opacity:0.78039216;"
         offset="0.73593426"
         id="stop892" />
      <stop
         style="stop-color:#0b0b0b;stop-opacity:0.75686275;"
         offset="0.75022364"
         id="stop894" />
      <stop
         style="stop-color:#0b0b0b;stop-opacity:0.73333333;"
         offset="0.76798755"
         id="stop896" />
      <stop
         style="stop-color:#0b0b0b;stop-opacity:0.08235294;"
         offset="0.9150058"
         id="stop919" />
      <stop
         style="stop-color:#0b0b0b;stop-opacity:0.07058824;"
         offset="0.92246956"
         id="stop917" />
      <stop
         style="stop-color:#0b0b0b;stop-opacity:0.05882353;"
         offset="0.92918676"
         id="stop915" />
      <stop
         style="stop-color:#0b0b0b;stop-opacity:0.04705882;"
         offset="0.93840873"
         id="stop912" />
      <stop
         style="stop-color:#0b0b0b;stop-opacity:0.03137255;"
         offset="0.94760686"
         id="stop910" />
      <stop
         style="stop-color:#0b0b0b;stop-opacity:0.02352941;"
         offset="0.95380515"
         id="stop908" />
      <stop
         style="stop-color:#0b0b0b;stop-opacity:0.01568627;"
         offset="0.95886087"
         id="stop906" />
      <stop
         style="stop-color:#0b0b0b;stop-opacity:0.01176471;"
         offset="0.96356124"
         id="stop904" />
      <stop
         style="stop-color:#0b0b0b;stop-opacity:0.00784314;"
         offset="0.96845078"
         id="stop902" />
      <stop
         style="stop-color:#0b0b0b;stop-opacity:0.00392157;"
         offset="0.97347641"
         id="stop900" />
      <stop
         style="stop-color:#0b0b0b;stop-opacity:0;"
         offset="0.97812337"
         id="stop886" />
      <stop
         style="stop-color:#0b0b0b;stop-opacity:0;"
         offset="0.98456311"
         id="stop884" />
      <stop
         style="stop-color:#0b0b0b;stop-opacity:0;"
         offset="0.98700982"
         id="stop882" />
      <stop
         style="stop-color:#0b0b0b;stop-opacity:0;"
         offset="0.98924524"
         id="stop880" />
      <stop
         style="stop-color:#0b0b0b;stop-opacity:0;"
         offset="1"
         id="stop871" />
    </linearGradient>
    <linearGradient
       inkscape:collect="always"
       xlink:href="#linearGradient895"
       id="linearGradient897"
       x1="2685.9844"
       y1="1088.7905"
       x2="2685.9844"
       y2="1770.3615"
       gradientUnits="userSpaceOnUse"
       gradientTransform="matrix(0.04277854,0,0,0.04277854,-95.919086,-44.867312)" />
    <linearGradient
       inkscape:collect="always"
       id="linearGradient895">
      <stop
         style="stop-color:#93eb2d;stop-opacity:1"
         offset="0"
         id="stop891" />
      <stop
         style="stop-color:#10af62;stop-opacity:1"
         offset="1"
         id="stop893" />
    </linearGradient>
    <linearGradient
       inkscape:collect="always"
       id="linearGradient879">
      <stop
         style="stop-color:#30e59e;stop-opacity:0.52549022"
         offset="0"
         id="stop875" />
      <stop
         style="stop-color:#1abb47;stop-opacity:1"
         offset="1"
         id="stop877" />
    </linearGradient>
    <radialGradient
       inkscape:collect="always"
       xlink:href="#linearGradient873"
       id="radialGradient898"
       gradientUnits="userSpaceOnUse"
       cx="60.636452"
       cy="20.456388"
       fx="60.636452"
       fy="20.456388"
       r="17.303919"
       gradientTransform="translate(-43.433354,-3.9448764)" />
    <radialGradient
       inkscape:collect="always"
       xlink:href="#linearGradient879"
       id="radialGradient993"
       cx="16.968126"
       cy="3.7658708"
       fx="16.968126"
       fy="3.7658708"
       r="13.695572"
       gradientUnits="userSpaceOnUse"
       gradientTransform="matrix(4.8885673,0,0,1.8641486,-65.723642,-2.4382716)" />
    <linearGradient
       id="b"
       x2="1"
       gradientTransform="matrix(0.10138208,-17.338417,17.338417,0.10138208,16.113103,25.29877)"
       gradientUnits="userSpaceOnUse"
       x1="-1.2255912"
       y1="0.013013591"
       y2="1.110223e-16">
      <stop
         stop-color="#c9cfe5"
         offset="0"
         id="stop7"
         style="stop-color:#c22aff;stop-opacity:1" />
      <stop
         stop-color="#fff"
         offset="1"
         id="stop9" />
    </linearGradient>
    <linearGradient
       inkscape:collect="always"
       xlink:href="#linearGradient1204"
       id="linearGradient1206"
       x1="5.6282272"
       y1="12.217903"
       x2="5.6282272"
       y2="63.109715"
       gradientUnits="userSpaceOnUse"
       gradientTransform="matrix(0.81081173,0,0,0.81081173,3.2254734,2.624468)" />
    <linearGradient
       inkscape:collect="always"
       id="linearGradient1204">
      <stop
         style="stop-color:#ffffff;stop-opacity:1;"
         offset="0"
         id="stop1200" />
      <stop
         style="stop-color:#45dfca;stop-opacity:1"
         offset="1"
         id="stop1202" />
    </linearGradient>
  </defs>
  <sodipodi:namedview
     id="base"
     pagecolor="#ffffff"
     bordercolor="#666666"
     borderopacity="1.0"
     inkscape:pageopacity="0.0"
     inkscape:pageshadow="2"
     inkscape:zoom="2.8"
     inkscape:cx="-2.5"
     inkscape:cy="1.6071429"
     inkscape:document-units="mm"
     inkscape:current-layer="layer1"
     inkscape:document-rotation="0"
     showgrid="false"
     units="px"
     inkscape:window-width="1920"
     inkscape:window-height="1032"
     inkscape:window-x="0"
     inkscape:window-y="24"
     inkscape:window-maximized="1"
     inkscape:pagecheckerboard="0" />
  <metadata
     id="metadata1012">
    <rdf:RDF>
      <cc:Work
         rdf:about="">
        <dc:format>image/svg+xml</dc:format>
        <dc:type
           rdf:resource="http://purl.org/dc/dcmitype/StillImage" />
      </cc:Work>
    </rdf:RDF>
  </metadata>
  <g
     inkscape:label="Capa 1"
     inkscape:groupmode="layer"
     id="layer1">
    <circle
       style="opacity:0.309726;fill:url(#radialGradient898);fill-opacity:1;stroke-width:3;stroke-linecap:square;stroke-linejoin:round"
       id="path867"
       cx="17.203098"
       cy="16.511513"
       r="17.303919" />
    <circle
       style="fill:url(#linearGradient897);fill-opacity:1;stroke:#b1aaaa;stroke-width:0.0575565;stroke-linecap:square;stroke-opacity:0.992157"
       id="circle839"
       cx="17.203098"
       cy="16.511513"
       r="15.118138" />
    <circle
       style="fill:url(#radialGradient993);fill-opacity:1;stroke:none;stroke-width:0.0498826;stroke-linecap:square;stroke-opacity:1"
       id="circle839-3"
       cx="17.203098"
       cy="16.511513"
       r="13.102469" />
    <g
       id="g3340"
       style="fill:#03002e;fill-opacity:0.0213213"
       transform="matrix(0.81081173,0,0,0.81081173,3.2254734,2.624468)">
      <path
         style="fill:#03002e;fill-opacity:0.0213213;stroke-width:0.580298"
         d="m 5.674516,11.18631 v 2.901494 2.321197 6.383286 h 2.3211948 v -6.383286 h 1.1605991 v 4.062091 H 11.477504 V 11.18631 H 9.1563099 v 2.901494 H 7.9957108 V 11.18631 Z m 11.605979,0 a 4.6423249,4.6423249 0 0 0 -4.642392,4.64239 4.6423249,4.6423249 0 0 0 4.642392,4.642392 4.6423249,4.6423249 0 0 0 4.64239,-4.642392 4.6423249,4.6423249 0 0 0 -4.64239,-4.64239 z m 5.802988,0 v 9.284782 h 2.321195 v -4.98581 l 1.160599,2.010646 v 5.296359 h 2.321195 V 11.18631 h -2.321195 v 1.960776 L 25.404678,11.18631 Z m -5.802988,2.321195 A 2.3211625,2.3211625 0 0 1 19.60169,15.8287 2.3211625,2.3211625 0 0 1 17.280495,18.149898 2.3211625,2.3211625 0 0 1 14.959298,15.8287 2.3211625,2.3211625 0 0 1 17.280495,13.507505 Z m -4.642392,8.124186 v 2.321195 h 9.284782 v -2.321195 z"
         id="path3118" />
      <path
         style="fill:#03002e;fill-opacity:0.0213213;stroke-width:0.580298"
         d="m 5.4895236,11.031647 v 2.901494 2.321197 6.383286 h 2.3211948 v -6.383286 h 1.1605991 v 4.062091 H 11.292512 V 11.031647 H 8.9713175 v 2.901494 H 7.8107184 v -2.901494 z m 11.6059794,0 a 4.6423249,4.6423249 0 0 0 -4.642392,4.64239 4.6423249,4.6423249 0 0 0 4.642392,4.642392 4.6423249,4.6423249 0 0 0 4.64239,-4.642392 4.6423249,4.6423249 0 0 0 -4.64239,-4.64239 z m 5.802988,0 v 9.284782 h 2.321195 v -4.98581 l 1.160599,2.010646 v 5.296359 H 28.70148 V 11.031647 h -2.321195 v 1.960776 l -1.160599,-1.960776 z m -5.802988,2.321195 a 2.3211625,2.3211625 0 0 1 2.321195,2.321195 2.3211625,2.3211625 0 0 1 -2.321195,2.321198 2.3211625,2.3211625 0 0 1 -2.321197,-2.321198 2.3211625,2.3211625 0 0 1 2.321197,-2.321195 z m -4.642392,8.124186 v 2.321195 h 9.284782 v -2.321195 z"
         id="path3318" />
      <path
         style="fill:#03002e;fill-opacity:0.0213213;stroke-width:0.580298"
         d="m 5.7250448,11.47499 v 2.901494 2.321197 6.383286 h 2.3211948 v -6.383286 h 1.1605991 v 4.062091 H 11.528033 V 11.47499 H 9.2068387 v 2.901494 H 8.0462396 V 11.47499 Z m 11.6059792,0 a 4.6423249,4.6423249 0 0 0 -4.642392,4.64239 4.6423249,4.6423249 0 0 0 4.642392,4.642392 4.6423249,4.6423249 0 0 0 4.64239,-4.642392 4.6423249,4.6423249 0 0 0 -4.64239,-4.64239 z m 5.802988,0 v 9.284782 h 2.321195 v -4.98581 l 1.160599,2.010646 v 5.296359 h 2.321195 V 11.47499 h -2.321195 v 1.960776 L 25.455207,11.47499 Z m -5.802988,2.321195 a 2.3211625,2.3211625 0 0 1 2.321195,2.321195 2.3211625,2.3211625 0 0 1 -2.321195,2.321198 2.3211625,2.3211625 0 0 1 -2.321197,-2.321198 2.3211625,2.3211625 0 0 1 2.321197,-2.321195 z m -4.642392,8.124186 v 2.321195 h 9.284782 v -2.321195 z"
         id="path3320" />
      <path
         style="fill:#03002e;fill-opacity:0.0213213;stroke-width:0.580298"
         d="m 5.8210543,11.787526 v 2.901494 2.321197 6.383286 h 2.3211948 v -6.383286 h 1.1605991 v 4.062091 H 11.624042 V 11.787526 H 9.3028482 V 14.68902 H 8.1422491 v -2.901494 z m 11.6059787,0 a 4.6423249,4.6423249 0 0 0 -4.642392,4.64239 4.6423249,4.6423249 0 0 0 4.642392,4.642392 4.6423249,4.6423249 0 0 0 4.64239,-4.642392 4.6423249,4.6423249 0 0 0 -4.64239,-4.64239 z m 5.802988,0 v 9.284782 h 2.321195 v -4.98581 l 1.160599,2.010646 v 5.296359 H 29.03301 V 11.787526 h -2.321195 v 1.960776 l -1.160599,-1.960776 z m -5.802988,2.321195 a 2.3211625,2.3211625 0 0 1 2.321195,2.321195 2.3211625,2.3211625 0 0 1 -2.321195,2.321198 2.3211625,2.3211625 0 0 1 -2.321197,-2.321198 2.3211625,2.3211625 0 0 1 2.321197,-2.321195 z m -4.642392,8.124186 v 2.321195 h 9.284782 v -2.321195 z"
         id="path3322" />
      <path
         style="fill:#03002e;fill-opacity:0.0213213;stroke-width:0.580298"
         d="m 5.9396555,12.137668 v 2.901494 2.321197 6.383286 H 8.2608503 V 17.360359 H 9.4214494 V 21.42245 H 11.742643 V 12.137668 H 9.4214494 v 2.901494 H 8.2608503 v -2.901494 z m 11.6059785,0 a 4.6423249,4.6423249 0 0 0 -4.642392,4.64239 4.6423249,4.6423249 0 0 0 4.642392,4.642392 4.6423249,4.6423249 0 0 0 4.64239,-4.642392 4.6423249,4.6423249 0 0 0 -4.64239,-4.64239 z m 5.802988,0 v 9.284782 h 2.321195 v -4.98581 l 1.160599,2.010646 v 5.296359 h 2.321195 V 12.137668 h -2.321195 v 1.960776 l -1.160599,-1.960776 z m -5.802988,2.321195 a 2.3211625,2.3211625 0 0 1 2.321195,2.321195 2.3211625,2.3211625 0 0 1 -2.321195,2.321198 2.3211625,2.3211625 0 0 1 -2.321197,-2.321198 2.3211625,2.3211625 0 0 1 2.321197,-2.321195 z m -4.642392,8.124186 v 2.321195 h 9.284782 v -2.321195 z"
         id="path3324" />
      <path
         style="fill:#03002e;fill-opacity:0.0213213;stroke-width:0.580298"
         d="m 6.1489934,12.540419 v 2.901494 2.321197 6.383286 H 8.4701882 V 17.76311 h 1.1605991 v 4.062091 H 11.951981 V 12.540419 H 9.6307873 v 2.901494 H 8.4701882 v -2.901494 z m 11.6059786,0 a 4.6423249,4.6423249 0 0 0 -4.642392,4.64239 4.6423249,4.6423249 0 0 0 4.642392,4.642392 4.6423249,4.6423249 0 0 0 4.64239,-4.642392 4.6423249,4.6423249 0 0 0 -4.64239,-4.64239 z m 5.802988,0 v 9.284782 h 2.321195 v -4.98581 l 1.160599,2.010646 v 5.296359 h 2.321195 V 12.540419 h -2.321195 v 1.960776 l -1.160599,-1.960776 z m -5.802988,2.321195 a 2.3211625,2.3211625 0 0 1 2.321195,2.321195 2.3211625,2.3211625 0 0 1 -2.321195,2.321198 2.3211625,2.3211625 0 0 1 -2.321197,-2.321198 2.3211625,2.3211625 0 0 1 2.321197,-2.321195 z M 13.11258,22.9858 v 2.321195 h 9.284782 V 22.9858 Z"
         id="path3326" />
      <path
         style="fill:#03002e;fill-opacity:0.0213213;stroke-width:0.580298"
         d="m 5.3705445,10.821722 v 2.901494 2.321197 6.383286 h 2.3211948 v -6.383286 h 1.1605991 v 4.062091 H 11.173532 V 10.821722 H 8.8523384 v 2.901494 H 7.6917393 v -2.901494 z m 11.6059785,0 a 4.6423249,4.6423249 0 0 0 -4.642392,4.64239 4.6423249,4.6423249 0 0 0 4.642392,4.642392 4.6423249,4.6423249 0 0 0 4.64239,-4.642392 4.6423249,4.6423249 0 0 0 -4.64239,-4.64239 z m 5.802988,0 v 9.284782 h 2.321195 v -4.98581 l 1.160599,2.010646 v 5.296359 H 28.5825 V 10.821722 h -2.321195 v 1.960776 l -1.160599,-1.960776 z m -5.802988,2.321195 a 2.3211625,2.3211625 0 0 1 2.321195,2.321195 2.3211625,2.3211625 0 0 1 -2.321195,2.321198 2.3211625,2.3211625 0 0 1 -2.321197,-2.321198 2.3211625,2.3211625 0 0 1 2.321197,-2.321195 z m -4.642392,8.124186 v 2.321195 h 9.284782 v -2.321195 z"
         id="path3328" />
      <path
         style="fill:#03002e;fill-opacity:0.0213213;stroke-width:0.580298"
         d="m 6.1593186,13.278508 v 2.901494 2.321197 6.383286 H 8.4805134 V 18.501199 H 9.6411125 V 22.56329 H 11.962306 V 13.278508 H 9.6411125 v 2.901494 H 8.4805134 v -2.901494 z m 11.6059784,0 a 4.6423249,4.6423249 0 0 0 -4.642392,4.64239 4.6423249,4.6423249 0 0 0 4.642392,4.642392 4.6423249,4.6423249 0 0 0 4.64239,-4.642392 4.6423249,4.6423249 0 0 0 -4.64239,-4.64239 z m 5.802988,0 v 9.284782 h 2.321195 v -4.98581 l 1.160599,2.010646 v 5.296359 h 2.321195 V 13.278508 h -2.321195 v 1.960776 L 25.88948,13.278508 Z m -5.802988,2.321195 a 2.3211625,2.3211625 0 0 1 2.321195,2.321195 2.3211625,2.3211625 0 0 1 -2.321195,2.321198 2.3211625,2.3211625 0 0 1 -2.321197,-2.321198 2.3211625,2.3211625 0 0 1 2.321197,-2.321195 z m -4.642392,8.124186 v 2.321195 h 9.284782 v -2.321195 z"
         id="path3330" />
    </g>
    <path
       style="fill:url(#linearGradient1206);fill-opacity:1;stroke-width:0.470512"
       d="m 7.788906,11.608532 v 2.352565 1.882054 5.175643 h 1.8820519 v -5.175643 h 0.9410271 v 3.293591 h 1.882052 v -7.52821 h -1.882052 v 2.352565 H 9.6709579 v -2.352565 z m 9.410264,0 a 3.7640515,3.7640515 0 0 0 -3.764106,3.764104 3.7640515,3.7640515 0 0 0 3.764106,3.764106 3.7640515,3.7640515 0 0 0 3.764105,-3.764106 3.7640515,3.7640515 0 0 0 -3.764105,-3.764104 z m 4.705131,0 v 7.52821 h 1.882052 v -4.042554 l 0.941027,1.630256 v 4.29435 h 1.882053 V 11.608532 H 24.72738 v 1.58982 l -0.941027,-1.58982 z m -4.705131,1.882052 a 1.8820258,1.8820258 0 0 1 1.882052,1.882052 1.8820258,1.8820258 0 0 1 -1.882052,1.882054 1.8820258,1.8820258 0 0 1 -1.882053,-1.882054 1.8820258,1.8820258 0 0 1 1.882053,-1.882052 z m -3.764106,6.587185 v 1.882052 h 7.528211 v -1.882052 z"
       id="path10" />
  </g>
</svg>
