<?xml version="1.0" encoding="UTF-8" standalone="no"?>
<svg
   width="128"
   height="128"
   viewBox="0 0 33.866666 33.866668"
   version="1.1"
   id="svg1015"
   inkscape:version="1.1.2 (0a00cf5339, 2022-02-04)"
   sodipodi:docname="higan.svg"
   xmlns:inkscape="http://www.inkscape.org/namespaces/inkscape"
   xmlns:sodipodi="http://sodipodi.sourceforge.net/DTD/sodipodi-0.dtd"
   xmlns:xlink="http://www.w3.org/1999/xlink"
   xmlns="http://www.w3.org/2000/svg"
   xmlns:svg="http://www.w3.org/2000/svg"
   xmlns:rdf="http://www.w3.org/1999/02/22-rdf-syntax-ns#"
   xmlns:cc="http://creativecommons.org/ns#"
   xmlns:dc="http://purl.org/dc/elements/1.1/">
  <defs
     id="defs1009">
    <linearGradient
       inkscape:collect="always"
       id="linearGradient873">
      <stop
         style="stop-color:#0b0b0b;stop-opacity:1;"
         offset="0"
         id="stop869" />
      <stop
         style="stop-color:#0b0b0b;stop-opacity:0.85882353;"
         offset="0.68076366"
         id="stop878" />
      <stop
         style="stop-color:#0b0b0b;stop-opacity:0.83137255;"
         offset="0.69925421"
         id="stop888" />
      <stop
         style="stop-color:#0b0b0b;stop-opacity:0.80392157;"
         offset="0.71879315"
         id="stop890" />
      <stop
         style="stop-color:#0b0b0b;stop-opacity:0.78039216;"
         offset="0.73593426"
         id="stop892" />
      <stop
         style="stop-color:#0b0b0b;stop-opacity:0.75686275;"
         offset="0.75022364"
         id="stop894" />
      <stop
         style="stop-color:#0b0b0b;stop-opacity:0.73333333;"
         offset="0.76798755"
         id="stop896" />
      <stop
         style="stop-color:#0b0b0b;stop-opacity:0.08235294;"
         offset="0.9150058"
         id="stop919" />
      <stop
         style="stop-color:#0b0b0b;stop-opacity:0.07058824;"
         offset="0.92246956"
         id="stop917" />
      <stop
         style="stop-color:#0b0b0b;stop-opacity:0.05882353;"
         offset="0.92918676"
         id="stop915" />
      <stop
         style="stop-color:#0b0b0b;stop-opacity:0.04705882;"
         offset="0.93840873"
         id="stop912" />
      <stop
         style="stop-color:#0b0b0b;stop-opacity:0.03137255;"
         offset="0.94760686"
         id="stop910" />
      <stop
         style="stop-color:#0b0b0b;stop-opacity:0.02352941;"
         offset="0.95380515"
         id="stop908" />
      <stop
         style="stop-color:#0b0b0b;stop-opacity:0.01568627;"
         offset="0.95886087"
         id="stop906" />
      <stop
         style="stop-color:#0b0b0b;stop-opacity:0.01176471;"
         offset="0.96356124"
         id="stop904" />
      <stop
         style="stop-color:#0b0b0b;stop-opacity:0.00784314;"
         offset="0.96845078"
         id="stop902" />
      <stop
         style="stop-color:#0b0b0b;stop-opacity:0.00392157;"
         offset="0.97347641"
         id="stop900" />
      <stop
         style="stop-color:#0b0b0b;stop-opacity:0;"
         offset="0.97812337"
         id="stop886" />
      <stop
         style="stop-color:#0b0b0b;stop-opacity:0;"
         offset="0.98456311"
         id="stop884" />
      <stop
         style="stop-color:#0b0b0b;stop-opacity:0;"
         offset="0.98700982"
         id="stop882" />
      <stop
         style="stop-color:#0b0b0b;stop-opacity:0;"
         offset="0.98924524"
         id="stop880" />
      <stop
         style="stop-color:#0b0b0b;stop-opacity:0;"
         offset="1"
         id="stop871" />
    </linearGradient>
    <linearGradient
       inkscape:collect="always"
       xlink:href="#linearGradient895"
       id="linearGradient897"
       x1="2685.9844"
       y1="1088.7905"
       x2="2685.9844"
       y2="1770.3615"
       gradientUnits="userSpaceOnUse"
       gradientTransform="matrix(0.04277854,0,0,0.04277854,-95.919086,-44.867312)" />
    <linearGradient
       inkscape:collect="always"
       id="linearGradient895">
      <stop
         style="stop-color:#ffcc60;stop-opacity:1"
         offset="0"
         id="stop891" />
      <stop
         style="stop-color:#ff0202;stop-opacity:1"
         offset="1"
         id="stop893" />
    </linearGradient>
    <linearGradient
       inkscape:collect="always"
       id="linearGradient879">
      <stop
         style="stop-color:#ffb648;stop-opacity:1"
         offset="0"
         id="stop875" />
      <stop
         style="stop-color:#ff332b;stop-opacity:1"
         offset="1"
         id="stop877" />
    </linearGradient>
    <radialGradient
       inkscape:collect="always"
       xlink:href="#linearGradient873"
       id="radialGradient898"
       gradientUnits="userSpaceOnUse"
       cx="60.636452"
       cy="20.456388"
       fx="60.636452"
       fy="20.456388"
       r="17.303919"
       gradientTransform="translate(-43.433354,-3.9448764)" />
    <radialGradient
       inkscape:collect="always"
       xlink:href="#linearGradient879"
       id="radialGradient993"
       cx="16.968126"
       cy="3.7658708"
       fx="16.968126"
       fy="3.7658708"
       r="13.695572"
       gradientUnits="userSpaceOnUse"
       gradientTransform="matrix(4.8885673,0,0,1.8641486,-65.723642,-2.4382716)" />
    <linearGradient
       id="b"
       x2="1"
       gradientTransform="matrix(0.10138208,-17.338417,17.338417,0.10138208,16.113103,25.29877)"
       gradientUnits="userSpaceOnUse"
       x1="-1.2255912"
       y1="0.013013591"
       y2="1.110223e-16">
      <stop
         stop-color="#c9cfe5"
         offset="0"
         id="stop7"
         style="stop-color:#c22aff;stop-opacity:1" />
      <stop
         stop-color="#fff"
         offset="1"
         id="stop9" />
    </linearGradient>
  </defs>
  <sodipodi:namedview
     id="base"
     pagecolor="#ffffff"
     bordercolor="#666666"
     borderopacity="1.0"
     inkscape:pageopacity="0.0"
     inkscape:pageshadow="2"
     inkscape:zoom="2.8"
     inkscape:cx="49.285714"
     inkscape:cy="61.25"
     inkscape:document-units="mm"
     inkscape:current-layer="layer1"
     inkscape:document-rotation="0"
     showgrid="false"
     units="px"
     inkscape:window-width="1920"
     inkscape:window-height="1032"
     inkscape:window-x="0"
     inkscape:window-y="24"
     inkscape:window-maximized="1"
     inkscape:pagecheckerboard="0" />
  <metadata
     id="metadata1012">
    <rdf:RDF>
      <cc:Work
         rdf:about="">
        <dc:format>image/svg+xml</dc:format>
        <dc:type
           rdf:resource="http://purl.org/dc/dcmitype/StillImage" />
      </cc:Work>
    </rdf:RDF>
  </metadata>
  <g
     inkscape:label="Capa 1"
     inkscape:groupmode="layer"
     id="layer1">
    <circle
       style="opacity:0.309726;fill:url(#radialGradient898);fill-opacity:1;stroke-width:3;stroke-linecap:square;stroke-linejoin:round"
       id="path867"
       cx="17.203098"
       cy="16.511513"
       r="17.303919" />
    <circle
       style="fill:url(#linearGradient897);fill-opacity:1;stroke:#b1aaaa;stroke-width:0.0575565;stroke-linecap:square;stroke-opacity:0.992157"
       id="circle839"
       cx="17.203098"
       cy="16.511513"
       r="15.118138" />
    <circle
       style="fill:url(#radialGradient993);fill-opacity:1;stroke:none;stroke-width:0.0498826;stroke-linecap:square;stroke-opacity:1"
       id="circle839-3"
       cx="17.203098"
       cy="16.511513"
       r="13.102469" />
    <g
       id="g1078"
       style="fill:#2b0000;fill-opacity:0.0472354"
       transform="matrix(0.92258369,0,0,0.92258369,1.7823128,-0.06743558)">
      <path
         style="fill:#2b0000;fill-opacity:0.0472354;stroke-width:0.363827"
         d="m 7.5261503,25.946651 c -0.1322297,-0.201805 -0.1332465,-0.236752 -0.012376,-0.421299 1.3098562,-0.90989 3.0872287,-1.741343 4.1403527,-2.765374 2.650489,-3.528044 2.528327,-6.485128 2.446595,-10.401854 -0.03846,-1.681877 -0.05244,-1.798377 -0.49194,-2.8620551 -0.09762,-0.2362588 -0.09578,-0.3065697 0.01307,-0.5014003 0.167836,-0.3003638 0.450218,-0.3243831 1.186033,-0.1008887 0.962101,0.2922292 1.766571,0.6456529 1.917667,0.9378417 0.123166,0.2381834 0.120499,0.2984374 -0.03764,0.8498964 -0.509154,2.571767 -0.252825,3.966541 -0.351224,6.395927 l 0.913543,1.172249 c 2.18074,2.898846 4.560424,5.182138 7.849331,6.304591 0.760954,0.277976 1.526093,0.410544 1.358298,1.100223 -0.213185,0.286997 -0.759621,0.396255 -2.351256,0.470116 -1.411696,0.06552 -2.538603,0.05996 -2.964329,-0.298207 -2.779731,-2.338698 -2.934326,-3.628045 -5.146629,-6.788089 l -0.456151,0.941591 c -1.28805,3.326125 -3.912369,5.782895 -7.3108707,6.134897 -0.5366595,0.04988 -0.5639198,0.04336 -0.7025129,-0.168167 z M 17.946323,16.367854 c -0.375244,-0.262832 -0.258461,-0.452112 1.145826,-1.857138 1.433148,-1.4339 1.916918,-2.074839 1.916918,-2.521914 0,-0.189292 0.06588,-0.600935 0.266172,-0.647626 1.158389,-0.270032 2.029495,0.968682 2.650879,1.891876 0.08918,0.349361 -0.137015,0.614656 -0.687017,0.805785 -0.594925,0.206739 -0.95693,0.301982 -2.26119,1.061893 -0.966327,0.372322 -2.034922,1.510015 -3.031588,1.267124 z m -8.8139595,-2.73378 c -0.109634,-0.330081 -0.116168,-0.444762 -0.03417,-0.600394 0.227818,-0.432448 0.4781038,-0.42021 1.4268095,0.06978 0.830241,0.428803 1.913717,1.203947 2.08715,1.61903 0.193671,0.875554 -0.06671,1.734542 -0.813867,1.692002 -1.00358,-0.05714 -2.2685167,-1.702594 -2.6659205,-2.780419 z"
         id="path1009" />
      <path
         style="fill:#2b0000;fill-opacity:0.0472354;stroke-width:0.363827"
         d="M 7.6984575,26.211345 C 7.5662278,26.00954 7.565211,25.974593 7.6860815,25.790046 c 1.3098562,-0.90989 3.0872285,-1.741343 4.1403525,-2.765374 2.650489,-3.528044 2.528327,-6.485128 2.446595,-10.401854 -0.03846,-1.681877 -0.05244,-1.798377 -0.49194,-2.8620555 -0.09762,-0.2362588 -0.09578,-0.3065697 0.01307,-0.5014003 0.167836,-0.3003638 0.450218,-0.3243831 1.186033,-0.1008887 0.962101,0.2922292 1.766571,0.6456529 1.917667,0.9378415 0.123166,0.238184 0.120499,0.298438 -0.03764,0.849897 -0.509154,2.571767 -0.252825,3.966541 -0.351224,6.395927 l 0.913543,1.172249 c 2.18074,2.898846 4.560424,5.182138 7.849331,6.304591 0.760954,0.277976 1.526093,0.410544 1.358298,1.100223 -0.213185,0.286997 -0.759621,0.396255 -2.351256,0.470116 -1.411696,0.06552 -2.538603,0.05996 -2.964329,-0.298207 -2.779731,-2.338698 -2.934326,-3.628045 -5.146629,-6.788089 l -0.456151,0.941591 C 14.423752,23.570738 11.799433,26.027508 8.4009315,26.37951 7.864272,26.42939 7.8370117,26.42287 7.6984186,26.211343 Z M 18.11863,16.632548 c -0.375244,-0.262832 -0.258461,-0.452112 1.145826,-1.857138 1.433148,-1.4339 1.916918,-2.074839 1.916918,-2.521914 0,-0.189292 0.06588,-0.600935 0.266172,-0.647626 1.158389,-0.270032 2.029495,0.968682 2.650879,1.891876 0.08918,0.349361 -0.137015,0.614656 -0.687017,0.805785 -0.594925,0.206739 -0.95693,0.301982 -2.26119,1.061893 -0.966327,0.372322 -2.034922,1.510015 -3.031588,1.267124 z m -8.8139593,-2.73378 c -0.109634,-0.330081 -0.116168,-0.444762 -0.03417,-0.600394 0.227818,-0.432448 0.4781038,-0.42021 1.4268093,0.06978 0.830241,0.428803 1.913717,1.203947 2.08715,1.61903 0.193671,0.875554 -0.06671,1.734542 -0.813867,1.692002 -1.00358,-0.05714 -2.2685165,-1.702594 -2.6659203,-2.780419 z"
         id="path1065" />
      <path
         style="fill:#2b0000;fill-opacity:0.0472354;stroke-width:0.363827"
         d="M 7.8950608,26.714503 C 7.7628311,26.512698 7.7618143,26.477751 7.8826848,26.293204 9.192541,25.383314 10.969913,24.551861 12.023037,23.52783 c 2.650489,-3.528044 2.528327,-6.485128 2.446595,-10.401854 -0.03846,-1.681877 -0.05244,-1.798377 -0.49194,-2.862056 -0.09762,-0.236258 -0.09578,-0.3065694 0.01307,-0.5014 0.167836,-0.3003638 0.450218,-0.3243831 1.186033,-0.1008887 0.962101,0.2922292 1.766571,0.6456527 1.917667,0.9378417 0.123166,0.238184 0.120499,0.298438 -0.03764,0.849897 -0.509154,2.571767 -0.252825,3.966541 -0.351224,6.395927 l 0.913543,1.172249 c 2.18074,2.898846 4.560424,5.182138 7.849331,6.304591 0.760954,0.277976 1.526093,0.410544 1.358298,1.100223 -0.213185,0.286997 -0.759621,0.396255 -2.351256,0.470116 -1.411696,0.06552 -2.538603,0.05996 -2.964329,-0.298207 -2.779731,-2.338698 -2.934326,-3.628045 -5.146629,-6.788089 l -0.456151,0.941591 c -1.28805,3.326125 -3.912369,5.782895 -7.3108702,6.134897 -0.5366595,0.04988 -0.5639198,0.04336 -0.7025129,-0.168167 z M 18.315233,17.135706 c -0.375244,-0.262832 -0.258461,-0.452112 1.145826,-1.857138 1.433148,-1.4339 1.916918,-2.074839 1.916918,-2.521914 0,-0.189292 0.06588,-0.600935 0.266172,-0.647626 1.158389,-0.270032 2.029495,0.968682 2.650879,1.891876 0.08918,0.349361 -0.137015,0.614656 -0.687017,0.805785 -0.594925,0.206739 -0.95693,0.301982 -2.26119,1.061893 -0.966327,0.372322 -2.034922,1.510015 -3.031588,1.267124 z M 9.501274,14.401926 C 9.39164,14.071845 9.385106,13.957164 9.467104,13.801532 c 0.227818,-0.432448 0.4781038,-0.42021 1.426809,0.06978 0.830241,0.428803 1.913717,1.203947 2.08715,1.61903 0.193671,0.875554 -0.06671,1.734542 -0.813867,1.692002 -1.00358,-0.05714 -2.2685162,-1.702594 -2.66592,-2.780419 z"
         id="path1067" />
      <path
         style="fill:#2b0000;fill-opacity:0.0472354;stroke-width:0.363827"
         d="M 8.1245437,27.172238 C 7.992314,26.970433 7.9912972,26.935486 8.1121677,26.750939 c 1.3098562,-0.90989 3.0872283,-1.741343 4.1403523,-2.765374 2.650489,-3.528044 2.528327,-6.485128 2.446595,-10.401854 -0.03846,-1.681877 -0.05244,-1.798377 -0.49194,-2.862056 -0.09762,-0.236258 -0.09578,-0.30657 0.01307,-0.5014 0.167836,-0.3003641 0.450218,-0.3243834 1.186033,-0.100889 0.962101,0.292229 1.766571,0.645653 1.917667,0.937842 0.123166,0.238184 0.120499,0.298438 -0.03764,0.849897 -0.509154,2.571767 -0.252825,3.966541 -0.351224,6.395927 l 0.913543,1.172249 c 2.18074,2.898846 4.560424,5.182138 7.849331,6.304591 0.760954,0.277976 1.526093,0.410544 1.358298,1.100223 -0.213185,0.286997 -0.759621,0.396255 -2.351256,0.470116 -1.411696,0.06552 -2.538603,0.05996 -2.964329,-0.298207 -2.779731,-2.338698 -2.934326,-3.628045 -5.146629,-6.788089 l -0.456151,0.941591 c -1.28805,3.326125 -3.912369,5.782895 -7.3108703,6.134897 -0.5366595,0.04988 -0.5639198,0.04336 -0.7025129,-0.168167 z M 18.544716,17.593441 c -0.375244,-0.262832 -0.258461,-0.452112 1.145826,-1.857138 1.433148,-1.4339 1.916918,-2.074839 1.916918,-2.521914 0,-0.189292 0.06588,-0.600935 0.266172,-0.647626 1.158389,-0.270032 2.029495,0.968682 2.650879,1.891876 0.08918,0.349361 -0.137015,0.614656 -0.687017,0.805785 -0.594925,0.206739 -0.95693,0.301982 -2.26119,1.061893 -0.966327,0.372322 -2.034922,1.510015 -3.031588,1.267124 z m -8.8139591,-2.73378 c -0.109634,-0.330081 -0.116168,-0.444762 -0.03417,-0.600394 0.227818,-0.432448 0.4781041,-0.42021 1.4268091,0.06978 0.830241,0.428803 1.913717,1.203947 2.08715,1.61903 0.193671,0.875554 -0.06671,1.734542 -0.813867,1.692002 -1.00358,-0.05714 -2.268516,-1.702594 -2.6659201,-2.780419 z"
         id="path1069" />
      <path
         style="fill:#2b0000;fill-opacity:0.0472354;stroke-width:0.363827"
         d="M 8.3467365,27.782415 C 8.2145068,27.58061 8.21349,27.545663 8.3343605,27.361116 c 1.3098562,-0.90989 3.0872285,-1.741343 4.1403525,-2.765374 2.650489,-3.528044 2.528327,-6.485128 2.446595,-10.401854 -0.03846,-1.681877 -0.05244,-1.798377 -0.49194,-2.862056 -0.09762,-0.236258 -0.09578,-0.30657 0.01307,-0.5014 0.167836,-0.300364 0.450218,-0.324384 1.186033,-0.100889 0.962101,0.292229 1.766571,0.645653 1.917667,0.937842 0.123166,0.238184 0.120499,0.298438 -0.03764,0.849897 -0.509154,2.571767 -0.252825,3.966541 -0.351224,6.395927 l 0.913543,1.172249 c 2.18074,2.898846 4.560424,5.182138 7.849331,6.304591 0.760954,0.277976 1.526093,0.410544 1.358298,1.100223 -0.213185,0.286997 -0.759621,0.396255 -2.351256,0.470116 -1.411696,0.06552 -2.538603,0.05996 -2.964329,-0.298207 -2.779731,-2.338698 -2.934326,-3.628045 -5.146629,-6.788089 l -0.456151,0.941591 C 15.072031,25.141808 12.447712,27.598578 9.0492105,27.95058 8.512551,28.00046 8.4852907,27.99394 8.3466976,27.782413 Z M 18.766909,18.203618 c -0.375244,-0.262832 -0.258461,-0.452112 1.145826,-1.857138 1.433148,-1.4339 1.916918,-2.074839 1.916918,-2.521914 0,-0.189292 0.06588,-0.600935 0.266172,-0.647626 1.158389,-0.270032 2.029495,0.968682 2.650879,1.891876 0.08918,0.349361 -0.137015,0.614656 -0.687017,0.805785 -0.594925,0.206739 -0.95693,0.301982 -2.26119,1.061893 -0.966327,0.372322 -2.034922,1.510015 -3.031588,1.267124 z m -8.8139593,-2.73378 c -0.109634,-0.330081 -0.116168,-0.444762 -0.03417,-0.600394 0.2278183,-0.432448 0.4781043,-0.42021 1.4268093,0.06978 0.830241,0.428803 1.913717,1.203947 2.08715,1.61903 0.193671,0.875554 -0.06671,1.734542 -0.813867,1.692002 -1.00358,-0.05714 -2.268516,-1.702594 -2.6659203,-2.780419 z"
         id="path1071" />
    </g>
    <path
       style="fill:#ffffff;fill-opacity:1;stroke-width:0.335661"
       d="m 8.6196045,23.480991 c -0.1219929,-0.186182 -0.122931,-0.218424 -0.011418,-0.388684 1.2084522,-0.839449 2.8482275,-1.606534 3.8198225,-2.551289 2.445298,-3.254916 2.332593,-5.983073 2.257189,-9.596581 -0.03548,-1.551672 -0.04838,-1.659153 -0.453856,-2.6404852 -0.09006,-0.2179685 -0.08836,-0.2828362 0.01206,-0.4625837 0.154843,-0.2771108 0.415364,-0.2992706 1.094215,-0.093078 0.887619,0.2696059 1.62981,0.5956688 1.769208,0.8652379 0.113631,0.2197438 0.111171,0.2753331 -0.03473,0.7841002 -0.469737,2.3726698 -0.233252,3.6594658 -0.324033,5.9007778 l 0.842819,1.081498 c 2.011916,2.674428 4.207373,4.780956 7.241665,5.816513 0.702044,0.256456 1.407949,0.378761 1.253144,1.015047 -0.196681,0.264779 -0.700814,0.365579 -2.169231,0.433722 -1.302407,0.06045 -2.342073,0.05532 -2.734841,-0.275121 -2.564535,-2.157645 -2.707162,-3.347175 -4.748196,-6.26258 l -0.420838,0.868696 c -1.188334,3.068629 -3.609487,5.335205 -6.7448905,5.659956 -0.4951133,0.04602 -0.5202632,0.04 -0.648127,-0.155148 z m 9.6134825,-8.837242 c -0.346194,-0.242485 -0.238452,-0.417111 1.05712,-1.713365 1.322199,-1.322893 1.768517,-1.914213 1.768517,-2.326677 0,-0.174638 0.06078,-0.554413 0.245566,-0.597489 1.068711,-0.2491271 1.872379,0.89369 2.445658,1.745414 0.08228,0.322314 -0.126408,0.567071 -0.633831,0.743404 -0.548868,0.190734 -0.882848,0.278603 -2.086137,0.979685 -0.891517,0.343498 -1.877386,1.393115 -2.796893,1.169028 z m -8.131616,-2.522141 c -0.101147,-0.304527 -0.1071749,-0.41033 -0.03153,-0.553914 0.210181,-0.398969 0.441091,-0.387679 1.316352,0.06438 0.765967,0.395607 1.765564,1.110742 1.92557,1.493691 0.178678,0.807772 -0.06155,1.60026 -0.75086,1.561013 -0.925887,-0.05272 -2.092897,-1.570785 -2.459536,-2.565169 z"
       id="path8" />
  </g>
</svg>
