<?xml version="1.0" encoding="UTF-8" standalone="no"?>
<svg
   width="128"
   height="128"
   viewBox="0 0 33.866666 33.866668"
   version="1.1"
   id="svg1015"
   inkscape:version="1.1.2 (0a00cf5339, 2022-02-04)"
   sodipodi:docname="hollow-knight.svg"
   xmlns:inkscape="http://www.inkscape.org/namespaces/inkscape"
   xmlns:sodipodi="http://sodipodi.sourceforge.net/DTD/sodipodi-0.dtd"
   xmlns:xlink="http://www.w3.org/1999/xlink"
   xmlns="http://www.w3.org/2000/svg"
   xmlns:svg="http://www.w3.org/2000/svg"
   xmlns:rdf="http://www.w3.org/1999/02/22-rdf-syntax-ns#"
   xmlns:cc="http://creativecommons.org/ns#"
   xmlns:dc="http://purl.org/dc/elements/1.1/">
  <defs
     id="defs1009">
    <linearGradient
       inkscape:collect="always"
       id="linearGradient873">
      <stop
         style="stop-color:#0b0b0b;stop-opacity:1;"
         offset="0"
         id="stop869" />
      <stop
         style="stop-color:#0b0b0b;stop-opacity:0.85882353;"
         offset="0.68076366"
         id="stop878" />
      <stop
         style="stop-color:#0b0b0b;stop-opacity:0.83137255;"
         offset="0.69925421"
         id="stop888" />
      <stop
         style="stop-color:#0b0b0b;stop-opacity:0.80392157;"
         offset="0.71879315"
         id="stop890" />
      <stop
         style="stop-color:#0b0b0b;stop-opacity:0.78039216;"
         offset="0.73593426"
         id="stop892" />
      <stop
         style="stop-color:#0b0b0b;stop-opacity:0.75686275;"
         offset="0.75022364"
         id="stop894" />
      <stop
         style="stop-color:#0b0b0b;stop-opacity:0.73333333;"
         offset="0.76798755"
         id="stop896" />
      <stop
         style="stop-color:#0b0b0b;stop-opacity:0.08235294;"
         offset="0.9150058"
         id="stop919" />
      <stop
         style="stop-color:#0b0b0b;stop-opacity:0.07058824;"
         offset="0.92246956"
         id="stop917" />
      <stop
         style="stop-color:#0b0b0b;stop-opacity:0.05882353;"
         offset="0.92918676"
         id="stop915" />
      <stop
         style="stop-color:#0b0b0b;stop-opacity:0.04705882;"
         offset="0.93840873"
         id="stop912" />
      <stop
         style="stop-color:#0b0b0b;stop-opacity:0.03137255;"
         offset="0.94760686"
         id="stop910" />
      <stop
         style="stop-color:#0b0b0b;stop-opacity:0.02352941;"
         offset="0.95380515"
         id="stop908" />
      <stop
         style="stop-color:#0b0b0b;stop-opacity:0.01568627;"
         offset="0.95886087"
         id="stop906" />
      <stop
         style="stop-color:#0b0b0b;stop-opacity:0.01176471;"
         offset="0.96356124"
         id="stop904" />
      <stop
         style="stop-color:#0b0b0b;stop-opacity:0.00784314;"
         offset="0.96845078"
         id="stop902" />
      <stop
         style="stop-color:#0b0b0b;stop-opacity:0.00392157;"
         offset="0.97347641"
         id="stop900" />
      <stop
         style="stop-color:#0b0b0b;stop-opacity:0;"
         offset="0.97812337"
         id="stop886" />
      <stop
         style="stop-color:#0b0b0b;stop-opacity:0;"
         offset="0.98456311"
         id="stop884" />
      <stop
         style="stop-color:#0b0b0b;stop-opacity:0;"
         offset="0.98700982"
         id="stop882" />
      <stop
         style="stop-color:#0b0b0b;stop-opacity:0;"
         offset="0.98924524"
         id="stop880" />
      <stop
         style="stop-color:#0b0b0b;stop-opacity:0;"
         offset="1"
         id="stop871" />
    </linearGradient>
    <linearGradient
       inkscape:collect="always"
       xlink:href="#linearGradient895"
       id="linearGradient897"
       x1="2685.9844"
       y1="1088.7905"
       x2="2685.9844"
       y2="1770.3615"
       gradientUnits="userSpaceOnUse"
       gradientTransform="matrix(0.04277854,0,0,0.04277854,-95.919086,-44.867312)" />
    <linearGradient
       inkscape:collect="always"
       id="linearGradient895">
      <stop
         style="stop-color:#f864f7;stop-opacity:1"
         offset="0"
         id="stop891" />
      <stop
         style="stop-color:#8b0bcf;stop-opacity:1"
         offset="1"
         id="stop893" />
    </linearGradient>
    <linearGradient
       inkscape:collect="always"
       id="linearGradient879">
      <stop
         style="stop-color:#e84efc;stop-opacity:1"
         offset="0"
         id="stop875" />
      <stop
         style="stop-color:#b20ce6;stop-opacity:1"
         offset="1"
         id="stop877" />
    </linearGradient>
    <radialGradient
       inkscape:collect="always"
       xlink:href="#linearGradient873"
       id="radialGradient898"
       gradientUnits="userSpaceOnUse"
       cx="60.636452"
       cy="20.456388"
       fx="60.636452"
       fy="20.456388"
       r="17.303919"
       gradientTransform="translate(-43.433354,-3.9448764)" />
    <radialGradient
       inkscape:collect="always"
       xlink:href="#linearGradient879"
       id="radialGradient993"
       cx="16.968126"
       cy="4.670938"
       fx="16.968126"
       fy="4.670938"
       r="13.695572"
       gradientUnits="userSpaceOnUse"
       gradientTransform="matrix(4.8885673,0,0,1.5420669,-65.723642,-0.93384819)" />
    <linearGradient
       inkscape:collect="always"
       xlink:href="#linearGradient1506"
       id="linearGradient1508"
       x1="7.6892467"
       y1="10.894557"
       x2="7.6892467"
       y2="62.209305"
       gradientUnits="userSpaceOnUse"
       gradientTransform="translate(0.03698232,0.01804806)" />
    <linearGradient
       inkscape:collect="always"
       id="linearGradient1506">
      <stop
         style="stop-color:#ffffff;stop-opacity:1;"
         offset="0"
         id="stop1502" />
      <stop
         style="stop-color:#8700de;stop-opacity:1"
         offset="1"
         id="stop1504" />
    </linearGradient>
  </defs>
  <sodipodi:namedview
     id="base"
     pagecolor="#ffffff"
     bordercolor="#666666"
     borderopacity="1.0"
     inkscape:pageopacity="0.0"
     inkscape:pageshadow="2"
     inkscape:zoom="2.8"
     inkscape:cx="46.428571"
     inkscape:cy="75.892857"
     inkscape:document-units="mm"
     inkscape:current-layer="layer1"
     inkscape:document-rotation="0"
     showgrid="false"
     units="px"
     inkscape:window-width="1920"
     inkscape:window-height="1032"
     inkscape:window-x="0"
     inkscape:window-y="24"
     inkscape:window-maximized="1"
     inkscape:pagecheckerboard="0" />
  <metadata
     id="metadata1012">
    <rdf:RDF>
      <cc:Work
         rdf:about="">
        <dc:format>image/svg+xml</dc:format>
        <dc:type
           rdf:resource="http://purl.org/dc/dcmitype/StillImage" />
      </cc:Work>
    </rdf:RDF>
  </metadata>
  <g
     inkscape:label="Capa 1"
     inkscape:groupmode="layer"
     id="layer1">
    <circle
       style="opacity:0.309726;fill:url(#radialGradient898);fill-opacity:1;stroke-width:3;stroke-linecap:square;stroke-linejoin:round"
       id="path867"
       cx="17.203098"
       cy="16.511513"
       r="17.303919" />
    <circle
       style="fill:url(#linearGradient897);fill-opacity:1;stroke:#b1aaaa;stroke-width:0.0575565;stroke-linecap:square;stroke-opacity:0.992157"
       id="circle839"
       cx="17.203098"
       cy="16.511513"
       r="15.118138" />
    <circle
       style="fill:url(#radialGradient993);fill-opacity:1;stroke:none;stroke-width:0.0498826;stroke-linecap:square;stroke-opacity:1"
       id="circle839-3"
       cx="17.203098"
       cy="16.511513"
       r="13.102469" />
    <g
       id="g2995"
       style="fill:#0a0010;fill-opacity:0.0217671"
       transform="translate(0.03698232,0.01804806)">
      <path
         id="path2914"
         style="fill:#0a0010;fill-opacity:0.0217671;stroke-width:0.487468"
         d="m 11.190518,7.3211873 c -0.01209,-3.416e-4 -0.02438,1.286e-4 -0.03721,0.00103 -0.10264,0.00719 -0.230144,0.05338 -0.412378,0.1421103 -1.0225109,0.4978133 -2.1599971,1.9423509 -2.654101,3.3698194 -0.440614,1.272938 -0.4830027,2.668509 -0.1173056,3.802868 0.4197601,1.262975 1.1670633,2.332296 2.1704096,3.222542 0.290798,0.634896 -0.11733,1.078271 0.06976,2.771923 0.437783,4.050386 1.412621,6.487976 6.77478,6.487976 5.362156,0 6.337484,-2.437591 6.77478,-6.487976 0.187094,-1.693652 -0.221027,-2.137027 0.06976,-2.771923 1.003347,-0.890246 1.751169,-1.959567 2.170927,-3.222542 0.365693,-1.134359 0.323306,-2.52993 -0.117305,-3.802868 -0.494093,-1.4274645 -1.631583,-2.8720026 -2.654092,-3.3698159 -0.182232,-0.08873 -0.309745,-0.1348697 -0.412378,-0.1421103 -0.10264,-0.00719 -0.179752,0.025571 -0.262516,0.095601 0,0 0.701116,0.7198625 0.77928,1.4267867 -0.146729,0.515856 -1.135847,0.432531 -1.135847,0.432531 0,0 1.524852,1.4045445 1.793689,2.4975225 0.216519,0.918267 0.09916,2.615214 -0.918808,3.04064 0,0 -2.533764,-0.878498 -6.087483,-0.878498 -3.553719,0 -6.086967,0.878498 -6.086967,0.878498 C 9.8795355,14.389876 9.7621891,12.69293 9.9787065,11.774662 10.247544,10.681684 11.772395,9.2771405 11.772395,9.2771405 c 0,0 -0.989121,0.08333 -1.135848,-0.432532 0.07817,-0.7069239 0.778764,-1.4267864 0.778764,-1.4267864 -0.07241,-0.061276 -0.140188,-0.094244 -0.224793,-0.096635 z m 9.451103,13.4622257 a 1.8640084,2.26679 26.323018 0 1 0.781864,0.171049 1.8640084,2.26679 26.323018 0 1 0.630969,2.873726 1.8640084,2.26679 26.323018 0 1 -2.684073,1.168405 1.8640084,2.26679 26.323018 0 1 -0.631486,-2.87321 1.8640084,2.26679 26.323018 0 1 1.902726,-1.33997 z m -7.314282,5.17e-4 a 2.26679,1.8640084 63.676982 0 1 1.902726,1.33997 2.26679,1.8640084 63.676982 0 1 -0.631486,2.873209 2.26679,1.8640084 63.676982 0 1 -2.684074,-1.168404 2.26679,1.8640084 63.676982 0 1 0.631486,-2.873726 2.26679,1.8640084 63.676982 0 1 0.781348,-0.171049 z" />
      <path
         id="path2970"
         style="fill:#0a0010;fill-opacity:0.0217671;stroke-width:0.487468"
         d="m 11.273747,7.3839934 c -0.01209,-3.416e-4 -0.02438,1.286e-4 -0.03721,0.00103 -0.10264,0.00719 -0.230144,0.05338 -0.412378,0.1421103 -1.0225108,0.4978133 -2.159997,1.9423509 -2.6541009,3.3698193 -0.440614,1.272938 -0.4830027,2.668509 -0.1173056,3.802868 0.4197601,1.262975 1.1670633,2.332296 2.1704095,3.222542 0.290798,0.634896 -0.11733,1.078271 0.06976,2.771923 0.437783,4.050386 1.412621,6.487976 6.77478,6.487976 5.362156,0 6.337484,-2.437591 6.77478,-6.487976 0.187094,-1.693652 -0.221027,-2.137027 0.06976,-2.771923 1.003347,-0.890246 1.751169,-1.959567 2.170927,-3.222542 0.365693,-1.134359 0.323306,-2.52993 -0.117305,-3.802868 C 25.471771,9.4694886 24.334281,8.0249505 23.311772,7.5271372 23.12954,7.4384072 23.002027,7.3922675 22.899394,7.3850269 c -0.10264,-0.00719 -0.179752,0.025571 -0.262516,0.095601 0,0 0.701116,0.7198625 0.77928,1.4267867 -0.146729,0.515856 -1.135847,0.432531 -1.135847,0.432531 0,0 1.524852,1.4045444 1.793689,2.4975224 0.216519,0.918267 0.09916,2.615214 -0.918808,3.04064 0,0 -2.533764,-0.878498 -6.087483,-0.878498 -3.553719,0 -6.086967,0.878498 -6.086967,0.878498 -1.0179774,-0.425426 -1.1353238,-2.122372 -0.918807,-3.04064 0.268838,-1.092978 1.793689,-2.4975214 1.793689,-2.4975214 0,0 -0.989121,0.08333 -1.135848,-0.432532 0.07817,-0.7069239 0.778764,-1.4267864 0.778764,-1.4267864 -0.07241,-0.061276 -0.140188,-0.094244 -0.224793,-0.096635 z M 20.72485,20.846219 a 1.8640084,2.26679 26.323018 0 1 0.781864,0.171049 1.8640084,2.26679 26.323018 0 1 0.630969,2.873726 1.8640084,2.26679 26.323018 0 1 -2.684073,1.168405 1.8640084,2.26679 26.323018 0 1 -0.631486,-2.87321 1.8640084,2.26679 26.323018 0 1 1.902726,-1.33997 z m -7.314282,5.17e-4 a 2.26679,1.8640084 63.676982 0 1 1.902726,1.33997 2.26679,1.8640084 63.676982 0 1 -0.631486,2.873209 2.26679,1.8640084 63.676982 0 1 -2.684074,-1.168404 2.26679,1.8640084 63.676982 0 1 0.631486,-2.873726 2.26679,1.8640084 63.676982 0 1 0.781348,-0.171049 z" />
      <path
         id="path2972"
         style="fill:#0a0010;fill-opacity:0.0217671;stroke-width:0.487468"
         d="m 11.367199,7.4576929 c -0.01209,-3.416e-4 -0.02438,1.286e-4 -0.03721,0.00103 -0.10264,0.00719 -0.230144,0.05338 -0.412378,0.1421103 C 9.8951,8.0986465 8.7576138,9.5431841 8.2635099,10.970653 c -0.440614,1.272938 -0.4830027,2.668509 -0.1173056,3.802868 0.4197601,1.262975 1.1670633,2.332296 2.1704097,3.222542 0.290798,0.634896 -0.11733,1.078271 0.06976,2.771923 0.437783,4.050386 1.412621,6.487976 6.77478,6.487976 5.362156,0 6.337484,-2.437591 6.77478,-6.487976 0.187094,-1.693652 -0.221027,-2.137027 0.06976,-2.771923 1.003347,-0.890246 1.751169,-1.959567 2.170927,-3.222542 0.365693,-1.134359 0.323306,-2.52993 -0.117305,-3.802868 C 25.565223,9.5431881 24.427733,8.09865 23.405224,7.6008367 23.222992,7.5121067 23.095479,7.465967 22.992846,7.4587264 c -0.10264,-0.00719 -0.179752,0.025571 -0.262516,0.095601 0,0 0.701116,0.7198625 0.77928,1.4267867 -0.146729,0.515856 -1.135847,0.432531 -1.135847,0.432531 0,0 1.524852,1.4045449 1.793689,2.4975229 0.216519,0.918267 0.09916,2.615214 -0.918808,3.04064 0,0 -2.533764,-0.878498 -6.087483,-0.878498 -3.553719,0 -6.086967,0.878498 -6.086967,0.878498 -1.017978,-0.425426 -1.135324,-2.122372 -0.918807,-3.04064 0.268838,-1.092978 1.793689,-2.4975219 1.793689,-2.4975219 0,0 -0.989121,0.08333 -1.135848,-0.432532 0.07817,-0.7069239 0.778764,-1.4267864 0.778764,-1.4267864 -0.07241,-0.061276 -0.140188,-0.094244 -0.224793,-0.096635 z m 9.451103,13.4622261 a 1.8640084,2.26679 26.323018 0 1 0.781864,0.171049 1.8640084,2.26679 26.323018 0 1 0.630969,2.873726 1.8640084,2.26679 26.323018 0 1 -2.684073,1.168405 1.8640084,2.26679 26.323018 0 1 -0.631486,-2.87321 1.8640084,2.26679 26.323018 0 1 1.902726,-1.33997 z m -7.314282,5.17e-4 a 2.26679,1.8640084 63.676982 0 1 1.902726,1.33997 2.26679,1.8640084 63.676982 0 1 -0.631486,2.873209 2.26679,1.8640084 63.676982 0 1 -2.684074,-1.168404 2.26679,1.8640084 63.676982 0 1 0.631486,-2.873726 2.26679,1.8640084 63.676982 0 1 0.781348,-0.171049 z" />
      <path
         id="path2974"
         style="fill:#0a0010;fill-opacity:0.0217671;stroke-width:0.487468"
         d="m 11.49854,7.4806282 c -0.01209,-3.416e-4 -0.02438,1.286e-4 -0.03721,0.00103 -0.10264,0.00719 -0.230144,0.05338 -0.412378,0.1421103 -1.022511,0.4978133 -2.1599972,1.9423509 -2.6541011,3.3698195 -0.440614,1.272938 -0.4830027,2.668509 -0.1173056,3.802868 0.4197601,1.262975 1.1670633,2.332296 2.1704097,3.222542 0.290798,0.634896 -0.11733,1.078271 0.06976,2.771923 0.437783,4.050386 1.412621,6.487976 6.77478,6.487976 5.362156,0 6.337484,-2.437591 6.77478,-6.487976 0.187094,-1.693652 -0.221027,-2.137027 0.06976,-2.771923 1.003347,-0.890246 1.751169,-1.959567 2.170927,-3.222542 0.365693,-1.134359 0.323306,-2.52993 -0.117305,-3.802868 C 25.696564,9.5661234 24.559074,8.1215853 23.536565,7.623772 23.354333,7.535042 23.22682,7.4889023 23.124187,7.4816617 c -0.10264,-0.00719 -0.179752,0.025571 -0.262516,0.095601 0,0 0.701116,0.7198625 0.77928,1.4267867 -0.146729,0.515856 -1.135847,0.432531 -1.135847,0.432531 0,0 1.524852,1.4045446 1.793689,2.4975226 0.216519,0.918267 0.09916,2.615214 -0.918808,3.04064 0,0 -2.533764,-0.878498 -6.087483,-0.878498 -3.553719,0 -6.086967,0.878498 -6.086967,0.878498 -1.017978,-0.425426 -1.135324,-2.122372 -0.918807,-3.04064 0.268838,-1.092978 1.793689,-2.4975216 1.793689,-2.4975216 0,0 -0.989121,0.08333 -1.135848,-0.432532 C 11.022739,8.2971255 11.723333,7.577263 11.723333,7.577263 11.650923,7.515987 11.583145,7.483019 11.49854,7.4806282 Z m 9.451103,13.4622258 a 1.8640084,2.26679 26.323018 0 1 0.781864,0.171049 1.8640084,2.26679 26.323018 0 1 0.630969,2.873726 1.8640084,2.26679 26.323018 0 1 -2.684073,1.168405 1.8640084,2.26679 26.323018 0 1 -0.631486,-2.87321 1.8640084,2.26679 26.323018 0 1 1.902726,-1.33997 z m -7.314282,5.17e-4 a 2.26679,1.8640084 63.676982 0 1 1.902726,1.33997 2.26679,1.8640084 63.676982 0 1 -0.631486,2.873209 2.26679,1.8640084 63.676982 0 1 -2.684074,-1.168404 2.26679,1.8640084 63.676982 0 1 0.631486,-2.873726 2.26679,1.8640084 63.676982 0 1 0.781348,-0.171049 z" />
      <path
         id="path2976"
         style="fill:#0a0010;fill-opacity:0.0217671;stroke-width:0.487468"
         d="m 11.591992,7.5543277 c -0.01209,-3.416e-4 -0.02438,1.286e-4 -0.03721,0.00103 -0.10264,0.00719 -0.230144,0.05338 -0.412378,0.1421103 -1.022511,0.4978133 -2.1599972,1.9423509 -2.6541011,3.36982 -0.440614,1.272938 -0.4830027,2.668509 -0.1173056,3.802868 0.4197601,1.262975 1.1670633,2.332296 2.1704097,3.222542 0.290798,0.634896 -0.11733,1.078271 0.06976,2.771923 0.437783,4.050386 1.412621,6.487976 6.77478,6.487976 5.362156,0 6.337484,-2.437591 6.77478,-6.487976 0.187094,-1.693652 -0.221027,-2.137027 0.06976,-2.771923 1.003347,-0.890246 1.751169,-1.959567 2.170927,-3.222542 0.365693,-1.134359 0.323306,-2.52993 -0.117305,-3.802868 -0.494093,-1.4274651 -1.631583,-2.8720032 -2.654092,-3.3698165 -0.182232,-0.08873 -0.309745,-0.1348697 -0.412378,-0.1421103 -0.10264,-0.00719 -0.179752,0.025571 -0.262516,0.095601 0,0 0.701116,0.7198625 0.77928,1.4267867 -0.146729,0.515856 -1.135847,0.432531 -1.135847,0.432531 0,0 1.524852,1.4045451 1.793689,2.4975231 0.216519,0.918267 0.09916,2.615214 -0.918808,3.04064 0,0 -2.533764,-0.878498 -6.087483,-0.878498 -3.553719,0 -6.086967,0.878498 -6.086967,0.878498 -1.017978,-0.425426 -1.135324,-2.122372 -0.918807,-3.04064 0.268838,-1.092978 1.793689,-2.4975221 1.793689,-2.4975221 0,0 -0.989121,0.08333 -1.135848,-0.432532 0.07817,-0.7069239 0.778764,-1.4267864 0.778764,-1.4267864 -0.07241,-0.061276 -0.140188,-0.094244 -0.224793,-0.096635 z m 9.451103,13.4622263 a 1.8640084,2.26679 26.323018 0 1 0.781864,0.171049 1.8640084,2.26679 26.323018 0 1 0.630969,2.873726 1.8640084,2.26679 26.323018 0 1 -2.684073,1.168405 1.8640084,2.26679 26.323018 0 1 -0.631486,-2.87321 1.8640084,2.26679 26.323018 0 1 1.902726,-1.33997 z m -7.314282,5.17e-4 a 2.26679,1.8640084 63.676982 0 1 1.902726,1.33997 2.26679,1.8640084 63.676982 0 1 -0.631486,2.873209 2.26679,1.8640084 63.676982 0 1 -2.684074,-1.168404 2.26679,1.8640084 63.676982 0 1 0.631486,-2.873726 2.26679,1.8640084 63.676982 0 1 0.781348,-0.171049 z" />
      <path
         id="path2978"
         style="fill:#0a0010;fill-opacity:0.0217671;stroke-width:0.487468"
         d="m 11.723333,7.577263 c -0.01209,-3.416e-4 -0.02438,1.286e-4 -0.03721,0.00103 -0.10264,0.00719 -0.230144,0.05338 -0.412378,0.1421103 -1.022511,0.4978133 -2.1599972,1.9423509 -2.6541011,3.3698197 -0.440614,1.272938 -0.4830027,2.668509 -0.1173056,3.802868 0.4197601,1.262975 1.1670633,2.332296 2.1704097,3.222542 0.290798,0.634896 -0.11733,1.078271 0.06976,2.771923 0.437783,4.050386 1.412621,6.487976 6.77478,6.487976 5.362156,0 6.337484,-2.437591 6.77478,-6.487976 0.187094,-1.693652 -0.221027,-2.137027 0.06976,-2.771923 1.003347,-0.890246 1.751169,-1.959567 2.170927,-3.222542 0.365693,-1.134359 0.323306,-2.52993 -0.117305,-3.802868 C 25.921357,9.6627582 24.783867,8.2182201 23.761358,7.7204068 23.579126,7.6316768 23.451613,7.5855371 23.34898,7.5782965 c -0.10264,-0.00719 -0.179752,0.025571 -0.262516,0.095601 0,0 0.701116,0.7198625 0.77928,1.4267867 -0.146729,0.515856 -1.135847,0.432531 -1.135847,0.432531 0,0 1.524852,1.4045448 1.793689,2.4975228 0.216519,0.918267 0.09916,2.615214 -0.918808,3.04064 0,0 -2.533764,-0.878498 -6.087483,-0.878498 -3.553719,0 -6.086967,0.878498 -6.086967,0.878498 -1.017978,-0.425426 -1.135324,-2.122372 -0.918807,-3.04064 0.268838,-1.092978 1.793689,-2.4975218 1.793689,-2.4975218 0,0 -0.989121,0.08333 -1.135848,-0.432532 0.07817,-0.7069239 0.778764,-1.4267864 0.778764,-1.4267864 -0.07241,-0.061276 -0.140188,-0.094244 -0.224793,-0.096635 z m 9.451103,13.462226 a 1.8640084,2.26679 26.323018 0 1 0.781864,0.171049 1.8640084,2.26679 26.323018 0 1 0.630969,2.873726 1.8640084,2.26679 26.323018 0 1 -2.684073,1.168405 1.8640084,2.26679 26.323018 0 1 -0.631486,-2.87321 1.8640084,2.26679 26.323018 0 1 1.902726,-1.33997 z m -7.314282,5.17e-4 a 2.26679,1.8640084 63.676982 0 1 1.902726,1.33997 2.26679,1.8640084 63.676982 0 1 -0.631486,2.873209 2.26679,1.8640084 63.676982 0 1 -2.684074,-1.168404 2.26679,1.8640084 63.676982 0 1 0.631486,-2.873726 2.26679,1.8640084 63.676982 0 1 0.781348,-0.171049 z" />
      <path
         id="path2980"
         style="fill:#0a0010;fill-opacity:0.0217671;stroke-width:0.487468"
         d="m 11.867893,7.6430295 c -0.01209,-3.416e-4 -0.02438,1.286e-4 -0.03721,0.00103 -0.10264,0.00719 -0.230144,0.05338 -0.412378,0.1421103 -1.022511,0.4978133 -2.1599971,1.9423509 -2.654101,3.3698202 -0.440614,1.272938 -0.4830027,2.668509 -0.1173056,3.802868 0.4197601,1.262975 1.1670633,2.332296 2.1704096,3.222542 0.290798,0.634896 -0.11733,1.078271 0.06976,2.771923 0.437783,4.050386 1.412621,6.487976 6.77478,6.487976 5.362156,0 6.337484,-2.437591 6.77478,-6.487976 0.187094,-1.693652 -0.221027,-2.137027 0.06976,-2.771923 1.003347,-0.890246 1.751169,-1.959567 2.170927,-3.222542 0.365693,-1.134359 0.323306,-2.52993 -0.117305,-3.802868 C 26.065917,9.7285247 24.928427,8.2839866 23.905918,7.7861733 23.723686,7.6974433 23.596173,7.6513036 23.49354,7.644063 23.3909,7.636873 23.313788,7.669634 23.231024,7.739664 c 0,0 0.701116,0.7198625 0.77928,1.4267867 -0.146729,0.515856 -1.135847,0.432531 -1.135847,0.432531 0,0 1.524852,1.4045453 1.793689,2.4975233 0.216519,0.918267 0.09916,2.615214 -0.918808,3.04064 0,0 -2.533764,-0.878498 -6.087483,-0.878498 -3.553719,0 -6.086967,0.878498 -6.086967,0.878498 -1.017978,-0.425426 -1.135324,-2.122372 -0.918807,-3.04064 0.268838,-1.092978 1.793689,-2.4975223 1.793689,-2.4975223 0,0 -0.989121,0.08333 -1.135848,-0.432532 0.07817,-0.7069239 0.778764,-1.4267864 0.778764,-1.4267864 -0.07241,-0.061276 -0.140188,-0.094244 -0.224793,-0.096635 z m 9.451103,13.4622265 a 1.8640084,2.26679 26.323018 0 1 0.781864,0.171049 1.8640084,2.26679 26.323018 0 1 0.630969,2.873726 1.8640084,2.26679 26.323018 0 1 -2.684073,1.168405 1.8640084,2.26679 26.323018 0 1 -0.631486,-2.87321 1.8640084,2.26679 26.323018 0 1 1.902726,-1.33997 z m -7.314282,5.17e-4 a 2.26679,1.8640084 63.676982 0 1 1.902726,1.33997 2.26679,1.8640084 63.676982 0 1 -0.631486,2.873209 2.26679,1.8640084 63.676982 0 1 -2.684074,-1.168404 2.26679,1.8640084 63.676982 0 1 0.631486,-2.873726 2.26679,1.8640084 63.676982 0 1 0.781348,-0.171049 z" />
      <path
         id="path2982"
         style="fill:#0a0010;fill-opacity:0.0217671;stroke-width:0.487468"
         d="m 12.043028,7.7045474 c -0.01209,-3.416e-4 -0.02438,1.286e-4 -0.03721,0.00103 -0.10264,0.00719 -0.230144,0.05338 -0.412378,0.1421103 -1.022511,0.4978133 -2.1599967,1.9423509 -2.6541006,3.3698203 -0.440614,1.272938 -0.4830027,2.668509 -0.1173056,3.802868 0.4197601,1.262975 1.1670633,2.332296 2.1704092,3.222542 0.290798,0.634896 -0.11733,1.078271 0.06976,2.771923 0.437783,4.050386 1.412621,6.487976 6.77478,6.487976 5.362156,0 6.337484,-2.437591 6.77478,-6.487976 0.187094,-1.693652 -0.221027,-2.137027 0.06976,-2.771923 1.003347,-0.890246 1.751169,-1.959567 2.170927,-3.222542 0.365693,-1.134359 0.323306,-2.52993 -0.117305,-3.802868 -0.494093,-1.4274654 -1.631583,-2.8720035 -2.654092,-3.3698168 -0.182232,-0.08873 -0.309745,-0.1348697 -0.412378,-0.1421103 -0.10264,-0.00719 -0.179752,0.025571 -0.262516,0.095601 0,0 0.701116,0.7198625 0.77928,1.4267867 -0.146729,0.515856 -1.135847,0.432531 -1.135847,0.432531 0,0 1.524852,1.4045454 1.793689,2.4975234 0.216519,0.918267 0.09916,2.615214 -0.918808,3.04064 0,0 -2.533764,-0.878498 -6.087483,-0.878498 -3.553719,0 -6.086967,0.878498 -6.086967,0.878498 -1.017978,-0.425426 -1.135324,-2.122372 -0.918807,-3.04064 0.268838,-1.092978 1.793689,-2.4975224 1.793689,-2.4975224 0,0 -0.989121,0.08333 -1.135848,-0.432532 0.07817,-0.7069239 0.778764,-1.4267864 0.778764,-1.4267864 -0.07241,-0.061276 -0.140188,-0.094244 -0.224793,-0.096635 z m 9.451103,13.4622266 a 1.8640084,2.26679 26.323018 0 1 0.781864,0.171049 1.8640084,2.26679 26.323018 0 1 0.630969,2.873726 1.8640084,2.26679 26.323018 0 1 -2.684073,1.168405 1.8640084,2.26679 26.323018 0 1 -0.631486,-2.87321 1.8640084,2.26679 26.323018 0 1 1.902726,-1.33997 z m -7.314282,5.17e-4 a 2.26679,1.8640084 63.676982 0 1 1.902726,1.33997 2.26679,1.8640084 63.676982 0 1 -0.631486,2.873209 2.26679,1.8640084 63.676982 0 1 -2.684074,-1.168404 2.26679,1.8640084 63.676982 0 1 0.631486,-2.873726 2.26679,1.8640084 63.676982 0 1 0.781348,-0.171049 z" />
      <path
         id="path2984"
         style="fill:#0a0010;fill-opacity:0.0217671;stroke-width:0.487468"
         d="m 12.257281,7.7574975 c -0.01209,-3.416e-4 -0.02438,1.286e-4 -0.03721,0.00103 -0.10264,0.00719 -0.230144,0.05338 -0.412378,0.1421103 -1.022511,0.4978133 -2.1599965,1.9423509 -2.6541004,3.3698202 -0.440614,1.272938 -0.4830027,2.668509 -0.1173056,3.802868 0.4197601,1.262975 1.167063,2.332296 2.170409,3.222542 0.290798,0.634896 -0.11733,1.078271 0.06976,2.771923 0.437783,4.050386 1.412621,6.487976 6.77478,6.487976 5.362156,0 6.337484,-2.437591 6.77478,-6.487976 0.187094,-1.693652 -0.221027,-2.137027 0.06976,-2.771923 1.003347,-0.890246 1.751169,-1.959567 2.170927,-3.222542 0.365693,-1.134359 0.323306,-2.52993 -0.117305,-3.802868 C 26.455305,9.8429927 25.317815,8.3984546 24.295306,7.9006413 24.113074,7.8119113 23.985561,7.7657716 23.882928,7.758531 c -0.10264,-0.00719 -0.179752,0.025571 -0.262516,0.095601 0,0 0.701116,0.7198625 0.77928,1.4267867 -0.146729,0.515856 -1.135847,0.432531 -1.135847,0.432531 0,0 1.524852,1.4045453 1.793689,2.4975233 0.216519,0.918267 0.09916,2.615214 -0.918808,3.04064 0,0 -2.533764,-0.878498 -6.087483,-0.878498 -3.553719,0 -6.086967,0.878498 -6.086967,0.878498 -1.017978,-0.425426 -1.135324,-2.122372 -0.918807,-3.04064 0.268838,-1.092978 1.793689,-2.4975223 1.793689,-2.4975223 0,0 -0.989121,0.08333 -1.135848,-0.432532 0.07817,-0.7069239 0.778764,-1.4267864 0.778764,-1.4267864 -0.07241,-0.061276 -0.140188,-0.094244 -0.224793,-0.096635 z m 9.451103,13.4622265 a 1.8640084,2.26679 26.323018 0 1 0.781864,0.171049 1.8640084,2.26679 26.323018 0 1 0.630969,2.873726 1.8640084,2.26679 26.323018 0 1 -2.684073,1.168405 1.8640084,2.26679 26.323018 0 1 -0.631486,-2.87321 1.8640084,2.26679 26.323018 0 1 1.902726,-1.33997 z m -7.314282,5.17e-4 a 2.26679,1.8640084 63.676982 0 1 1.902726,1.33997 2.26679,1.8640084 63.676982 0 1 -0.631486,2.873209 2.26679,1.8640084 63.676982 0 1 -2.684074,-1.168404 2.26679,1.8640084 63.676982 0 1 0.631486,-2.873726 2.26679,1.8640084 63.676982 0 1 0.781348,-0.171049 z" />
    </g>
    <path
       id="path8"
       style="fill:url(#linearGradient1508);fill-opacity:1;stroke-width:0.487468"
       d="m 11.193901,7.2018594 c -0.01209,-3.416e-4 -0.02438,1.286e-4 -0.03721,0.00103 -0.10264,0.00719 -0.230144,0.05338 -0.412378,0.1421103 -1.0225104,0.4978133 -2.1599969,1.9423512 -2.6541008,3.3698193 -0.440614,1.272938 -0.4830027,2.668509 -0.1173056,3.802868 0.4197601,1.262976 1.1670633,2.332297 2.1704094,3.222543 0.290798,0.634896 -0.11733,1.078271 0.06976,2.771923 0.437783,4.050385 1.412621,6.487976 6.77478,6.487976 5.362156,0 6.337484,-2.437591 6.77478,-6.487976 0.187094,-1.693652 -0.221027,-2.137027 0.06976,-2.771923 1.003347,-0.890246 1.751169,-1.959567 2.170927,-3.222543 0.365693,-1.134359 0.323306,-2.52993 -0.117305,-3.802868 -0.494093,-1.4274646 -1.631583,-2.8720025 -2.654092,-3.3698158 -0.182232,-0.08873 -0.309745,-0.1348697 -0.412378,-0.1421103 -0.10264,-0.00719 -0.179752,0.025571 -0.262516,0.095601 0,0 0.701116,0.7198625 0.77928,1.4267865 -0.146729,0.515856 -1.135847,0.4325316 -1.135847,0.4325316 0,0 1.524852,1.404544 1.793689,2.497522 0.216519,0.918268 0.09916,2.615214 -0.918808,3.040641 0,0 -2.533764,-0.878499 -6.087483,-0.878499 -3.553719,0 -6.086967,0.878499 -6.086967,0.878499 C 9.8829178,14.270548 9.7655722,12.573602 9.9820888,11.655334 10.250927,10.562356 11.775778,9.1578123 11.775778,9.1578123 c 0,0 -0.989121,0.083327 -1.135848,-0.4325316 0.07817,-0.706924 0.778764,-1.4267865 0.778764,-1.4267865 -0.07241,-0.061276 -0.140188,-0.094244 -0.224793,-0.096635 z m 9.451103,13.4622266 a 1.8640084,2.26679 26.323018 0 1 0.781864,0.171049 1.8640084,2.26679 26.323018 0 1 0.630969,2.873726 1.8640084,2.26679 26.323018 0 1 -2.684073,1.168405 1.8640084,2.26679 26.323018 0 1 -0.631486,-2.87321 1.8640084,2.26679 26.323018 0 1 1.902726,-1.33997 z m -7.314282,5.17e-4 a 2.26679,1.8640084 63.676982 0 1 1.902726,1.33997 2.26679,1.8640084 63.676982 0 1 -0.631486,2.873209 2.26679,1.8640084 63.676982 0 1 -2.684074,-1.168404 2.26679,1.8640084 63.676982 0 1 0.631486,-2.873726 2.26679,1.8640084 63.676982 0 1 0.781348,-0.171049 z" />
  </g>
</svg>
