<?xml version="1.0" encoding="UTF-8" standalone="no"?>
<svg
   width="128"
   height="128"
   viewBox="0 0 33.866666 33.866668"
   version="1.1"
   id="svg1015"
   inkscape:version="1.1.2 (0a00cf5339, 2022-02-04)"
   sodipodi:docname="lazarus.svg"
   xmlns:inkscape="http://www.inkscape.org/namespaces/inkscape"
   xmlns:sodipodi="http://sodipodi.sourceforge.net/DTD/sodipodi-0.dtd"
   xmlns:xlink="http://www.w3.org/1999/xlink"
   xmlns="http://www.w3.org/2000/svg"
   xmlns:svg="http://www.w3.org/2000/svg"
   xmlns:rdf="http://www.w3.org/1999/02/22-rdf-syntax-ns#"
   xmlns:cc="http://creativecommons.org/ns#"
   xmlns:dc="http://purl.org/dc/elements/1.1/">
  <defs
     id="defs1009">
    <linearGradient
       inkscape:collect="always"
       id="linearGradient873">
      <stop
         style="stop-color:#0b0b0b;stop-opacity:1;"
         offset="0"
         id="stop869" />
      <stop
         style="stop-color:#0b0b0b;stop-opacity:0.85882353;"
         offset="0.68076366"
         id="stop878" />
      <stop
         style="stop-color:#0b0b0b;stop-opacity:0.83137255;"
         offset="0.69925421"
         id="stop888" />
      <stop
         style="stop-color:#0b0b0b;stop-opacity:0.80392157;"
         offset="0.71879315"
         id="stop890" />
      <stop
         style="stop-color:#0b0b0b;stop-opacity:0.78039216;"
         offset="0.73593426"
         id="stop892" />
      <stop
         style="stop-color:#0b0b0b;stop-opacity:0.75686275;"
         offset="0.75022364"
         id="stop894" />
      <stop
         style="stop-color:#0b0b0b;stop-opacity:0.73333333;"
         offset="0.76798755"
         id="stop896" />
      <stop
         style="stop-color:#0b0b0b;stop-opacity:0.08235294;"
         offset="0.9150058"
         id="stop919" />
      <stop
         style="stop-color:#0b0b0b;stop-opacity:0.07058824;"
         offset="0.92246956"
         id="stop917" />
      <stop
         style="stop-color:#0b0b0b;stop-opacity:0.05882353;"
         offset="0.92918676"
         id="stop915" />
      <stop
         style="stop-color:#0b0b0b;stop-opacity:0.04705882;"
         offset="0.93840873"
         id="stop912" />
      <stop
         style="stop-color:#0b0b0b;stop-opacity:0.03137255;"
         offset="0.94760686"
         id="stop910" />
      <stop
         style="stop-color:#0b0b0b;stop-opacity:0.02352941;"
         offset="0.95380515"
         id="stop908" />
      <stop
         style="stop-color:#0b0b0b;stop-opacity:0.01568627;"
         offset="0.95886087"
         id="stop906" />
      <stop
         style="stop-color:#0b0b0b;stop-opacity:0.01176471;"
         offset="0.96356124"
         id="stop904" />
      <stop
         style="stop-color:#0b0b0b;stop-opacity:0.00784314;"
         offset="0.96845078"
         id="stop902" />
      <stop
         style="stop-color:#0b0b0b;stop-opacity:0.00392157;"
         offset="0.97347641"
         id="stop900" />
      <stop
         style="stop-color:#0b0b0b;stop-opacity:0;"
         offset="0.97812337"
         id="stop886" />
      <stop
         style="stop-color:#0b0b0b;stop-opacity:0;"
         offset="0.98456311"
         id="stop884" />
      <stop
         style="stop-color:#0b0b0b;stop-opacity:0;"
         offset="0.98700982"
         id="stop882" />
      <stop
         style="stop-color:#0b0b0b;stop-opacity:0;"
         offset="0.98924524"
         id="stop880" />
      <stop
         style="stop-color:#0b0b0b;stop-opacity:0;"
         offset="1"
         id="stop871" />
    </linearGradient>
    <linearGradient
       inkscape:collect="always"
       xlink:href="#linearGradient895"
       id="linearGradient897"
       x1="2685.9844"
       y1="1088.7905"
       x2="2685.9844"
       y2="1770.3615"
       gradientUnits="userSpaceOnUse"
       gradientTransform="matrix(0.04277854,0,0,0.04277854,-95.919086,-44.867312)" />
    <linearGradient
       inkscape:collect="always"
       id="linearGradient895">
      <stop
         style="stop-color:#39bdfc;stop-opacity:1"
         offset="0"
         id="stop891" />
      <stop
         style="stop-color:#4900e9;stop-opacity:1"
         offset="1"
         id="stop893" />
    </linearGradient>
    <linearGradient
       inkscape:collect="always"
       id="linearGradient879">
      <stop
         style="stop-color:#3898fc;stop-opacity:1"
         offset="0"
         id="stop875" />
      <stop
         style="stop-color:#4538f8;stop-opacity:1"
         offset="1"
         id="stop877" />
    </linearGradient>
    <radialGradient
       inkscape:collect="always"
       xlink:href="#linearGradient873"
       id="radialGradient898"
       gradientUnits="userSpaceOnUse"
       cx="60.636452"
       cy="20.456388"
       fx="60.636452"
       fy="20.456388"
       r="17.303919"
       gradientTransform="translate(-43.433354,-3.9448764)" />
    <radialGradient
       inkscape:collect="always"
       xlink:href="#linearGradient879"
       id="radialGradient993"
       cx="17.488945"
       cy="3.9765341"
       fx="17.488945"
       fy="3.9765341"
       r="13.695572"
       gradientUnits="userSpaceOnUse"
       gradientTransform="matrix(2.0751827,0,0,1.5420669,-18.496474,-0.93384809)" />
  </defs>
  <sodipodi:namedview
     id="base"
     pagecolor="#ffffff"
     bordercolor="#666666"
     borderopacity="1.0"
     inkscape:pageopacity="0.0"
     inkscape:pageshadow="2"
     inkscape:zoom="0.9899495"
     inkscape:cx="-144.45181"
     inkscape:cy="6.5659915"
     inkscape:document-units="mm"
     inkscape:current-layer="layer1"
     inkscape:document-rotation="0"
     showgrid="false"
     units="px"
     inkscape:window-width="1920"
     inkscape:window-height="1007"
     inkscape:window-x="0"
     inkscape:window-y="0"
     inkscape:window-maximized="1"
     inkscape:pagecheckerboard="0" />
  <metadata
     id="metadata1012">
    <rdf:RDF>
      <cc:Work
         rdf:about="">
        <dc:format>image/svg+xml</dc:format>
        <dc:type
           rdf:resource="http://purl.org/dc/dcmitype/StillImage" />
      </cc:Work>
    </rdf:RDF>
  </metadata>
  <g
     inkscape:label="Capa 1"
     inkscape:groupmode="layer"
     id="layer1">
    <circle
       style="opacity:0.309726;fill:url(#radialGradient898);fill-opacity:1;stroke-width:3;stroke-linecap:square;stroke-linejoin:round"
       id="path867"
       cx="17.203098"
       cy="16.511513"
       r="17.303919" />
    <circle
       style="fill:url(#linearGradient897);fill-opacity:1;stroke:#b1aaaa;stroke-width:0.0575565;stroke-linecap:square;stroke-opacity:0.992157"
       id="circle839"
       cx="17.203098"
       cy="16.511513"
       r="15.118138" />
    <circle
       style="fill:url(#radialGradient993);fill-opacity:1;stroke:none;stroke-width:0.0498826;stroke-linecap:square;stroke-opacity:1"
       id="circle839-3"
       cx="17.203098"
       cy="16.511513"
       r="13.102469" />
    <path
       style="fill:#ffffff;stroke-width:0.50663"
       d="m 17.223428,8.0849174 c -0.109222,0 -0.08866,0.4257246 0.02573,0.5224616 0.128791,0.108915 0.318354,0.489063 0.374036,0.752029 l 0.04354,0.205819 -0.354247,0.07519 c -0.844394,0.178615 -1.007951,0.760829 -0.463092,1.642591 0.19131,0.309618 0.191667,0.318425 0.154354,0.989512 -0.02797,0.503272 -0.01282,0.758293 0.05739,0.999407 0.109087,0.374297 0.413668,0.718257 0.732239,0.827233 0.352335,0.120519 1.308805,0.06367 1.664361,-0.09896 0.388989,-0.177926 0.895881,-0.705986 1.037013,-1.082528 0.166207,-0.443439 0.102864,-1.054957 -0.162281,-1.589152 -0.254886,-0.513541 -0.9195,-1.212145 -1.381355,-1.450615 C 18.706926,9.751823 18.591575,9.644415 18.509793,9.46429 18.393025,9.207119 17.346821,8.0849174 17.223428,8.0849174 Z m -6.053836,2.0265206 c -0.01455,-0.0013 -0.02738,0.0036 -0.03958,0.01589 -0.126397,0.1268 -0.229267,0.793181 -0.217694,1.415003 0.01091,0.588484 -0.0042,0.710233 -0.120711,0.906393 -0.387005,0.651766 -0.452652,1.84575 -0.138537,2.523256 0.277732,0.599026 0.737502,0.964859 1.438752,1.139919 0.489526,0.122205 0.820011,0.105048 1.280426,-0.06332 1.26877,-0.463985 1.488231,-1.368578 0.577877,-2.388683 -0.369112,-0.413615 -0.540274,-0.750961 -0.540274,-1.056801 0,-0.372247 -0.136584,-0.736391 -0.366119,-0.981595 -0.206636,-0.220741 -0.218261,-0.223032 -0.613498,-0.188017 -0.221575,0.01964 -0.482789,0.05488 -0.579853,0.07916 -0.161152,0.04033 -0.186581,0.01857 -0.302791,-0.239463 -0.07001,-0.155411 -0.127777,-0.416683 -0.128639,-0.581832 -0.0012,-0.25508 -0.147499,-0.57064 -0.249359,-0.579855 z m 12.875533,1.015239 c -0.159639,-0.03159 -0.208978,0.33875 -0.08115,0.607561 0.059,0.124004 0.09813,0.33414 0.08709,0.46705 l -0.0198,0.241442 -0.340392,0.0059 c -0.263991,0.005 -0.39116,0.04741 -0.575897,0.188016 -0.216214,0.164541 -0.546636,0.72228 -0.54819,0.926182 -3.45e-4,0.04508 -0.201479,0.483526 -0.447259,0.97368 -0.24578,0.490157 -0.466894,0.989497 -0.492776,1.108254 -0.138806,0.636855 0.246329,1.112847 1.167624,1.444688 0.389029,0.140127 0.795831,0.151195 1.23689,0.03364 0.716823,-0.191062 1.177716,-0.552588 1.456562,-1.143878 0.147044,-0.311928 0.167226,-0.438473 0.164258,-1.005381 -0.0038,-0.734792 -0.142788,-1.198643 -0.518505,-1.727689 -0.117283,-0.165055 -0.260793,-0.487008 -0.318621,-0.714355 -0.118374,-0.465353 -0.61698,-1.374832 -0.769841,-1.405109 z M 7.494543,16.19298 c -0.016467,-0.0038 -0.028665,-0.0017 -0.037607,0.0078 -0.1323334,0.142137 0.066789,1.521487 0.2671696,1.850387 0.049192,0.08075 0.1185467,0.356536 0.1563452,0.611517 0.1713959,1.15646 0.9781243,2.236848 1.8939268,2.537111 0.3128474,0.102577 0.9918724,0.06461 1.4308344,-0.07916 0.363043,-0.11891 0.484202,-0.200627 0.757966,-0.508609 0.56815,-0.639164 0.672033,-1.271257 0.290919,-1.7831 -0.100873,-0.135461 -0.409473,-0.388169 -0.684745,-0.561975 -0.275274,-0.17377 -0.755005,-0.49456 -1.064715,-0.712448 C 9.5974401,16.916266 9.5019441,16.857134 9.2519141,16.782684 8.934536,16.688184 8.6114766,16.788984 8.347501,17.063705 L 8.1397024,17.27744 8.0110647,17.049852 C 7.9394502,16.923684 7.8805695,16.756729 7.8804546,16.679776 7.8802209,16.541679 7.609934,16.219728 7.4945449,16.192934 Z m 11.575315,1.011283 c -0.398508,0.0019 -0.8586,0.06591 -1.389275,0.193943 -1.499743,0.361826 -2.208606,0.79297 -2.531173,1.537702 -0.139667,0.32244 -0.150773,0.433622 -0.112802,1.050863 0.03862,0.627532 0.02836,0.717877 -0.118738,1.031071 -0.149491,0.318259 -0.322117,0.497753 -1.11419,1.163667 -0.251512,0.211454 -0.274532,0.261031 -0.302793,0.649119 -0.02631,0.361385 -1.5e-5,0.480272 0.182081,0.866814 0.38886,0.825585 1.090518,1.379452 1.969129,1.551554 0.415931,0.08146 0.690916,0.08153 1.405109,0.0021 2.776155,-0.309493 5.967342,-1.309916 6.879089,-2.157216 0.476685,-0.442994 0.666695,-0.851433 0.698596,-1.500101 0.06088,-1.238389 -0.496895,-1.980846 -1.492186,-1.984961 -0.779148,-0.0031 -1.562665,-0.455969 -1.884031,-1.088464 -0.238002,-0.468417 -0.720455,-0.93572 -1.171582,-1.133981 -0.281963,-0.123985 -0.61871,-0.18413 -1.017219,-0.182119 z"
       id="path8" />
  </g>
</svg>
