<?xml version="1.0" encoding="UTF-8" standalone="no"?>
<svg
   width="128"
   height="128"
   viewBox="0 0 33.866666 33.866668"
   version="1.1"
   id="svg1015"
   inkscape:version="1.1.2 (0a00cf5339, 2022-02-04)"
   sodipodi:docname="maxima.svg"
   xmlns:inkscape="http://www.inkscape.org/namespaces/inkscape"
   xmlns:sodipodi="http://sodipodi.sourceforge.net/DTD/sodipodi-0.dtd"
   xmlns:xlink="http://www.w3.org/1999/xlink"
   xmlns="http://www.w3.org/2000/svg"
   xmlns:svg="http://www.w3.org/2000/svg"
   xmlns:rdf="http://www.w3.org/1999/02/22-rdf-syntax-ns#"
   xmlns:cc="http://creativecommons.org/ns#"
   xmlns:dc="http://purl.org/dc/elements/1.1/">
  <defs
     id="defs1009">
    <linearGradient
       inkscape:collect="always"
       id="linearGradient873">
      <stop
         style="stop-color:#0b0b0b;stop-opacity:1;"
         offset="0"
         id="stop869" />
      <stop
         style="stop-color:#0b0b0b;stop-opacity:0.85882353;"
         offset="0.68076366"
         id="stop878" />
      <stop
         style="stop-color:#0b0b0b;stop-opacity:0.83137255;"
         offset="0.69925421"
         id="stop888" />
      <stop
         style="stop-color:#0b0b0b;stop-opacity:0.80392157;"
         offset="0.71879315"
         id="stop890" />
      <stop
         style="stop-color:#0b0b0b;stop-opacity:0.78039216;"
         offset="0.73593426"
         id="stop892" />
      <stop
         style="stop-color:#0b0b0b;stop-opacity:0.75686275;"
         offset="0.75022364"
         id="stop894" />
      <stop
         style="stop-color:#0b0b0b;stop-opacity:0.73333333;"
         offset="0.76798755"
         id="stop896" />
      <stop
         style="stop-color:#0b0b0b;stop-opacity:0.08235294;"
         offset="0.9150058"
         id="stop919" />
      <stop
         style="stop-color:#0b0b0b;stop-opacity:0.07058824;"
         offset="0.92246956"
         id="stop917" />
      <stop
         style="stop-color:#0b0b0b;stop-opacity:0.05882353;"
         offset="0.92918676"
         id="stop915" />
      <stop
         style="stop-color:#0b0b0b;stop-opacity:0.04705882;"
         offset="0.93840873"
         id="stop912" />
      <stop
         style="stop-color:#0b0b0b;stop-opacity:0.03137255;"
         offset="0.94760686"
         id="stop910" />
      <stop
         style="stop-color:#0b0b0b;stop-opacity:0.02352941;"
         offset="0.95380515"
         id="stop908" />
      <stop
         style="stop-color:#0b0b0b;stop-opacity:0.01568627;"
         offset="0.95886087"
         id="stop906" />
      <stop
         style="stop-color:#0b0b0b;stop-opacity:0.01176471;"
         offset="0.96356124"
         id="stop904" />
      <stop
         style="stop-color:#0b0b0b;stop-opacity:0.00784314;"
         offset="0.96845078"
         id="stop902" />
      <stop
         style="stop-color:#0b0b0b;stop-opacity:0.00392157;"
         offset="0.97347641"
         id="stop900" />
      <stop
         style="stop-color:#0b0b0b;stop-opacity:0;"
         offset="0.97812337"
         id="stop886" />
      <stop
         style="stop-color:#0b0b0b;stop-opacity:0;"
         offset="0.98456311"
         id="stop884" />
      <stop
         style="stop-color:#0b0b0b;stop-opacity:0;"
         offset="0.98700982"
         id="stop882" />
      <stop
         style="stop-color:#0b0b0b;stop-opacity:0;"
         offset="0.98924524"
         id="stop880" />
      <stop
         style="stop-color:#0b0b0b;stop-opacity:0;"
         offset="1"
         id="stop871" />
    </linearGradient>
    <linearGradient
       inkscape:collect="always"
       xlink:href="#linearGradient895"
       id="linearGradient897"
       x1="2685.9844"
       y1="1088.7905"
       x2="2685.9844"
       y2="1770.3615"
       gradientUnits="userSpaceOnUse"
       gradientTransform="matrix(0.04277854,0,0,0.04277854,-95.919086,-44.867312)" />
    <linearGradient
       inkscape:collect="always"
       id="linearGradient895">
      <stop
         style="stop-color:#3c4549;stop-opacity:1"
         offset="0"
         id="stop891" />
      <stop
         style="stop-color:#020315;stop-opacity:1"
         offset="1"
         id="stop893" />
    </linearGradient>
    <linearGradient
       inkscape:collect="always"
       id="linearGradient879">
      <stop
         style="stop-color:#31373c;stop-opacity:1"
         offset="0"
         id="stop875" />
      <stop
         style="stop-color:#2f353b;stop-opacity:1;"
         offset="0.10975373"
         id="stop24032" />
      <stop
         style="stop-color:#000d29;stop-opacity:1"
         offset="1"
         id="stop877" />
    </linearGradient>
    <radialGradient
       inkscape:collect="always"
       xlink:href="#linearGradient873"
       id="radialGradient898"
       gradientUnits="userSpaceOnUse"
       cx="60.636452"
       cy="20.456388"
       fx="60.636452"
       fy="20.456388"
       r="17.303919"
       gradientTransform="translate(-43.433354,-3.9448764)" />
    <radialGradient
       inkscape:collect="always"
       xlink:href="#linearGradient879"
       id="radialGradient993"
       cx="16.980059"
       cy="4.0174232"
       fx="16.980059"
       fy="4.0174232"
       r="13.695572"
       gradientUnits="userSpaceOnUse"
       gradientTransform="matrix(4.8885673,0,0,1.8641486,-65.723642,-2.4382716)" />
  </defs>
  <sodipodi:namedview
     id="base"
     pagecolor="#ffffff"
     bordercolor="#666666"
     borderopacity="1.0"
     inkscape:pageopacity="0.0"
     inkscape:pageshadow="2"
     inkscape:zoom="0.7"
     inkscape:cx="-381.42857"
     inkscape:cy="18.571429"
     inkscape:document-units="mm"
     inkscape:current-layer="layer1"
     inkscape:document-rotation="0"
     showgrid="false"
     units="px"
     inkscape:window-width="1920"
     inkscape:window-height="1050"
     inkscape:window-x="0"
     inkscape:window-y="0"
     inkscape:window-maximized="1"
     inkscape:pagecheckerboard="0" />
  <metadata
     id="metadata1012">
    <rdf:RDF>
      <cc:Work
         rdf:about="">
        <dc:format>image/svg+xml</dc:format>
        <dc:type
           rdf:resource="http://purl.org/dc/dcmitype/StillImage" />
      </cc:Work>
    </rdf:RDF>
  </metadata>
  <g
     inkscape:label="Capa 1"
     inkscape:groupmode="layer"
     id="layer1">
    <circle
       style="opacity:0.309726;fill:url(#radialGradient898);fill-opacity:1;stroke-width:3;stroke-linecap:square;stroke-linejoin:round"
       id="path867"
       cx="17.203098"
       cy="16.511513"
       r="17.303919" />
    <circle
       style="fill:url(#linearGradient897);fill-opacity:1;stroke:#b1aaaa;stroke-width:0.0575565;stroke-linecap:square;stroke-opacity:0.992157"
       id="circle839"
       cx="17.203098"
       cy="16.511513"
       r="15.118138" />
    <circle
       style="fill:url(#radialGradient993);fill-opacity:1;stroke:none;stroke-width:0.0498826;stroke-linecap:square;stroke-opacity:1"
       id="circle839-3"
       cx="17.203098"
       cy="16.511513"
       r="13.102469" />
    <path
       style="fill:#ffffff;fill-opacity:0.95833731;stroke-width:0.497933"
       d="m 9.9600441,8.995554 c -0.4925991,0 -0.8180338,0.3109103 -0.8180338,0.6970563 0,0.3862477 0.3254347,0.7968917 0.8180338,0.7968917 h 0.5779569 c 0,0 0.689497,0.181853 0.663119,0.757058 -0.178691,2.446547 -1.128714,9.075682 -1.4244664,9.617235 -0.3729222,0.511576 -0.6151355,0.579991 -1.239277,0.579991 -0.4925981,0 -0.8891665,0.410597 -0.8891665,0.796795 0,0.386195 0.3965684,0.697105 0.8891665,0.697105 H 13.22862 c 0.492597,0 0.892723,-0.31091 0.892723,-0.697105 0,-0.386198 -0.400126,-0.796795 -0.892723,-0.796795 -1.070999,0.135294 -1.352821,-0.136987 -1.641877,-0.920977 -0.147356,-0.763679 -0.09638,-1.867848 0.08632,-3.853605 0.328847,-3.574065 0.510485,-4.208483 0.991978,-3.916793 0.331968,0.201015 2.741559,5.12209 3.533046,7.499572 0.326238,0.979984 0.718084,1.741224 0.871107,1.691033 0.153022,-0.04995 0.629387,-1.028282 1.058665,-2.174377 0.970463,-2.591095 2.890621,-6.366027 3.207946,-6.714034 0.421239,-0.46203 0.673846,0.253698 1.305962,4.114275 0.598093,3.65269 0.601203,3.667678 0.120878,4.187768 -0.173704,0.166666 -0.53962,0.08713 -0.777521,0.08713 -0.492598,0 -0.892723,0.410596 -0.892723,0.796794 0,0.386196 0.400125,0.697105 0.892723,0.697105 h 4.691243 c 0.492598,0 0.889167,-0.310909 0.889167,-0.697105 0,-0.386198 -0.396569,-0.796794 -0.889167,-0.796794 -0.786695,0.08933 -0.749508,-0.149371 -0.99331,-0.736245 -0.749709,-2.229745 -1.88054,-8.460285 -1.61167,-9.510078 0.295367,-0.630533 0.496999,-0.707962 1.182315,-0.707962 0.492597,0 0.818031,-0.410643 0.818031,-0.7968917 0,-0.3861458 -0.325434,-0.6970561 -0.818031,-0.6970561 h -4.623668 c -0.492598,0 -1.031433,0.066832 -1.031433,0.6970561 0,0.7523787 0.719066,0.6226657 1.031433,0.9959157 0.463547,0.443459 0.130362,0.618483 -0.05953,1.072898 -0.852016,1.582581 -1.485683,3.473334 -2.323515,4.976246 -0.251124,0.445551 -0.526236,0.789872 -0.755429,0.779713 -0.357157,-0.03634 -1.5455,-3.138374 -2.32017,-4.645169 -0.292336,-0.687694 -0.484644,-0.90061 -0.662087,-1.323057 -0.492584,-0.814619 -0.01581,-1.014589 0.609431,-1.146691 0.288769,-0.114272 0.503956,-0.344372 0.49641,-0.7098537 -0.01337,-0.6453182 -0.488827,-0.6970532 -0.981426,-0.6970532 z"
       id="path934" />
  </g>
</svg>
