<?xml version="1.0" encoding="UTF-8" standalone="no"?>
<svg
   width="128"
   height="128"
   viewBox="0 0 33.866666 33.866668"
   version="1.1"
   id="svg1015"
   inkscape:version="1.1.2 (0a00cf5339, 2022-02-04)"
   sodipodi:docname="molotov.svg"
   xmlns:inkscape="http://www.inkscape.org/namespaces/inkscape"
   xmlns:sodipodi="http://sodipodi.sourceforge.net/DTD/sodipodi-0.dtd"
   xmlns:xlink="http://www.w3.org/1999/xlink"
   xmlns="http://www.w3.org/2000/svg"
   xmlns:svg="http://www.w3.org/2000/svg"
   xmlns:rdf="http://www.w3.org/1999/02/22-rdf-syntax-ns#"
   xmlns:cc="http://creativecommons.org/ns#"
   xmlns:dc="http://purl.org/dc/elements/1.1/">
  <defs
     id="defs1009">
    <linearGradient
       inkscape:collect="always"
       id="linearGradient873">
      <stop
         style="stop-color:#0b0b0b;stop-opacity:1;"
         offset="0"
         id="stop869" />
      <stop
         style="stop-color:#0b0b0b;stop-opacity:0.85882353;"
         offset="0.68076366"
         id="stop878" />
      <stop
         style="stop-color:#0b0b0b;stop-opacity:0.83137255;"
         offset="0.69925421"
         id="stop888" />
      <stop
         style="stop-color:#0b0b0b;stop-opacity:0.80392157;"
         offset="0.71879315"
         id="stop890" />
      <stop
         style="stop-color:#0b0b0b;stop-opacity:0.78039216;"
         offset="0.73593426"
         id="stop892" />
      <stop
         style="stop-color:#0b0b0b;stop-opacity:0.75686275;"
         offset="0.75022364"
         id="stop894" />
      <stop
         style="stop-color:#0b0b0b;stop-opacity:0.73333333;"
         offset="0.76798755"
         id="stop896" />
      <stop
         style="stop-color:#0b0b0b;stop-opacity:0.08235294;"
         offset="0.9150058"
         id="stop919" />
      <stop
         style="stop-color:#0b0b0b;stop-opacity:0.07058824;"
         offset="0.92246956"
         id="stop917" />
      <stop
         style="stop-color:#0b0b0b;stop-opacity:0.05882353;"
         offset="0.92918676"
         id="stop915" />
      <stop
         style="stop-color:#0b0b0b;stop-opacity:0.04705882;"
         offset="0.93840873"
         id="stop912" />
      <stop
         style="stop-color:#0b0b0b;stop-opacity:0.03137255;"
         offset="0.94760686"
         id="stop910" />
      <stop
         style="stop-color:#0b0b0b;stop-opacity:0.02352941;"
         offset="0.95380515"
         id="stop908" />
      <stop
         style="stop-color:#0b0b0b;stop-opacity:0.01568627;"
         offset="0.95886087"
         id="stop906" />
      <stop
         style="stop-color:#0b0b0b;stop-opacity:0.01176471;"
         offset="0.96356124"
         id="stop904" />
      <stop
         style="stop-color:#0b0b0b;stop-opacity:0.00784314;"
         offset="0.96845078"
         id="stop902" />
      <stop
         style="stop-color:#0b0b0b;stop-opacity:0.00392157;"
         offset="0.97347641"
         id="stop900" />
      <stop
         style="stop-color:#0b0b0b;stop-opacity:0;"
         offset="0.97812337"
         id="stop886" />
      <stop
         style="stop-color:#0b0b0b;stop-opacity:0;"
         offset="0.98456311"
         id="stop884" />
      <stop
         style="stop-color:#0b0b0b;stop-opacity:0;"
         offset="0.98700982"
         id="stop882" />
      <stop
         style="stop-color:#0b0b0b;stop-opacity:0;"
         offset="0.98924524"
         id="stop880" />
      <stop
         style="stop-color:#0b0b0b;stop-opacity:0;"
         offset="1"
         id="stop871" />
    </linearGradient>
    <linearGradient
       inkscape:collect="always"
       xlink:href="#linearGradient895"
       id="linearGradient897"
       x1="2685.9844"
       y1="1088.7905"
       x2="2685.9844"
       y2="1770.3615"
       gradientUnits="userSpaceOnUse"
       gradientTransform="matrix(0.04277854,0,0,0.04277854,-95.919086,-44.867312)" />
    <linearGradient
       inkscape:collect="always"
       id="linearGradient895">
      <stop
         style="stop-color:#ffdb3f;stop-opacity:1"
         offset="0"
         id="stop891" />
      <stop
         style="stop-color:#e9a900;stop-opacity:1"
         offset="1"
         id="stop893" />
    </linearGradient>
    <linearGradient
       inkscape:collect="always"
       id="linearGradient879">
      <stop
         style="stop-color:#fccc4e;stop-opacity:1"
         offset="0"
         id="stop875" />
      <stop
         style="stop-color:#e6ba0c;stop-opacity:1"
         offset="1"
         id="stop877" />
    </linearGradient>
    <radialGradient
       inkscape:collect="always"
       xlink:href="#linearGradient873"
       id="radialGradient898"
       gradientUnits="userSpaceOnUse"
       cx="60.636452"
       cy="20.456388"
       fx="60.636452"
       fy="20.456388"
       r="17.303919"
       gradientTransform="translate(-43.433354,-3.9448764)" />
    <radialGradient
       inkscape:collect="always"
       xlink:href="#linearGradient879"
       id="radialGradient993"
       cx="16.786602"
       cy="3.5456841"
       fx="16.786602"
       fy="3.5456841"
       r="13.695572"
       gradientUnits="userSpaceOnUse"
       gradientTransform="matrix(4.8885673,0,0,1.5420669,-65.723642,-0.93384819)" />
  </defs>
  <sodipodi:namedview
     id="base"
     pagecolor="#ffffff"
     bordercolor="#666666"
     borderopacity="1.0"
     inkscape:pageopacity="0.0"
     inkscape:pageshadow="2"
     inkscape:zoom="3.959798"
     inkscape:cx="47.224631"
     inkscape:cy="39.26968"
     inkscape:document-units="mm"
     inkscape:current-layer="layer1"
     inkscape:document-rotation="0"
     showgrid="false"
     units="px"
     inkscape:window-width="1920"
     inkscape:window-height="1028"
     inkscape:window-x="0"
     inkscape:window-y="26"
     inkscape:window-maximized="1"
     inkscape:pagecheckerboard="0" />
  <metadata
     id="metadata1012">
    <rdf:RDF>
      <cc:Work
         rdf:about="">
        <dc:format>image/svg+xml</dc:format>
        <dc:type
           rdf:resource="http://purl.org/dc/dcmitype/StillImage" />
      </cc:Work>
    </rdf:RDF>
  </metadata>
  <g
     inkscape:label="Capa 1"
     inkscape:groupmode="layer"
     id="layer1">
    <circle
       style="opacity:0.309726;fill:url(#radialGradient898);fill-opacity:1;stroke-width:3;stroke-linecap:square;stroke-linejoin:round"
       id="path867"
       cx="17.203098"
       cy="16.511513"
       r="17.303919" />
    <circle
       style="fill:url(#linearGradient897);fill-opacity:1;stroke:#b1aaaa;stroke-width:0.0575565;stroke-linecap:square;stroke-opacity:0.992157"
       id="circle839"
       cx="17.203098"
       cy="16.511513"
       r="15.118138" />
    <circle
       style="fill:url(#radialGradient993);fill-opacity:1;stroke:none;stroke-width:0.0498826;stroke-linecap:square;stroke-opacity:1"
       id="circle839-3"
       cx="17.203098"
       cy="16.511513"
       r="13.102469" />
    <path
       style="opacity:0.1;stroke-width:0.491686"
       d="m 13.069338,8.3146768 c -0.105267,0 -0.199594,0.01672 -0.270812,0.0365 -0.4204,0.116723 -0.985865,1.001719 -1.701695,2.1895422 -0.520119,0.863055 -1.067882,1.995194 -1.067882,2.110793 0,0.279097 0.2363,0.656169 0.376448,0.601164 0.04416,-0.01728 0.275597,-0.322783 0.514734,-0.679912 0.239144,-0.357119 0.603199,-0.971731 0.810514,-1.24266 0.139467,-0.182267 0.229355,-0.31629 0.286177,-0.412939 -0.01922,0.143223 -0.238842,2.08971 -0.487845,3.966144 -0.249094,1.877106 -0.783633,4.014672 -0.866214,4.607639 -0.266798,1.91581 -0.18934,2.623608 0.291939,2.623608 0.160054,0 1.015803,-0.440773 1.15239,-0.59348 0.07937,-0.08874 0.185845,-0.365096 0.276574,-0.722165 0.823421,-3.240453 2.481641,-6.413081 3.612743,-7.895793 0.20327,-0.266456 0.377596,-0.680921 0.387973,-0.670308 0.01041,0.01059 -0.03177,0.52136 -0.09219,0.883499 -0.512218,3.070686 -0.743765,4.984911 -0.752895,5.906 -0.0057,0.600412 0.0093,0.763874 0.09411,0.925752 0.09676,0.184905 0.117014,0.195381 0.345717,0.169017 0.240454,-0.02774 0.883181,-0.32534 1.067882,-0.493608 0.05263,-0.04793 0.240114,-0.541099 0.41486,-1.096691 0.542907,-1.726113 1.422764,-3.494563 2.210669,-4.703672 0.352086,-0.540292 1.030788,-1.409329 1.069802,-1.369423 0.01319,0.01357 -0.107171,0.71687 -0.26697,1.563408 -0.711052,3.766775 -0.683087,5.665206 -0.72545,6.874008 -0.03354,0.956485 0.01691,1.310819 0.266971,1.851507 0.22918,0.495661 0.565663,0.84864 1.042913,1.092849 0.430337,0.2202 0.88668,0.266456 1.240739,0.140212 0.0987,-0.03518 0.180538,-0.102023 0.180538,-0.147887 0,-0.0459 -0.07952,-0.242919 -0.176691,-0.439831 -0.09717,-0.196917 -0.239825,-0.611075 -0.316907,-0.918069 -0.192238,-0.765623 -0.190318,-2.088151 0.0076,-3.883555 0.249386,-2.262094 0.03992,-3.027984 0.761941,-6.576307 0.06432,-0.316037 0.115236,-0.652914 0.115236,-0.747133 0,-0.283439 -0.14889,-0.492203 -0.512813,-0.718324 -0.45606,-0.283364 -0.879217,-0.334414 -1.282994,-0.151733 -0.858373,0.388369 -1.808991,1.493242 -2.610165,3.182517 -0.274013,0.577749 -0.721836,1.663811 -0.883497,2.149206 -0.02024,0.06067 -0.04571,0.100946 -0.05761,0.08835 -0.02223,-0.02353 0.161342,-1.112508 0.505131,-2.658179 0.356466,-1.602638 0.443074,-2.112134 0.376447,-2.239477 -0.15523,-0.296701 -0.802311,-0.641463 -1.206153,-0.643423 -0.830908,-0.0043 -1.822431,1.011188 -2.662021,2.723482 -0.282767,0.576696 -0.880257,2.274433 -1.123581,3.028864 -0.103378,0.320525 -0.190085,0.528903 -0.192065,0.464798 -0.0035,-0.112151 -0.03618,-1.484875 0.67991,-5.788839 0.355552,-2.1368732 0.35662,-2.1268442 0.05955,-2.2759662 -0.166046,-0.08333 -0.577301,-0.109475 -0.893102,-0.109475 z m 9.877905,12.8779592 c -0.144449,0.002 -0.14653,0.02633 -0.124843,0.08835 0.07575,0.216463 0.159408,0.702546 0.159408,0.921912 v 0.228558 l 0.470561,0.06915 c 0.569059,0.08454 1.236176,0.27832 1.703615,0.495527 0.190251,0.08842 0.359647,0.161806 0.378369,0.163255 0.01875,0.0014 0.08612,-0.148593 0.147887,-0.334193 0.09647,-0.28987 0.102023,-0.372977 0.03841,-0.58772 -0.109029,-0.368159 -0.257207,-0.562144 -0.526258,-0.695274 -0.309892,-0.153332 -1.05169,-0.288813 -1.809253,-0.330352 -0.214311,-0.01171 -0.351238,-0.02046 -0.437907,-0.01922 z m -4.484719,0.88542 c -0.222769,0 -1.439261,0.217122 -2.143446,0.382209 -0.33063,0.07751 -0.830065,0.192577 -1.110135,0.257368 -0.28007,0.06478 -0.955447,0.233538 -1.500027,0.372607 -0.544583,0.139078 -1.193458,0.295222 -1.442409,0.347636 -0.486495,0.102432 -0.763887,0.193286 -0.762499,0.251605 0.002,0.09805 0.304031,0.355321 0.416781,0.355321 0.02872,0 0.576514,-0.07835 1.217692,-0.172863 1.802621,-0.26573 5.09143,-0.631757 5.73122,-0.637657 0.02195,-2.31e-4 0.0052,-0.102525 -0.03841,-0.228558 -0.0435,-0.126033 -0.110924,-0.386041 -0.147886,-0.578115 -0.06266,-0.32556 -0.07612,-0.349558 -0.220877,-0.349558 z"
       id="path6" />
    <path
       style="fill:#383838;stroke-width:0.491686"
       d="m 13.069338,7.8229893 c -0.105267,0 -0.199594,0.016725 -0.270812,0.036498 -0.4204,0.1167224 -0.985865,1.0017195 -1.701695,2.1895407 -0.520119,0.863057 -1.067882,1.995196 -1.067882,2.110794 0,0.279097 0.2363,0.65617 0.376448,0.601164 0.04416,-0.01728 0.275597,-0.322783 0.514734,-0.679911 0.239144,-0.35712 0.603199,-0.971731 0.810514,-1.242661 0.139467,-0.182266 0.229355,-0.31629 0.286177,-0.412938 -0.01922,0.143222 -0.238842,2.089709 -0.487845,3.966141 -0.249094,1.877108 -0.783633,4.014672 -0.866214,4.607641 -0.266798,1.91581 -0.18934,2.623607 0.291939,2.623607 0.160054,0 1.015803,-0.440771 1.15239,-0.593481 0.07937,-0.08874 0.185845,-0.365093 0.276574,-0.722163 0.823421,-3.240455 2.481641,-6.413082 3.612743,-7.895794 0.20327,-0.266457 0.377596,-0.680921 0.387973,-0.670306 0.01041,0.01059 -0.03177,0.521359 -0.09219,0.883498 -0.512218,3.070687 -0.743765,4.984911 -0.752895,5.905999 -0.0057,0.600414 0.0093,0.763875 0.09411,0.925754 0.09676,0.184905 0.117014,0.19538 0.345717,0.169016 0.240454,-0.02774 0.883181,-0.32534 1.067882,-0.493607 0.05263,-0.04793 0.240114,-0.541102 0.41486,-1.096692 0.542907,-1.726112 1.422764,-3.494563 2.210669,-4.703671 0.352086,-0.540293 1.030788,-1.40933 1.069802,-1.369424 0.01319,0.01357 -0.107171,0.716869 -0.26697,1.563409 -0.711052,3.766773 -0.683087,5.665205 -0.72545,6.874007 -0.03354,0.956485 0.01691,1.310819 0.266971,1.851506 0.22918,0.495662 0.565663,0.848641 1.042913,1.09285 0.430337,0.220201 0.88668,0.266457 1.240739,0.140212 0.0987,-0.03518 0.180538,-0.102042 0.180538,-0.147887 0,-0.0459 -0.07952,-0.242919 -0.176691,-0.439829 -0.09717,-0.196919 -0.239825,-0.611075 -0.316907,-0.918069 -0.192238,-0.765623 -0.190318,-2.088153 0.0076,-3.883555 0.249386,-2.262094 0.03992,-3.027984 0.761941,-6.576307 0.06432,-0.316037 0.115236,-0.652915 0.115236,-0.747133 0,-0.283438 -0.14889,-0.492202 -0.512813,-0.718324 -0.45606,-0.2833632 -0.879217,-0.3344162 -1.282994,-0.1517332 -0.858373,0.3883692 -1.808991,1.4932412 -2.610165,3.1825152 -0.274013,0.577751 -0.721836,1.663811 -0.883497,2.149209 -0.02024,0.06067 -0.04571,0.100945 -0.05761,0.08835 -0.02223,-0.02353 0.161342,-1.112508 0.505131,-2.658181 0.356466,-1.602638 0.443074,-2.112134 0.376447,-2.239477 -0.155246,-0.296695 -0.802327,-0.6414592 -1.206169,-0.6434172 -0.830908,-0.0043 -1.822431,1.0111892 -2.662021,2.7234822 -0.282767,0.576694 -0.880257,2.274433 -1.123581,3.028864 -0.103378,0.320524 -0.190085,0.528903 -0.192065,0.464798 -0.0035,-0.112151 -0.03618,-1.484875 0.67991,-5.788839 0.355552,-2.1368732 0.35662,-2.1268442 0.05955,-2.2759664 -0.16603,-0.083333 -0.577285,-0.10948 -0.893086,-0.10948 z m 9.877905,12.7795967 c -0.144449,0.002 -0.14653,0.02633 -0.124843,0.08835 0.07575,0.216463 0.159408,0.80091 0.159408,1.020276 v 0.228558 l 0.470561,0.06915 c 0.569059,0.08454 1.236176,0.27832 1.703615,0.495529 0.190251,0.08842 0.359647,0.161806 0.378369,0.163255 0.01875,0.0014 0.08612,-0.148593 0.147887,-0.334191 0.09647,-0.28987 0.102023,-0.372979 0.03841,-0.587722 -0.109029,-0.368158 -0.257207,-0.562144 -0.526258,-0.695274 -0.309892,-0.153332 -1.05169,-0.387175 -1.809253,-0.428714 -0.214311,-0.01171 -0.351238,-0.02046 -0.437907,-0.0192 z m -4.484719,0.983784 c -0.222769,0 -1.439261,0.217122 -2.143446,0.382209 -0.33063,0.07751 -0.830065,0.192577 -1.110135,0.257368 -0.28007,0.06478 -0.955447,0.233538 -1.500027,0.372605 -0.544583,0.139078 -1.193458,0.295222 -1.442409,0.347638 -0.486495,0.102432 -0.763887,0.193285 -0.762499,0.251605 0.002,0.09805 0.304031,0.355321 0.416781,0.355321 0.02872,0 0.576514,-0.07835 1.217692,-0.172863 1.802621,-0.265728 5.09143,-0.631755 5.73122,-0.637655 0.02195,-2.33e-4 0.0052,-0.102525 -0.03841,-0.228558 -0.0435,-0.126033 -0.110924,-0.386041 -0.147886,-0.578115 -0.06266,-0.325562 -0.07612,-0.349558 -0.220877,-0.349558 z"
       id="path8" />
  </g>
</svg>
