<?xml version="1.0" encoding="UTF-8" standalone="no"?>
<svg
   width="128"
   height="128"
   viewBox="0 0 33.866666 33.866668"
   version="1.1"
   id="svg1015"
   inkscape:version="1.1.2 (0a00cf5339, 2022-02-04)"
   sodipodi:docname="moneydance.svg"
   xmlns:inkscape="http://www.inkscape.org/namespaces/inkscape"
   xmlns:sodipodi="http://sodipodi.sourceforge.net/DTD/sodipodi-0.dtd"
   xmlns:xlink="http://www.w3.org/1999/xlink"
   xmlns="http://www.w3.org/2000/svg"
   xmlns:svg="http://www.w3.org/2000/svg"
   xmlns:rdf="http://www.w3.org/1999/02/22-rdf-syntax-ns#"
   xmlns:cc="http://creativecommons.org/ns#"
   xmlns:dc="http://purl.org/dc/elements/1.1/">
  <defs
     id="defs1009">
    <linearGradient
       inkscape:collect="always"
       id="linearGradient873">
      <stop
         style="stop-color:#0b0b0b;stop-opacity:1;"
         offset="0"
         id="stop869" />
      <stop
         style="stop-color:#0b0b0b;stop-opacity:0.85882353;"
         offset="0.68076366"
         id="stop878" />
      <stop
         style="stop-color:#0b0b0b;stop-opacity:0.83137255;"
         offset="0.69925421"
         id="stop888" />
      <stop
         style="stop-color:#0b0b0b;stop-opacity:0.80392157;"
         offset="0.71879315"
         id="stop890" />
      <stop
         style="stop-color:#0b0b0b;stop-opacity:0.78039216;"
         offset="0.73593426"
         id="stop892" />
      <stop
         style="stop-color:#0b0b0b;stop-opacity:0.75686275;"
         offset="0.75022364"
         id="stop894" />
      <stop
         style="stop-color:#0b0b0b;stop-opacity:0.73333333;"
         offset="0.76798755"
         id="stop896" />
      <stop
         style="stop-color:#0b0b0b;stop-opacity:0.08235294;"
         offset="0.9150058"
         id="stop919" />
      <stop
         style="stop-color:#0b0b0b;stop-opacity:0.07058824;"
         offset="0.92246956"
         id="stop917" />
      <stop
         style="stop-color:#0b0b0b;stop-opacity:0.05882353;"
         offset="0.92918676"
         id="stop915" />
      <stop
         style="stop-color:#0b0b0b;stop-opacity:0.04705882;"
         offset="0.93840873"
         id="stop912" />
      <stop
         style="stop-color:#0b0b0b;stop-opacity:0.03137255;"
         offset="0.94760686"
         id="stop910" />
      <stop
         style="stop-color:#0b0b0b;stop-opacity:0.02352941;"
         offset="0.95380515"
         id="stop908" />
      <stop
         style="stop-color:#0b0b0b;stop-opacity:0.01568627;"
         offset="0.95886087"
         id="stop906" />
      <stop
         style="stop-color:#0b0b0b;stop-opacity:0.01176471;"
         offset="0.96356124"
         id="stop904" />
      <stop
         style="stop-color:#0b0b0b;stop-opacity:0.00784314;"
         offset="0.96845078"
         id="stop902" />
      <stop
         style="stop-color:#0b0b0b;stop-opacity:0.00392157;"
         offset="0.97347641"
         id="stop900" />
      <stop
         style="stop-color:#0b0b0b;stop-opacity:0;"
         offset="0.97812337"
         id="stop886" />
      <stop
         style="stop-color:#0b0b0b;stop-opacity:0;"
         offset="0.98456311"
         id="stop884" />
      <stop
         style="stop-color:#0b0b0b;stop-opacity:0;"
         offset="0.98700982"
         id="stop882" />
      <stop
         style="stop-color:#0b0b0b;stop-opacity:0;"
         offset="0.98924524"
         id="stop880" />
      <stop
         style="stop-color:#0b0b0b;stop-opacity:0;"
         offset="1"
         id="stop871" />
    </linearGradient>
    <linearGradient
       inkscape:collect="always"
       xlink:href="#linearGradient895"
       id="linearGradient897"
       x1="2685.9844"
       y1="1088.7905"
       x2="2685.9844"
       y2="1770.3615"
       gradientUnits="userSpaceOnUse"
       gradientTransform="matrix(0.04277854,0,0,0.04277854,-95.919086,-44.867312)" />
    <linearGradient
       inkscape:collect="always"
       id="linearGradient895">
      <stop
         style="stop-color:#ffcc60;stop-opacity:1"
         offset="0"
         id="stop891" />
      <stop
         style="stop-color:#ff0202;stop-opacity:1"
         offset="1"
         id="stop893" />
    </linearGradient>
    <linearGradient
       inkscape:collect="always"
       id="linearGradient879">
      <stop
         style="stop-color:#ffb648;stop-opacity:1"
         offset="0"
         id="stop875" />
      <stop
         style="stop-color:#ff332b;stop-opacity:1"
         offset="1"
         id="stop877" />
    </linearGradient>
    <radialGradient
       inkscape:collect="always"
       xlink:href="#linearGradient873"
       id="radialGradient898"
       gradientUnits="userSpaceOnUse"
       cx="60.636452"
       cy="20.456388"
       fx="60.636452"
       fy="20.456388"
       r="17.303919"
       gradientTransform="translate(-43.433354,-3.9448764)" />
    <radialGradient
       inkscape:collect="always"
       xlink:href="#linearGradient879"
       id="radialGradient993"
       cx="16.968126"
       cy="3.7658708"
       fx="16.968126"
       fy="3.7658708"
       r="13.695572"
       gradientUnits="userSpaceOnUse"
       gradientTransform="matrix(4.8885673,0,0,1.8641486,-65.723642,-2.4382716)" />
    <linearGradient
       id="b"
       x2="1"
       gradientTransform="matrix(0.10138208,-17.338417,17.338417,0.10138208,16.113103,25.29877)"
       gradientUnits="userSpaceOnUse"
       x1="-1.2255912"
       y1="0.013013591"
       y2="1.110223e-16">
      <stop
         stop-color="#c9cfe5"
         offset="0"
         id="stop7"
         style="stop-color:#c22aff;stop-opacity:1" />
      <stop
         stop-color="#fff"
         offset="1"
         id="stop9" />
    </linearGradient>
  </defs>
  <sodipodi:namedview
     id="base"
     pagecolor="#ffffff"
     bordercolor="#666666"
     borderopacity="1.0"
     inkscape:pageopacity="0.0"
     inkscape:pageshadow="2"
     inkscape:zoom="2.8"
     inkscape:cx="55.357143"
     inkscape:cy="61.25"
     inkscape:document-units="mm"
     inkscape:current-layer="layer1"
     inkscape:document-rotation="0"
     showgrid="false"
     units="px"
     inkscape:window-width="1920"
     inkscape:window-height="1028"
     inkscape:window-x="0"
     inkscape:window-y="26"
     inkscape:window-maximized="1"
     inkscape:pagecheckerboard="0" />
  <metadata
     id="metadata1012">
    <rdf:RDF>
      <cc:Work
         rdf:about="">
        <dc:format>image/svg+xml</dc:format>
        <dc:type
           rdf:resource="http://purl.org/dc/dcmitype/StillImage" />
      </cc:Work>
    </rdf:RDF>
  </metadata>
  <g
     inkscape:label="Capa 1"
     inkscape:groupmode="layer"
     id="layer1">
    <circle
       style="opacity:0.309726;fill:url(#radialGradient898);fill-opacity:1;stroke-width:3;stroke-linecap:square;stroke-linejoin:round"
       id="path867"
       cx="17.203098"
       cy="16.511513"
       r="17.303919" />
    <circle
       style="fill:url(#linearGradient897);fill-opacity:1;stroke:#b1aaaa;stroke-width:0.0575565;stroke-linecap:square;stroke-opacity:0.992157"
       id="circle839"
       cx="17.203098"
       cy="16.511513"
       r="15.118138" />
    <circle
       style="fill:url(#radialGradient993);fill-opacity:1;stroke:none;stroke-width:0.0498826;stroke-linecap:square;stroke-opacity:1"
       id="circle839-3"
       cx="17.203098"
       cy="16.511513"
       r="13.102469" />
    <path
       style="opacity:0.2;stroke-width:0.485763"
       d="m 20.215098,8.5324469 a 5.8291601,1.9430533 0 0 0 -5.829159,1.9430541 5.8291601,1.9430533 0 0 0 5.829159,1.943054 5.8291601,1.9430533 0 0 0 5.829161,-1.943054 5.8291601,1.9430533 0 0 0 -5.829161,-1.9430541 z m 5.637512,3.3984471 a 5.8291601,1.9430533 0 0 1 -5.637512,1.459188 5.8291601,1.9430533 0 0 1 -5.63751,-1.455393 5.8291601,1.9430533 0 0 0 -0.191649,0.483866 5.8291601,1.9430533 0 0 0 5.829159,1.943052 5.8291601,1.9430533 0 0 0 5.829161,-1.943052 5.8291601,1.9430533 0 0 0 -0.191649,-0.487661 z m 0,1.943052 a 5.8291601,1.9430533 0 0 1 -5.637512,1.459188 5.8291601,1.9430533 0 0 1 -5.63751,-1.455393 5.8291601,1.9430533 0 0 0 -0.191649,0.483866 5.8291601,1.9430533 0 0 0 0.840597,0.999991 c 1.766067,0.08579 3.263713,0.430557 4.14417,0.920293 a 5.8291601,1.9430533 0 0 0 0.844392,0.02277 5.8291601,1.9430533 0 0 0 5.829161,-1.943054 5.8291601,1.9430533 0 0 0 -0.191649,-0.487661 z m 0,1.943055 a 5.8291601,1.9430533 0 0 1 -5.637512,1.459186 c 0,0 7e-5,0.708518 0,0.971527 a 5.8291601,1.9430533 0 0 0 5.829161,-1.943052 5.8291601,1.9430533 0 0 0 -0.191649,-0.487661 z m 0,1.943052 a 5.8291601,1.9430533 0 0 1 -5.637512,1.459188 c -9e-5,0.422645 7e-5,0.492621 0,0.971527 a 5.8291601,1.9430533 0 0 0 5.829161,-1.943054 5.8291601,1.9430533 0 0 0 -0.191649,-0.487661 z m 0,1.943054 a 5.8291601,1.9430533 0 0 1 -5.637512,1.459188 c 0,0.431788 -1.14e-4,0.690225 0,0.971527 a 5.8291601,1.9430533 0 0 0 5.829161,-1.943054 5.8291601,1.9430533 0 0 0 -0.191649,-0.487661 z m 0,1.943054 a 5.8291601,1.9430533 0 0 1 -5.637512,1.459186 c 0,0.347091 -0.29582,0.668637 -0.774184,0.950655 a 5.8291601,1.9430533 0 0 0 0.774184,0.02088 5.8291601,1.9430533 0 0 0 5.829161,-1.943052 5.8291601,1.9430533 0 0 0 -0.191649,-0.487663 z"
       id="path6" />
    <path
       style="opacity:0.2;stroke-width:0.485763"
       d="m 14.385939,15.333134 a 5.8291601,1.9430533 0 0 0 -5.8291582,1.943053 5.8291601,1.9430533 0 0 0 5.8291582,1.943054 5.8291601,1.9430533 0 0 0 5.829159,-1.943054 5.8291601,1.9430533 0 0 0 -5.829159,-1.943053 z m 5.637511,3.398446 a 5.8291601,1.9430533 0 0 1 -5.637511,1.459188 5.8291601,1.9430533 0 0 1 -5.6375099,-1.455393 5.8291601,1.9430533 0 0 0 -0.1916482,0.483866 5.8291601,1.9430533 0 0 0 5.8291581,1.943054 5.8291601,1.9430533 0 0 0 5.829159,-1.943054 5.8291601,1.9430533 0 0 0 -0.191648,-0.487661 z m 0,1.943054 a 5.8291601,1.9430533 0 0 1 -5.637511,1.459188 5.8291601,1.9430533 0 0 1 -5.6375099,-1.455393 5.8291601,1.9430533 0 0 0 -0.1916482,0.483866 5.8291601,1.9430533 0 0 0 5.8291581,1.943052 5.8291601,1.9430533 0 0 0 5.829159,-1.943052 5.8291601,1.9430533 0 0 0 -0.191648,-0.487661 z m 0,1.943052 A 5.8291601,1.9430533 0 0 1 14.385939,24.076875 5.8291601,1.9430533 0 0 1 8.7484291,22.621481 5.8291601,1.9430533 0 0 0 8.5567809,23.105347 5.8291601,1.9430533 0 0 0 14.385939,25.0484 5.8291601,1.9430533 0 0 0 20.215098,23.105347 5.8291601,1.9430533 0 0 0 20.02345,22.617686 Z"
       id="path8" />
    <path
       style="fill:#ffd8c6;stroke-width:0.485763"
       d="M 20.215098,8.0466841 A 5.8291601,1.9430533 0 0 0 14.385939,9.989737 5.8291601,1.9430533 0 0 0 20.215098,11.932792 5.8291601,1.9430533 0 0 0 26.044259,9.989737 5.8291601,1.9430533 0 0 0 20.215098,8.0466841 Z M 25.85261,11.44513 a 5.8291601,1.9430533 0 0 1 -5.637512,1.459187 5.8291601,1.9430533 0 0 1 -5.63751,-1.455392 5.8291601,1.9430533 0 0 0 -0.191649,0.483867 5.8291601,1.9430533 0 0 0 5.829159,1.943052 5.8291601,1.9430533 0 0 0 5.829161,-1.943052 5.8291601,1.9430533 0 0 0 -0.191649,-0.487662 z m 0,1.943053 a 5.8291601,1.9430533 0 0 1 -5.637512,1.459188 5.8291601,1.9430533 0 0 1 -5.63751,-1.455393 5.8291601,1.9430533 0 0 0 -0.191649,0.483866 5.8291601,1.9430533 0 0 0 0.840597,0.99999 c 1.766067,0.08577 3.263713,0.430558 4.14417,0.920293 a 5.8291601,1.9430533 0 0 0 0.844392,0.02277 5.8291601,1.9430533 0 0 0 5.829161,-1.943054 5.8291601,1.9430533 0 0 0 -0.191649,-0.48766 z m 0,1.943053 a 5.8291601,1.9430533 0 0 1 -5.637512,1.459189 c 0,0 7e-5,0.708517 0,0.971527 a 5.8291601,1.9430533 0 0 0 5.829161,-1.943054 5.8291601,1.9430533 0 0 0 -0.191649,-0.487662 z m 0,1.943055 a 5.8291601,1.9430533 0 0 1 -5.637512,1.459186 c -9e-5,0.422647 7e-5,0.492622 0,0.971528 a 5.8291601,1.9430533 0 0 0 5.829161,-1.943053 5.8291601,1.9430533 0 0 0 -0.191649,-0.487661 z m 0,1.943052 a 5.8291601,1.9430533 0 0 1 -5.637512,1.459189 c 0,0.431787 -1.14e-4,0.690226 0,0.971525 a 5.8291601,1.9430533 0 0 0 5.829161,-1.943052 5.8291601,1.9430533 0 0 0 -0.191649,-0.487662 z m 0,1.943053 a 5.8291601,1.9430533 0 0 1 -5.637512,1.459188 c 0,0.347091 -0.29582,0.668635 -0.774184,0.950654 a 5.8291601,1.9430533 0 0 0 0.774184,0.02088 5.8291601,1.9430533 0 0 0 5.829161,-1.943054 5.8291601,1.9430533 0 0 0 -0.191649,-0.487661 z"
       id="path10" />
    <path
       style="fill:#ffffff;stroke-width:0.485763"
       d="m 14.385939,14.847371 a 5.8291601,1.9430533 0 0 0 -5.8291581,1.943054 5.8291601,1.9430533 0 0 0 5.8291581,1.943052 5.8291601,1.9430533 0 0 0 5.829159,-1.943052 5.8291601,1.9430533 0 0 0 -5.829159,-1.943054 z m 5.637511,3.398445 a 5.8291601,1.9430533 0 0 1 -5.637511,1.459189 5.8291601,1.9430533 0 0 1 -5.6375099,-1.455394 5.8291601,1.9430533 0 0 0 -0.1916482,0.483866 5.8291601,1.9430533 0 0 0 5.8291581,1.943055 5.8291601,1.9430533 0 0 0 5.829159,-1.943055 5.8291601,1.9430533 0 0 0 -0.191648,-0.487661 z m 0,1.943055 a 5.8291601,1.9430533 0 0 1 -5.637511,1.459186 5.8291601,1.9430533 0 0 1 -5.6375099,-1.455391 5.8291601,1.9430533 0 0 0 -0.1916482,0.483866 5.8291601,1.9430533 0 0 0 5.8291581,1.943052 5.8291601,1.9430533 0 0 0 5.829159,-1.943052 5.8291601,1.9430533 0 0 0 -0.191648,-0.487661 z m 0,1.943052 a 5.8291601,1.9430533 0 0 1 -5.637511,1.459189 5.8291601,1.9430533 0 0 1 -5.6375099,-1.455394 5.8291601,1.9430533 0 0 0 -0.1916482,0.483866 5.8291601,1.9430533 0 0 0 5.8291581,1.943053 5.8291601,1.9430533 0 0 0 5.829159,-1.943053 5.8291601,1.9430533 0 0 0 -0.191648,-0.487661 z"
       id="path12" />
  </g>
</svg>
