<?xml version="1.0" encoding="UTF-8" standalone="no"?>
<svg
   width="128"
   height="128"
   viewBox="0 0 33.866666 33.866668"
   version="1.1"
   id="svg1015"
   inkscape:version="1.1.2 (0a00cf5339, 2022-02-04)"
   sodipodi:docname="mstdn.svg"
   xmlns:inkscape="http://www.inkscape.org/namespaces/inkscape"
   xmlns:sodipodi="http://sodipodi.sourceforge.net/DTD/sodipodi-0.dtd"
   xmlns:xlink="http://www.w3.org/1999/xlink"
   xmlns="http://www.w3.org/2000/svg"
   xmlns:svg="http://www.w3.org/2000/svg"
   xmlns:rdf="http://www.w3.org/1999/02/22-rdf-syntax-ns#"
   xmlns:cc="http://creativecommons.org/ns#"
   xmlns:dc="http://purl.org/dc/elements/1.1/">
  <defs
     id="defs1009">
    <linearGradient
       inkscape:collect="always"
       id="linearGradient873">
      <stop
         style="stop-color:#0b0b0b;stop-opacity:1;"
         offset="0"
         id="stop869" />
      <stop
         style="stop-color:#0b0b0b;stop-opacity:0.85882353;"
         offset="0.68076366"
         id="stop878" />
      <stop
         style="stop-color:#0b0b0b;stop-opacity:0.83137255;"
         offset="0.69925421"
         id="stop888" />
      <stop
         style="stop-color:#0b0b0b;stop-opacity:0.80392157;"
         offset="0.71879315"
         id="stop890" />
      <stop
         style="stop-color:#0b0b0b;stop-opacity:0.78039216;"
         offset="0.73593426"
         id="stop892" />
      <stop
         style="stop-color:#0b0b0b;stop-opacity:0.75686275;"
         offset="0.75022364"
         id="stop894" />
      <stop
         style="stop-color:#0b0b0b;stop-opacity:0.73333333;"
         offset="0.76798755"
         id="stop896" />
      <stop
         style="stop-color:#0b0b0b;stop-opacity:0.08235294;"
         offset="0.9150058"
         id="stop919" />
      <stop
         style="stop-color:#0b0b0b;stop-opacity:0.07058824;"
         offset="0.92246956"
         id="stop917" />
      <stop
         style="stop-color:#0b0b0b;stop-opacity:0.05882353;"
         offset="0.92918676"
         id="stop915" />
      <stop
         style="stop-color:#0b0b0b;stop-opacity:0.04705882;"
         offset="0.93840873"
         id="stop912" />
      <stop
         style="stop-color:#0b0b0b;stop-opacity:0.03137255;"
         offset="0.94760686"
         id="stop910" />
      <stop
         style="stop-color:#0b0b0b;stop-opacity:0.02352941;"
         offset="0.95380515"
         id="stop908" />
      <stop
         style="stop-color:#0b0b0b;stop-opacity:0.01568627;"
         offset="0.95886087"
         id="stop906" />
      <stop
         style="stop-color:#0b0b0b;stop-opacity:0.01176471;"
         offset="0.96356124"
         id="stop904" />
      <stop
         style="stop-color:#0b0b0b;stop-opacity:0.00784314;"
         offset="0.96845078"
         id="stop902" />
      <stop
         style="stop-color:#0b0b0b;stop-opacity:0.00392157;"
         offset="0.97347641"
         id="stop900" />
      <stop
         style="stop-color:#0b0b0b;stop-opacity:0;"
         offset="0.97812337"
         id="stop886" />
      <stop
         style="stop-color:#0b0b0b;stop-opacity:0;"
         offset="0.98456311"
         id="stop884" />
      <stop
         style="stop-color:#0b0b0b;stop-opacity:0;"
         offset="0.98700982"
         id="stop882" />
      <stop
         style="stop-color:#0b0b0b;stop-opacity:0;"
         offset="0.98924524"
         id="stop880" />
      <stop
         style="stop-color:#0b0b0b;stop-opacity:0;"
         offset="1"
         id="stop871" />
    </linearGradient>
    <linearGradient
       inkscape:collect="always"
       xlink:href="#linearGradient895"
       id="linearGradient897"
       x1="2685.9844"
       y1="1088.7905"
       x2="2685.9844"
       y2="1770.3615"
       gradientUnits="userSpaceOnUse"
       gradientTransform="matrix(0.04277854,0,0,0.04277854,-95.919086,-44.867312)" />
    <linearGradient
       inkscape:collect="always"
       id="linearGradient895">
      <stop
         style="stop-color:#6e91fe;stop-opacity:1"
         offset="0"
         id="stop891" />
      <stop
         style="stop-color:#3709c2;stop-opacity:1"
         offset="1"
         id="stop893" />
    </linearGradient>
    <linearGradient
       inkscape:collect="always"
       id="linearGradient879">
      <stop
         style="stop-color:#327dff;stop-opacity:1"
         offset="0"
         id="stop875" />
      <stop
         style="stop-color:#5600f2;stop-opacity:1"
         offset="1"
         id="stop877" />
    </linearGradient>
    <radialGradient
       inkscape:collect="always"
       xlink:href="#linearGradient873"
       id="radialGradient898"
       gradientUnits="userSpaceOnUse"
       cx="60.636452"
       cy="20.456388"
       fx="60.636452"
       fy="20.456388"
       r="17.303919"
       gradientTransform="translate(-43.433354,-3.9448764)" />
    <radialGradient
       inkscape:collect="always"
       xlink:href="#linearGradient879"
       id="radialGradient993"
       cx="16.968126"
       cy="4.670938"
       fx="16.968126"
       fy="4.670938"
       r="13.695572"
       gradientUnits="userSpaceOnUse"
       gradientTransform="matrix(4.8885673,0,0,1.8641486,-65.723642,-2.4382716)" />
    <linearGradient
       inkscape:collect="always"
       xlink:href="#linearGradient6114"
       id="linearGradient6116"
       x1="9.4962482"
       y1="17.417484"
       x2="9.4962482"
       y2="25.91803"
       gradientUnits="userSpaceOnUse"
       gradientTransform="translate(0.04890103,-0.22265789)" />
    <linearGradient
       inkscape:collect="always"
       id="linearGradient6114">
      <stop
         style="stop-color:#d9dbff;stop-opacity:1"
         offset="0"
         id="stop6110" />
      <stop
         style="stop-color:#c6c8ff;stop-opacity:1"
         offset="0.49662319"
         id="stop9800" />
      <stop
         style="stop-color:#aca6ff;stop-opacity:1"
         offset="1"
         id="stop6112" />
    </linearGradient>
    <linearGradient
       inkscape:collect="always"
       xlink:href="#linearGradient4137"
       id="linearGradient4139"
       x1="10.174986"
       y1="9.1216192"
       x2="10.174986"
       y2="48.085537"
       gradientUnits="userSpaceOnUse"
       gradientTransform="translate(0.04890103,-0.22265789)" />
    <linearGradient
       inkscape:collect="always"
       id="linearGradient4137">
      <stop
         style="stop-color:#ffffff;stop-opacity:1;"
         offset="0"
         id="stop4133" />
      <stop
         style="stop-color:#5057ff;stop-opacity:1"
         offset="1"
         id="stop4135" />
    </linearGradient>
    <linearGradient
       inkscape:collect="always"
       xlink:href="#linearGradient2626"
       id="linearGradient2628"
       x1="14.804594"
       y1="13.715449"
       x2="14.804594"
       y2="15.732658"
       gradientUnits="userSpaceOnUse"
       gradientTransform="translate(0.04890103,-0.22265789)" />
    <linearGradient
       inkscape:collect="always"
       id="linearGradient2626">
      <stop
         style="stop-color:#3d70ff;stop-opacity:1;"
         offset="0"
         id="stop2622" />
      <stop
         style="stop-color:#426aff;stop-opacity:1"
         offset="1"
         id="stop2624" />
    </linearGradient>
    <radialGradient
       inkscape:collect="always"
       xlink:href="#linearGradient17861"
       id="radialGradient17863"
       cx="16.046825"
       cy="15.654047"
       fx="16.046825"
       fy="15.654047"
       r="1.4804265"
       gradientUnits="userSpaceOnUse"
       gradientTransform="matrix(2.558424,0,0,1.858477,-24.958858,-13.661298)" />
    <linearGradient
       inkscape:collect="always"
       id="linearGradient17861">
      <stop
         style="stop-color:#000041;stop-opacity:0.01946607"
         offset="0"
         id="stop17857" />
      <stop
         style="stop-color:#000041;stop-opacity:1"
         offset="1"
         id="stop17859" />
    </linearGradient>
  </defs>
  <sodipodi:namedview
     id="base"
     pagecolor="#ffffff"
     bordercolor="#666666"
     borderopacity="1.0"
     inkscape:pageopacity="0.0"
     inkscape:pageshadow="2"
     inkscape:zoom="0.49497475"
     inkscape:cx="-644.47732"
     inkscape:cy="273.75134"
     inkscape:document-units="mm"
     inkscape:current-layer="layer1"
     inkscape:document-rotation="0"
     showgrid="false"
     units="px"
     inkscape:window-width="1920"
     inkscape:window-height="1028"
     inkscape:window-x="0"
     inkscape:window-y="26"
     inkscape:window-maximized="1"
     inkscape:pagecheckerboard="0" />
  <metadata
     id="metadata1012">
    <rdf:RDF>
      <cc:Work
         rdf:about="">
        <dc:format>image/svg+xml</dc:format>
        <dc:type
           rdf:resource="http://purl.org/dc/dcmitype/StillImage" />
      </cc:Work>
    </rdf:RDF>
  </metadata>
  <g
     inkscape:label="Capa 1"
     inkscape:groupmode="layer"
     id="layer1">
    <circle
       style="opacity:0.309726;fill:url(#radialGradient898);fill-opacity:1;stroke-width:3;stroke-linecap:square;stroke-linejoin:round"
       id="path867"
       cx="17.203098"
       cy="16.511513"
       r="17.303919" />
    <circle
       style="fill:url(#linearGradient897);fill-opacity:1;stroke:#b1aaaa;stroke-width:0.0575565;stroke-linecap:square;stroke-opacity:0.992157"
       id="circle839"
       cx="17.203098"
       cy="16.511513"
       r="15.118138" />
    <circle
       style="fill:url(#radialGradient993);fill-opacity:1;stroke:none;stroke-width:0.0498826;stroke-linecap:square;stroke-opacity:1"
       id="circle839-3"
       cx="17.203098"
       cy="16.511513"
       r="13.102469" />
    <path
       id="path952"
       style="fill:#0075ff;fill-opacity:0.0973405;stroke-width:0.660501"
       d="m 17.107263,7.4145641 c -0.384637,4.233e-4 -0.760951,0.040655 -1.124996,0.1162719 0.09999,-0.00551 0.200577,-0.00868 0.30179,-0.00878 3.079914,-2e-7 5.614128,2.53473 5.614128,5.614644 -0.0013,0.342139 -0.03426,0.683897 -0.09767,1.020092 0.142009,-0.0185 0.284564,-0.02815 0.427881,-0.02946 1.992731,0 3.632854,1.640123 3.632854,3.632853 0,1.694353 -1.18727,3.129729 -2.767273,3.522782 1.973364,-0.02327 3.590478,-1.652336 3.590478,-3.630786 0,-1.99273 -1.640122,-3.632853 -3.632853,-3.632853 -0.143317,0.0013 -0.285872,0.01147 -0.427881,0.02997 0.06341,-0.336195 0.09634,-0.67847 0.09767,-1.020609 0,-3.0799137 -2.534214,-5.6141272 -5.614128,-5.6141269 z m 0.168465,13.9769239 c 0,0 -0.158325,1.286414 -1.874304,2.527494 -0.53186,0.384755 -1.157241,0.605324 -1.786971,0.727088 0.887211,-0.06249 1.844845,-0.280924 2.610177,-0.834575 1.50599,-1.089206 1.797064,-2.161149 1.849499,-2.420007 z" />
    <g
       id="g18074"
       style="fill:#000041;fill-opacity:0.0701228"
       transform="translate(0.04890103,-0.22265789)">
      <path
         id="path17982"
         style="fill:#000041;fill-opacity:0.0701228;stroke-width:0.296926"
         d="m 15.184693,9.1950714 c -2.741685,0 -4.948535,2.2887816 -4.948535,5.1314696 v 2.802413 c 0,0.109115 0.0034,0.217143 0.0098,0.324528 0.05069,1.992244 0.329923,5.297558 1.572514,6.712768 1.271603,1.448253 4.23725,1.656747 5.435327,1.656747 2.129155,0 3.077848,-0.833541 3.077848,-0.833541 V 23.62003 c 0,0 -1.284218,0.44861 -2.800863,0.42168 -1.04149,-0.0185 -1.933415,-0.29207 -2.38125,-0.966866 -0.164463,-0.24781 -0.138083,-0.464946 -0.191202,-0.820622 0.07511,0.0035 0.150375,0.0057 0.226342,0.0057 h 4.949052 c 2.741686,0 4.948535,-2.288266 4.948535,-5.130953 v -2.802413 c 0,-2.842688 -2.206849,-5.1314696 -4.948535,-5.1314696 z" />
      <path
         id="path18061"
         style="fill:#000041;fill-opacity:0.0701228;stroke-width:0.296926"
         d="m 15.301898,9.3894045 c -2.741685,0 -4.948535,2.2887815 -4.948535,5.1314695 v 2.802413 c 0,0.109115 0.0034,0.217143 0.0098,0.324528 0.05069,1.992244 0.329923,5.297558 1.572514,6.712768 1.271603,1.448253 4.23725,1.656747 5.435327,1.656747 2.129155,0 3.077848,-0.833541 3.077848,-0.833541 v -1.369426 c 0,0 -1.284218,0.44861 -2.800863,0.42168 -1.04149,-0.0185 -1.933415,-0.29207 -2.38125,-0.966866 -0.164463,-0.24781 -0.138083,-0.464946 -0.191202,-0.820622 0.07511,0.0035 0.150375,0.0057 0.226342,0.0057 h 4.949052 c 2.741686,0 4.948535,-2.288266 4.948535,-5.130953 v -2.802413 c 0,-2.842688 -2.206849,-5.1314695 -4.948535,-5.1314695 z" />
      <path
         id="path18063"
         style="fill:#000041;fill-opacity:0.0701228;stroke-width:0.296926"
         d="m 15.359784,9.7560271 c -2.741685,0 -4.948535,2.2887819 -4.948535,5.1314699 v 2.802413 c 0,0.109115 0.0034,0.217143 0.0098,0.324528 0.05069,1.992244 0.329923,5.297558 1.572514,6.712768 1.271603,1.448253 4.23725,1.656747 5.435327,1.656747 2.129155,0 3.077848,-0.833541 3.077848,-0.833541 v -1.369426 c 0,0 -1.284218,0.44861 -2.800863,0.42168 -1.04149,-0.0185 -1.933415,-0.29207 -2.38125,-0.966866 -0.164463,-0.24781 -0.138083,-0.464946 -0.191202,-0.820622 0.07511,0.0035 0.150375,0.0057 0.226342,0.0057 h 4.949052 c 2.741686,0 4.948535,-2.288266 4.948535,-5.130953 v -2.802413 c 0,-2.842688 -2.206849,-5.1314699 -4.948535,-5.1314699 z" />
      <path
         id="path18065"
         style="fill:#000041;fill-opacity:0.0701228;stroke-width:0.296926"
         d="m 15.454322,10.120014 c -2.741685,0 -4.948535,2.288781 -4.948535,5.131469 v 2.802413 c 0,0.109115 0.0034,0.217143 0.0098,0.324528 0.05069,1.992244 0.329923,5.297558 1.572514,6.712768 1.271603,1.448253 4.23725,1.656747 5.435327,1.656747 2.129155,0 3.077848,-0.833541 3.077848,-0.833541 v -1.369426 c 0,0 -1.284218,0.44861 -2.800863,0.42168 -1.04149,-0.0185 -1.933415,-0.29207 -2.38125,-0.966866 -0.164463,-0.24781 -0.138083,-0.464946 -0.191202,-0.820622 0.07511,0.0035 0.150375,0.0057 0.226342,0.0057 h 4.949052 c 2.741686,0 4.948535,-2.288266 4.948535,-5.130953 v -2.802413 c 0,-2.842688 -2.206849,-5.131469 -4.948535,-5.131469 z" />
      <path
         id="path18067"
         style="fill:#000041;fill-opacity:0.0701228;stroke-width:0.296926"
         d="m 15.643761,10.509888 c -2.741685,0 -4.948535,2.288781 -4.948535,5.131469 v 2.802413 c 0,0.109115 0.0034,0.217143 0.0098,0.324528 0.05069,1.992244 0.329923,5.297558 1.572514,6.712768 1.271603,1.448253 4.23725,1.656747 5.435327,1.656747 2.129155,0 3.077848,-0.833541 3.077848,-0.833541 v -1.369426 c 0,0 -1.284218,0.44861 -2.800863,0.42168 -1.04149,-0.0185 -1.933415,-0.29207 -2.38125,-0.966866 -0.164463,-0.24781 -0.138083,-0.464946 -0.191202,-0.820622 0.07511,0.0035 0.150375,0.0057 0.226342,0.0057 h 4.949052 c 2.741686,0 4.948535,-2.288266 4.948535,-5.130953 v -2.802413 c 0,-2.842688 -2.206849,-5.131469 -4.948535,-5.131469 z" />
    </g>
    <path
       style="fill:url(#linearGradient6116);fill-opacity:1;stroke-width:0.296927"
       d="m 10.237584,15.550139 h 4.392366 c 0,0 -0.191864,3.943054 0.285635,6.235478 0.09642,0.462927 0.03213,0.707577 0.221617,0.993093 0.447835,0.674796 1.33992,0.947963 2.38141,0.966461 1.516645,0.02693 2.800811,-0.421701 2.800811,-0.421701 v 1.369637 c 0,0 -0.948524,0.833797 -3.077679,0.833797 -1.198077,0 -4.163752,-0.208538 -5.435355,-1.656791 -1.8369923,-2.092186 -1.568805,-8.319974 -1.568805,-8.319974 z"
       id="path6" />
    <rect
       style="fill:url(#linearGradient4139);fill-opacity:1;stroke-width:0.296927"
       width="14.846377"
       height="13.064812"
       x="10.223886"
       y="8.8989611"
       rx="4.9488916"
       ry="5.1312051"
       id="rect4" />
    <circle
       style="fill:#fbfbff;fill-opacity:1;stroke-width:0.507791"
       cx="15.02037"
       cy="14.289006"
       r="1.5233706"
       id="circle17763" />
    <circle
       style="fill:url(#linearGradient2628);fill-opacity:1;stroke-width:0.493476"
       cx="15.057958"
       cy="14.386741"
       r="1.4804265"
       id="circle10" />
    <circle
       style="opacity:0.455216;fill:url(#radialGradient17863);fill-opacity:1;stroke-width:0.493476"
       cx="15.057958"
       cy="14.386741"
       r="1.4804265"
       id="circle17819" />
  </g>
</svg>
