<?xml version="1.0" encoding="UTF-8" standalone="no"?>
<!-- Created with Inkscape (http://www.inkscape.org/) -->

<svg
   version="1.1"
   id="svg2"
   width="128"
   height="128"
   viewBox="0 0 128 128"
   sodipodi:docname="qv2ray.svg"
   inkscape:version="1.1.2 (0a00cf5339, 2022-02-04)"
   xmlns:inkscape="http://www.inkscape.org/namespaces/inkscape"
   xmlns:sodipodi="http://sodipodi.sourceforge.net/DTD/sodipodi-0.dtd"
   xmlns:xlink="http://www.w3.org/1999/xlink"
   xmlns="http://www.w3.org/2000/svg"
   xmlns:svg="http://www.w3.org/2000/svg"
   xmlns:rdf="http://www.w3.org/1999/02/22-rdf-syntax-ns#"
   xmlns:cc="http://creativecommons.org/ns#"
   xmlns:dc="http://purl.org/dc/elements/1.1/">
  <metadata
     id="metadata8">
    <rdf:RDF>
      <cc:Work
         rdf:about="">
        <dc:format>image/svg+xml</dc:format>
        <dc:type
           rdf:resource="http://purl.org/dc/dcmitype/StillImage" />
      </cc:Work>
    </rdf:RDF>
  </metadata>
  <defs
     id="defs6">
    <linearGradient
       inkscape:collect="always"
       id="linearGradient833">
      <stop
         style="stop-color:#dfe3e8;stop-opacity:1"
         offset="0"
         id="stop829" />
      <stop
         style="stop-color:#fefeff;stop-opacity:1"
         offset="1"
         id="stop831" />
    </linearGradient>
    <linearGradient
       inkscape:collect="always"
       id="linearGradient823">
      <stop
         style="stop-color:#ccd4da;stop-opacity:1"
         offset="0"
         id="stop819" />
      <stop
         style="stop-color:#ffffff;stop-opacity:1"
         offset="1"
         id="stop821" />
    </linearGradient>
    <linearGradient
       inkscape:collect="always"
       xlink:href="#linearGradient823"
       id="linearGradient825"
       x1="-741.83197"
       y1="959.04749"
       x2="-741.83197"
       y2="93.836403"
       gradientUnits="userSpaceOnUse"
       gradientTransform="matrix(0.13667801,0,0,0.13667801,162.31231,-5.989337)" />
    <linearGradient
       inkscape:collect="always"
       xlink:href="#linearGradient833"
       id="linearGradient835"
       x1="-738.76385"
       y1="931.43433"
       x2="-738.76385"
       y2="152.13077"
       gradientUnits="userSpaceOnUse"
       gradientTransform="matrix(0.13667801,0,0,0.13667801,162.31231,-5.989337)" />
    <linearGradient
       inkscape:collect="always"
       xlink:href="#linearGradient1209"
       id="linearGradient1211"
       x1="11.577075"
       y1="21.413792"
       x2="16.876566"
       y2="18.35413"
       gradientUnits="userSpaceOnUse"
       gradientTransform="matrix(3.7795276,0,0,3.7795276,2.1412857,-3.3339759)" />
    <linearGradient
       inkscape:collect="always"
       id="linearGradient1209">
      <stop
         style="stop-color:#0d55d3;stop-opacity:1;"
         offset="0"
         id="stop1205" />
      <stop
         style="stop-color:#083ebd;stop-opacity:1"
         offset="1"
         id="stop1207" />
    </linearGradient>
    <linearGradient
       inkscape:collect="always"
       xlink:href="#linearGradient1011"
       id="linearGradient1013"
       x1="9.819191"
       y1="13.978628"
       x2="7.7289023"
       y2="10.797752"
       gradientUnits="userSpaceOnUse"
       gradientTransform="matrix(3.7795276,0,0,3.7795276,2.1412857,-3.3339759)" />
    <linearGradient
       inkscape:collect="always"
       id="linearGradient1011">
      <stop
         style="stop-color:#ff5597;stop-opacity:1"
         offset="0"
         id="stop1007" />
      <stop
         style="stop-color:#ff9044;stop-opacity:1"
         offset="1"
         id="stop1009" />
    </linearGradient>
  </defs>
  <sodipodi:namedview
     pagecolor="#ffffff"
     bordercolor="#666666"
     borderopacity="1"
     objecttolerance="10"
     gridtolerance="10"
     guidetolerance="10"
     inkscape:pageopacity="0"
     inkscape:pageshadow="2"
     inkscape:window-width="1920"
     inkscape:window-height="1030"
     id="namedview4"
     showgrid="false"
     inkscape:zoom="3.6874999"
     inkscape:cx="61.966103"
     inkscape:cy="64.406781"
     inkscape:window-x="0"
     inkscape:window-y="24"
     inkscape:window-maximized="1"
     inkscape:current-layer="svg2"
     inkscape:pagecheckerboard="0" />
  <circle
     style="opacity:1;fill:url(#linearGradient825);fill-opacity:1;stroke:none;stroke-width:0.78699166;stroke-linecap:round;stroke-linejoin:round;stroke-miterlimit:4;stroke-dasharray:none;stroke-opacity:1"
     id="path817"
     cx="63.591888"
     cy="64.286316"
     r="61.380009" />
  <circle
     r="55.089832"
     cy="64.286316"
     cx="63.591888"
     id="circle827"
     style="opacity:1;fill:url(#linearGradient835);fill-opacity:1;stroke:none;stroke-width:0.70634133;stroke-linecap:round;stroke-linejoin:round;stroke-miterlimit:4;stroke-dasharray:none;stroke-opacity:1" />
  <path
     d="m 31.352885,37.476426 c -6.280982,0 -10.46831,6.280985 -10.46831,12.56197 0,4.187328 2.826623,10.468317 6.280986,10.468317 6.07789,-7.293472 8.649766,-10.338565 14.22627,-11.621462 -5.984453,6.785246 -10.038946,17.902443 -10.038946,17.902443 0,0 4.768835,-4.759192 17.055987,-5.990653 l -4.494014,5.990653 c 0,0 2.265151,0.477079 6.080622,1.750171 -0.593084,3.244921 -2.953599,10.295119 -12.361609,14.999127 12.115777,0 23.296935,-4.307074 29.785609,-7.397333 10.150942,5.397434 22.54605,13.668427 35.1179,26.240291 L 87.673205,69.351612 c 13.017735,5.715663 23.238835,12.091711 23.238835,12.091711 0,0 -23.133999,-23.130309 -44.228608,-33.146915 18.823038,1.86796 44.228608,11.163466 44.228608,11.163466 0,0 -35.592255,-21.983448 -79.559155,-21.983448 z"
     style="opacity:0.1;stroke-width:2.09366"
     id="path6" />
  <path
     d="m 50.195844,64.694036 c 0,0 0,10.468301 -12.561973,16.749287 18.842958,0 35.592256,-10.468302 35.592256,-10.468302 z"
     style="fill:url(#linearGradient1211);fill-opacity:1;stroke-width:2.09366"
     id="path8" />
  <path
     d="m 50.195844,64.694036 c 0,0 0,10.468301 -12.561973,16.749287 1.249203,0 2.486459,-0.05303 3.71298,-0.139049 8.825688,-6.249634 8.848993,-14.516591 8.848993,-14.516591 l 20.519516,5.598089 c 1.410233,-0.763374 2.510767,-1.410766 2.510767,-1.410766 z"
     style="opacity:0.1;fill:#ffffff;stroke-width:2.09366"
     id="path10" />
  <path
     d="m 50.195844,64.694036 c 0,0 -0.0049,1.492373 -0.678781,3.684359 3.756662,1.230305 9.202197,3.316018 15.739265,6.636737 4.869312,-2.156693 7.969821,-4.040111 7.969821,-4.040111 z"
     style="opacity:0.2;stroke-width:2.09366"
     id="path12" />
  <path
     d="m 43.914858,64.694036 c 0,0 28.892531,5.862252 58.622522,35.592244 L 83.694428,58.413051 50.195844,56.319385 Z"
     style="fill:#15a5ff;fill-opacity:1;stroke-width:2.09366"
     id="path14" />
  <path
     d="m 50.195844,56.319385 -6.280986,8.374651 c 0,0 0.468137,0.09691 1.328988,0.318992 l 4.951998,-6.599936 33.498584,2.093658 17.190932,38.205238 c 0.55146,0.535873 1.09983,1.022147 1.65202,1.574332 L 83.694428,58.413074 Z"
     style="opacity:0.2;fill:#ffffff;stroke-width:2.09366"
     id="path16" />
  <path
     d="m 50.195844,56.319385 -3.5167,4.690296 c 2.280333,-0.306973 4.827308,-0.502957 7.704023,-0.502957 10.710233,0 23.655644,4.531998 34.471817,9.376502 L 83.788485,58.625683 C 83.68024,58.548921 83.56984,58.473444 83.461329,58.396682 Z"
     style="opacity:0.2;stroke-width:2.09366"
     id="path18" />
  <path
     d="m 31.352885,64.694036 c 0,0 8.374645,-23.030283 18.842959,-23.030283 23.030283,0 60.716196,37.685912 60.716196,37.685912 0,0 -33.498597,-20.936614 -56.528873,-20.936614 -16.749296,0 -23.030282,6.280985 -23.030282,6.280985 z"
     style="fill:#9c2bff;fill-opacity:1;stroke-width:2.09366"
     id="path20" />
  <path
     d="m 50.195844,41.663753 c -10.468314,0 -18.842959,23.030283 -18.842959,23.030283 0,0 0.401984,-0.398736 1.263559,-0.993672 2.595099,-6.096083 9.356565,-19.942953 17.5794,-19.942953 17.545285,0 43.487581,21.783742 54.901376,32.20232 3.61298,2.021034 5.81482,3.389934 5.81482,3.389934 0,0 -37.685913,-37.685912 -60.716196,-37.685912 z"
     style="opacity:0.2;fill:#ffffff;stroke-width:2.09366"
     id="path22" />
  <path
     d="m 50.195844,41.663753 c -4.097741,0 -7.863258,3.539841 -10.942655,7.834881 4.183427,-1.552732 9.938812,-1.553896 21.410963,-1.553896 3.414569,0 7.246848,0.38671 11.224808,1.005937 -7.61435,-4.269816 -15.230313,-7.286922 -21.693116,-7.286922 z"
     style="opacity:0.2;stroke-width:2.09366"
     id="path24" />
  <path
     d="m 27.165561,58.413051 c -3.454363,0 -6.280986,-6.280985 -6.280986,-10.468313 0,-6.280985 4.187328,-12.56197 10.46831,-12.56197 43.9669,0 79.559145,21.983448 79.559145,21.983448 0,0 -31.404918,-11.515136 -50.247878,-11.515136 -23.030281,0 -23.030281,0 -33.498591,12.561971 z"
     style="fill:url(#linearGradient1013);fill-opacity:1;stroke-width:2.09366"
     id="path26" />
  <path
     d="m 31.352885,35.382768 c -6.280982,0 -10.46831,6.280985 -10.46831,12.56197 0,0.343257 0.04509,0.716844 0.08175,1.083636 0.421131,-5.925324 4.443954,-11.551948 10.386529,-11.551948 29.239947,0 54.704378,9.704205 68.530616,16.217707 6.56319,2.03712 11.02853,3.672083 11.02853,3.672083 0,0 -35.592251,-21.983448 -79.559146,-21.983448 z"
     style="opacity:0.2;fill:#ffffff;stroke-width:2.09366"
     id="path30" />
</svg>
