<?xml version="1.0" encoding="UTF-8" standalone="no"?>
<!-- Created with Inkscape (http://www.inkscape.org/) -->

<svg
   version="1.1"
   id="svg2"
   width="128"
   height="128"
   viewBox="0 0 128 128"
   sodipodi:docname="swatchbooker.svg"
   inkscape:version="1.1.2 (0a00cf5339, 2022-02-04)"
   xmlns:inkscape="http://www.inkscape.org/namespaces/inkscape"
   xmlns:sodipodi="http://sodipodi.sourceforge.net/DTD/sodipodi-0.dtd"
   xmlns:xlink="http://www.w3.org/1999/xlink"
   xmlns="http://www.w3.org/2000/svg"
   xmlns:svg="http://www.w3.org/2000/svg"
   xmlns:rdf="http://www.w3.org/1999/02/22-rdf-syntax-ns#"
   xmlns:cc="http://creativecommons.org/ns#"
   xmlns:dc="http://purl.org/dc/elements/1.1/">
  <metadata
     id="metadata8">
    <rdf:RDF>
      <cc:Work
         rdf:about="">
        <dc:format>image/svg+xml</dc:format>
        <dc:type
           rdf:resource="http://purl.org/dc/dcmitype/StillImage" />
      </cc:Work>
    </rdf:RDF>
  </metadata>
  <defs
     id="defs6">
    <linearGradient
       inkscape:collect="always"
       id="linearGradient833">
      <stop
         style="stop-color:#dfe3e8;stop-opacity:1"
         offset="0"
         id="stop829" />
      <stop
         style="stop-color:#fefeff;stop-opacity:1"
         offset="1"
         id="stop831" />
    </linearGradient>
    <linearGradient
       inkscape:collect="always"
       id="linearGradient823">
      <stop
         style="stop-color:#ccd4da;stop-opacity:1"
         offset="0"
         id="stop819" />
      <stop
         style="stop-color:#ffffff;stop-opacity:1"
         offset="1"
         id="stop821" />
    </linearGradient>
    <linearGradient
       inkscape:collect="always"
       xlink:href="#linearGradient823"
       id="linearGradient825"
       x1="-741.83197"
       y1="959.04749"
       x2="-741.83197"
       y2="93.836403"
       gradientUnits="userSpaceOnUse"
       gradientTransform="matrix(0.13667801,0,0,0.13667801,162.31231,-5.989337)" />
    <linearGradient
       inkscape:collect="always"
       xlink:href="#linearGradient833"
       id="linearGradient835"
       x1="-738.76385"
       y1="931.43433"
       x2="-738.76385"
       y2="152.13077"
       gradientUnits="userSpaceOnUse"
       gradientTransform="matrix(0.13667801,0,0,0.13667801,162.31231,-5.989337)" />
  </defs>
  <sodipodi:namedview
     pagecolor="#ffffff"
     bordercolor="#666666"
     borderopacity="1"
     objecttolerance="10"
     gridtolerance="10"
     guidetolerance="10"
     inkscape:pageopacity="0"
     inkscape:pageshadow="2"
     inkscape:window-width="1920"
     inkscape:window-height="1030"
     id="namedview4"
     showgrid="false"
     inkscape:zoom="3.6874999"
     inkscape:cx="61.966103"
     inkscape:cy="64.406781"
     inkscape:window-x="0"
     inkscape:window-y="24"
     inkscape:window-maximized="1"
     inkscape:current-layer="svg2"
     inkscape:pagecheckerboard="0" />
  <circle
     style="opacity:1;fill:url(#linearGradient825);fill-opacity:1;stroke:none;stroke-width:0.78699166;stroke-linecap:round;stroke-linejoin:round;stroke-miterlimit:4;stroke-dasharray:none;stroke-opacity:1"
     id="path817"
     cx="63.591888"
     cy="64.286316"
     r="61.380009" />
  <circle
     r="55.089832"
     cy="64.286316"
     cx="63.591888"
     id="circle827"
     style="opacity:1;fill:url(#linearGradient835);fill-opacity:1;stroke:none;stroke-width:0.70634133;stroke-linecap:round;stroke-linejoin:round;stroke-miterlimit:4;stroke-dasharray:none;stroke-opacity:1" />
  <path
     style="opacity:0.2;stroke-width:1.2359"
     d="m 63.388434,36.852547 c -3.93233,0.238035 -7.63584,2.349695 -9.732699,5.981552 l -22.4972,38.959749 c -1.093629,1.894224 -1.550304,3.961652 -1.544872,6.005692 h 19.716433 v 9.983731 c 1.280738,-0.94781 2.392535,-2.16362 3.239403,-3.63045 L 75.061872,55.193083 c 3.35497,-5.810978 1.28047,-13.246704 -4.649099,-16.670139 -2.22359,-1.283793 -4.664942,-1.813217 -7.024339,-1.670397 z"
     id="path2" />
  <path
     style="opacity:0.2;stroke-width:1.2359"
     d="m 81.444126,53.088381 c -2.338537,-0.185575 -4.743844,0.306066 -6.922957,1.564188 L 35.561421,77.144938 c -3.912391,2.258824 -6.005596,6.389957 -5.947758,10.654795 h 19.716433 v 9.940288 L 86.880145,76.058702 C 92.691123,72.703736 94.61474,65.231232 91.191305,59.301668 89.051661,55.59569 85.3417,53.397683 81.444126,53.088381 Z"
     id="path4" />
  <rect
     style="opacity:0.2;stroke-width:1.2359"
     width="69.210281"
     height="24.717955"
     x="29.555731"
     y="75.440712"
     rx="12.111799"
     ry="12.358977"
     id="rect6" />
  <path
     style="fill:#4f4f4f;stroke-width:1.2359"
     d="m 41.914708,29.712496 c -6.846873,0 -12.358978,5.402829 -12.358978,12.112761 v 44.738536 h 19.774366 v 9.896838 c 2.988711,-2.2067 4.943592,-5.684683 4.943592,-9.650624 v -44.98475 c 0,-6.709932 -5.512109,-12.112761 -12.35898,-12.112761 z"
     id="path8" />
  <path
     style="opacity:0.1;fill:#ffffff;stroke-width:1.2359"
     d="m 41.914708,29.712496 c -6.846873,0 -12.358978,5.402829 -12.358978,12.112761 v 1.235901 c 0,-6.709935 5.512105,-12.112766 12.358978,-12.112766 6.846871,0 12.35898,5.402831 12.35898,12.112766 v -1.235901 c 0,-6.709932 -5.512109,-12.112761 -12.35898,-12.112761 z"
     id="path10" />
  <path
     style="fill:#4d4e99;stroke-width:1.2359"
     d="m 63.388434,35.616808 c -3.93233,0.238035 -7.63584,2.349687 -9.732699,5.981548 l -22.4972,38.959745 c -1.093629,1.894224 -1.550304,3.961656 -1.544872,6.005692 h 19.716433 v 9.983738 c 1.280738,-0.94782 2.392535,-2.16363 3.239403,-3.63045 L 75.061872,53.957336 c 3.35497,-5.810978 1.28047,-13.246704 -4.649099,-16.670139 -2.22359,-1.283785 -4.664942,-1.813217 -7.024339,-1.670389 z"
     id="path12" />
  <path
     style="fill:#e74949;stroke-width:1.2359"
     d="m 81.444126,51.852445 c -2.338537,-0.185574 -4.743844,0.306067 -6.922957,1.564184 L 35.561421,75.909006 c -3.912391,2.258816 -6.005596,6.389957 -5.947758,10.654787 h 19.716433 v 9.940288 L 86.880145,74.822766 C 92.691123,71.467797 94.61474,63.995293 91.191305,58.065732 89.051661,54.35975 85.3417,52.161751 81.444126,51.852445 Z"
     id="path14" />
  <rect
     style="fill:#ffc255;stroke-width:1.2359"
     width="69.210281"
     height="24.717955"
     x="29.555731"
     y="74.204811"
     rx="12.111799"
     ry="12.358977"
     id="rect16" />
  <circle
     style="opacity:0.2;stroke-width:1.2359"
     cx="41.914707"
     cy="87.799698"
     r="4.9435911"
     id="circle18" />
  <circle
     style="fill:#ffffff;stroke-width:1.2359"
     cx="41.914707"
     cy="86.563789"
     r="4.9435911"
     id="circle20" />
  <path
     style="opacity:0.1;fill:#ffffff;stroke-width:1.2359"
     d="m 64.276733,35.59508 c -0.296882,-0.0033 -0.593374,0.0038 -0.888299,0.02192 -3.93233,0.238034 -7.63584,2.349691 -9.732699,5.981552 L 31.158535,80.5583 c -1.093629,1.894224 -1.550304,3.961652 -1.544872,6.005689 h 0.06759 c 0.149888,-1.63383 0.603752,-3.256789 1.477284,-4.769794 L 53.655735,42.834447 c 2.096859,-3.631865 5.800369,-5.74351 9.732699,-5.981552 2.359397,-0.142828 4.800749,0.386627 7.024339,1.670392 3.808154,2.198639 6.014385,6.052978 6.225351,10.068224 0.225381,-4.44559 -2.027255,-8.880314 -6.225351,-11.304087 -1.94564,-1.123314 -4.057731,-1.668908 -6.13604,-1.692114 z"
     id="path22" />
  <path
     style="opacity:0.1;fill:#ffffff;stroke-width:1.2359"
     d="m 80.56548,51.813822 c -2.056822,-0.01323 -4.137585,0.501959 -6.044311,1.602807 L 35.561421,75.909006 c -3.912391,2.258816 -6.005596,6.389957 -5.947758,10.654787 h 0.06276 c 0.322197,-3.812379 2.352581,-7.379448 5.885,-9.418893 L 74.521169,54.652527 c 2.179113,-1.258114 4.584412,-1.749766 6.922957,-1.564184 3.897574,0.309317 7.607535,2.507305 9.747179,6.213283 1.041199,1.803409 1.582167,3.750214 1.675222,5.679817 0.120605,-2.32538 -0.411057,-4.726099 -1.675222,-6.915711 -2.139644,-3.705982 -5.849605,-5.903981 -9.747179,-6.213287 -0.292309,-0.02343 -0.584814,-0.03704 -0.878646,-0.03878 z"
     id="path24" />
  <path
     style="opacity:0.1;fill:#ffffff;stroke-width:1.2359"
     d="m 41.668495,74.204817 c -6.709937,0 -12.112765,5.512105 -12.112765,12.358976 0,0.208668 0.02143,0.411852 0.03141,0.617949 0.315553,-6.555545 5.575953,-11.74103 12.081383,-11.74103 h 44.984735 c 6.505425,0 11.765824,5.185485 12.081381,11.74103 0.0098,-0.206097 0.03137,-0.409281 0.03137,-0.617949 0,-6.846871 -5.402831,-12.358976 -12.112762,-12.358976 z"
     id="path26" />
</svg>
