<?xml version="1.0" encoding="UTF-8" standalone="no"?>
<svg
   width="128"
   height="128"
   viewBox="0 0 33.866666 33.866668"
   version="1.1"
   id="svg1015"
   inkscape:version="1.1.2 (0a00cf5339, 2022-02-04)"
   sodipodi:docname="vitomu.svg"
   xmlns:inkscape="http://www.inkscape.org/namespaces/inkscape"
   xmlns:sodipodi="http://sodipodi.sourceforge.net/DTD/sodipodi-0.dtd"
   xmlns:xlink="http://www.w3.org/1999/xlink"
   xmlns="http://www.w3.org/2000/svg"
   xmlns:svg="http://www.w3.org/2000/svg"
   xmlns:rdf="http://www.w3.org/1999/02/22-rdf-syntax-ns#"
   xmlns:cc="http://creativecommons.org/ns#"
   xmlns:dc="http://purl.org/dc/elements/1.1/">
  <defs
     id="defs1009">
    <linearGradient
       inkscape:collect="always"
       id="linearGradient873">
      <stop
         style="stop-color:#0b0b0b;stop-opacity:1;"
         offset="0"
         id="stop869" />
      <stop
         style="stop-color:#0b0b0b;stop-opacity:0.85882353;"
         offset="0.68076366"
         id="stop878" />
      <stop
         style="stop-color:#0b0b0b;stop-opacity:0.83137255;"
         offset="0.69925421"
         id="stop888" />
      <stop
         style="stop-color:#0b0b0b;stop-opacity:0.80392157;"
         offset="0.71879315"
         id="stop890" />
      <stop
         style="stop-color:#0b0b0b;stop-opacity:0.78039216;"
         offset="0.73593426"
         id="stop892" />
      <stop
         style="stop-color:#0b0b0b;stop-opacity:0.75686275;"
         offset="0.75022364"
         id="stop894" />
      <stop
         style="stop-color:#0b0b0b;stop-opacity:0.73333333;"
         offset="0.76798755"
         id="stop896" />
      <stop
         style="stop-color:#0b0b0b;stop-opacity:0.08235294;"
         offset="0.9150058"
         id="stop919" />
      <stop
         style="stop-color:#0b0b0b;stop-opacity:0.07058824;"
         offset="0.92246956"
         id="stop917" />
      <stop
         style="stop-color:#0b0b0b;stop-opacity:0.05882353;"
         offset="0.92918676"
         id="stop915" />
      <stop
         style="stop-color:#0b0b0b;stop-opacity:0.04705882;"
         offset="0.93840873"
         id="stop912" />
      <stop
         style="stop-color:#0b0b0b;stop-opacity:0.03137255;"
         offset="0.94760686"
         id="stop910" />
      <stop
         style="stop-color:#0b0b0b;stop-opacity:0.02352941;"
         offset="0.95380515"
         id="stop908" />
      <stop
         style="stop-color:#0b0b0b;stop-opacity:0.01568627;"
         offset="0.95886087"
         id="stop906" />
      <stop
         style="stop-color:#0b0b0b;stop-opacity:0.01176471;"
         offset="0.96356124"
         id="stop904" />
      <stop
         style="stop-color:#0b0b0b;stop-opacity:0.00784314;"
         offset="0.96845078"
         id="stop902" />
      <stop
         style="stop-color:#0b0b0b;stop-opacity:0.00392157;"
         offset="0.97347641"
         id="stop900" />
      <stop
         style="stop-color:#0b0b0b;stop-opacity:0;"
         offset="0.97812337"
         id="stop886" />
      <stop
         style="stop-color:#0b0b0b;stop-opacity:0;"
         offset="0.98456311"
         id="stop884" />
      <stop
         style="stop-color:#0b0b0b;stop-opacity:0;"
         offset="0.98700982"
         id="stop882" />
      <stop
         style="stop-color:#0b0b0b;stop-opacity:0;"
         offset="0.98924524"
         id="stop880" />
      <stop
         style="stop-color:#0b0b0b;stop-opacity:0;"
         offset="1"
         id="stop871" />
    </linearGradient>
    <linearGradient
       inkscape:collect="always"
       id="linearGradient895">
      <stop
         style="stop-color:#fea9cd;stop-opacity:1"
         offset="0"
         id="stop891" />
      <stop
         style="stop-color:#c005be;stop-opacity:1"
         offset="1"
         id="stop893" />
    </linearGradient>
    <linearGradient
       inkscape:collect="always"
       id="linearGradient879">
      <stop
         style="stop-color:#ff90b7;stop-opacity:1"
         offset="0"
         id="stop875" />
      <stop
         style="stop-color:#e210e1;stop-opacity:1"
         offset="1"
         id="stop877" />
    </linearGradient>
    <radialGradient
       inkscape:collect="always"
       xlink:href="#linearGradient873"
       id="radialGradient898"
       gradientUnits="userSpaceOnUse"
       cx="60.636452"
       cy="20.456388"
       fx="60.636452"
       fy="20.456388"
       r="17.303919"
       gradientTransform="translate(-43.433354,-3.9448764)" />
    <radialGradient
       inkscape:collect="always"
       xlink:href="#linearGradient879"
       id="radialGradient993"
       cx="16.968126"
       cy="3.7658708"
       fx="16.968126"
       fy="3.7658708"
       r="13.695572"
       gradientUnits="userSpaceOnUse"
       gradientTransform="matrix(4.8885673,0,0,1.8641486,-65.723642,-2.4382716)" />
    <linearGradient
       id="b"
       x2="1"
       gradientTransform="matrix(0.10138208,-17.338417,17.338417,0.10138208,16.113103,25.29877)"
       gradientUnits="userSpaceOnUse"
       x1="-1.2255912"
       y1="0.013013591"
       y2="1.110223e-16">
      <stop
         stop-color="#c9cfe5"
         offset="0"
         id="stop7"
         style="stop-color:#c22aff;stop-opacity:1" />
      <stop
         stop-color="#fff"
         offset="1"
         id="stop9" />
    </linearGradient>
    <linearGradient
       inkscape:collect="always"
       xlink:href="#linearGradient895"
       id="linearGradient4782"
       gradientUnits="userSpaceOnUse"
       gradientTransform="matrix(0.04277854,0,0,0.04277854,-95.919086,-44.867312)"
       x1="2685.9844"
       y1="1088.7905"
       x2="2685.9844"
       y2="1770.3615" />
  </defs>
  <sodipodi:namedview
     id="base"
     pagecolor="#ffffff"
     bordercolor="#666666"
     borderopacity="1.0"
     inkscape:pageopacity="0.0"
     inkscape:pageshadow="2"
     inkscape:zoom="2.8"
     inkscape:cx="-43.571429"
     inkscape:cy="80.178571"
     inkscape:document-units="mm"
     inkscape:current-layer="layer1"
     inkscape:document-rotation="0"
     showgrid="false"
     units="px"
     inkscape:window-width="1920"
     inkscape:window-height="1030"
     inkscape:window-x="0"
     inkscape:window-y="24"
     inkscape:window-maximized="1"
     inkscape:pagecheckerboard="0"
     inkscape:lockguides="false" />
  <metadata
     id="metadata1012">
    <rdf:RDF>
      <cc:Work
         rdf:about="">
        <dc:format>image/svg+xml</dc:format>
        <dc:type
           rdf:resource="http://purl.org/dc/dcmitype/StillImage" />
      </cc:Work>
    </rdf:RDF>
  </metadata>
  <g
     inkscape:label="Capa 1"
     inkscape:groupmode="layer"
     id="layer1">
    <circle
       style="opacity:0.309726;fill:url(#radialGradient898);fill-opacity:1;stroke-width:3;stroke-linecap:square;stroke-linejoin:round"
       id="path867"
       cx="17.203098"
       cy="16.511513"
       r="17.303919" />
    <circle
       style="fill:url(#linearGradient4782);fill-opacity:1;stroke:#b1aaaa;stroke-width:0.0575565;stroke-linecap:square;stroke-opacity:0.992157"
       id="circle839"
       cx="17.203098"
       cy="16.511513"
       r="15.118138" />
    <circle
       style="fill:url(#radialGradient993);fill-opacity:1;stroke:none;stroke-width:0.0498826;stroke-linecap:square;stroke-opacity:1"
       id="circle839-3"
       cx="17.203098"
       cy="16.511513"
       r="13.102469" />
    <g
       id="g1246"
       style="fill:#2d0000;fill-opacity:0.0324282"
       transform="translate(-0.3185415,-0.22232566)">
      <path
         style="fill:#2d0000;fill-opacity:0.0324282;stroke-width:0.536954"
         d="m 17.263171,5.9673547 v 2.684771 c 0,0 -8.5912679,0.3221725 -8.5912679,8.5912683 0,2.147816 1.0739095,3.758678 1.0739095,3.758678 v -3.758678 c 0,-3.758681 4.5104154,-5.906497 7.5173584,-5.906497 h 5.369542 z m 7.517358,7.5173583 v 3.758681 c 0,3.758678 -4.510416,5.906495 -7.517358,5.906495 h -5.369543 l 5.369543,5.369541 v -2.68477 c 0,0 8.591267,-0.322172 8.591267,-8.591266 0,-2.147819 -1.073909,-3.758681 -1.073909,-3.758681 z m -9.12822,0.536956 v 6.44345 l 4.832587,-3.221725 z"
         id="path1138" />
      <path
         style="fill:#2d0000;fill-opacity:0.0324282;stroke-width:0.536954"
         d="m 17.334101,6.1908714 v 2.684771 c 0,0 -8.5912676,0.3221725 -8.5912676,8.5912686 0,2.147816 1.0739095,3.758678 1.0739095,3.758678 v -3.758678 c 0,-3.758681 4.5104151,-5.906497 7.5173581,-5.906497 h 5.369542 z m 7.517358,7.5173586 v 3.758681 c 0,3.758678 -4.510416,5.906495 -7.517358,5.906495 h -5.369543 l 5.369543,5.369541 v -2.68477 c 0,0 8.591267,-0.322172 8.591267,-8.591266 0,-2.147819 -1.073909,-3.758681 -1.073909,-3.758681 z m -9.12822,0.536956 v 6.44345 l 4.832587,-3.221725 z"
         id="path1230" />
      <path
         style="fill:#2d0000;fill-opacity:0.0324282;stroke-width:0.536954"
         d="m 17.36995,6.4365976 v 2.684771 c 0,0 -8.5912673,0.3221725 -8.5912673,8.5912684 0,2.147816 1.0739095,3.758678 1.0739095,3.758678 v -3.758678 c 0,-3.758681 4.5104148,-5.906497 7.5173578,-5.906497 h 5.369542 z m 7.517358,7.5173584 v 3.758681 c 0,3.758678 -4.510416,5.906495 -7.517358,5.906495 h -5.369543 l 5.369543,5.369541 v -2.68477 c 0,0 8.591267,-0.322172 8.591267,-8.591266 0,-2.147819 -1.073909,-3.758681 -1.073909,-3.758681 z m -9.12822,0.536956 v 6.44345 l 4.832587,-3.221725 z"
         id="path1232" />
      <path
         style="fill:#2d0000;fill-opacity:0.0324282;stroke-width:0.536954"
         d="m 17.400424,6.6039056 v 2.684771 c 0,0 -8.5912677,0.3221725 -8.5912677,8.5912684 0,2.147816 1.0739095,3.758678 1.0739095,3.758678 v -3.758678 c 0,-3.758681 4.5104152,-5.906497 7.5173582,-5.906497 h 5.369542 z m 7.517358,7.5173584 v 3.758681 c 0,3.758678 -4.510416,5.906495 -7.517358,5.906495 h -5.369543 l 5.369543,5.369541 v -2.68477 c 0,0 8.591267,-0.322172 8.591267,-8.591266 0,-2.147819 -1.073909,-3.758681 -1.073909,-3.758681 z m -9.12822,0.536956 v 6.44345 l 4.832587,-3.221725 z"
         id="path1234" />
      <path
         style="fill:#2d0000;fill-opacity:0.0324282;stroke-width:0.536954"
         d="m 17.400424,6.7823352 v 2.684771 c 0,0 -8.5912677,0.3221725 -8.5912677,8.5912688 0,2.147816 1.0739095,3.758678 1.0739095,3.758678 v -3.758678 c 0,-3.758681 4.5104152,-5.906497 7.5173582,-5.906497 h 5.369542 z m 7.517358,7.5173588 v 3.758681 c 0,3.758678 -4.510416,5.906495 -7.517358,5.906495 h -5.369543 l 5.369543,5.369541 v -2.68477 c 0,0 8.591267,-0.322172 8.591267,-8.591266 0,-2.147819 -1.073909,-3.758681 -1.073909,-3.758681 z m -9.12822,0.536956 v 6.44345 l 4.832587,-3.221725 z"
         id="path1236" />
      <path
         style="fill:#2d0000;fill-opacity:0.0324282;stroke-width:0.536954"
         d="m 17.449769,6.917195 v 2.684771 c 0,0 -8.5912674,0.3221725 -8.5912674,8.591269 0,2.147816 1.0739095,3.758678 1.0739095,3.758678 v -3.758678 c 0,-3.758681 4.5104149,-5.906497 7.5173579,-5.906497 h 5.369542 z m 7.517358,7.517359 v 3.758681 c 0,3.758678 -4.510416,5.906495 -7.517358,5.906495 h -5.369543 l 5.369543,5.369541 v -2.68477 c 0,0 8.591267,-0.322172 8.591267,-8.591266 0,-2.147819 -1.073909,-3.758681 -1.073909,-3.758681 z m -9.12822,0.536956 v 6.44345 l 4.832587,-3.221725 z"
         id="path1238" />
    </g>
    <path
       style="fill:#f9f9f9;stroke-width:0.536954"
       d="m 16.632596,5.5845273 v 2.684771 c 0,0 -8.5912667,0.3221725 -8.5912667,8.5912677 0,2.147816 1.073909,3.758678 1.073909,3.758678 v -3.758678 c 0,-3.758681 4.5104147,-5.906497 7.5173577,-5.906497 h 5.369542 z m 7.517358,7.5173577 v 3.758681 c 0,3.758678 -4.510416,5.906495 -7.517358,5.906495 h -5.369543 l 5.369543,5.369541 v -2.68477 c 0,0 8.591267,-0.322172 8.591267,-8.591266 0,-2.147819 -1.073909,-3.758681 -1.073909,-3.758681 z m -9.12822,0.536956 v 6.44345 l 4.832587,-3.221725 z"
       id="path10" />
  </g>
</svg>
