<?xml version="1.0" encoding="UTF-8" standalone="no"?>
<!-- Created with Inkscape (http://www.inkscape.org/) -->

<svg
   version="1.1"
   id="svg2"
   width="128"
   height="128"
   viewBox="0 0 128 128"
   sodipodi:docname="web-lounge.svg"
   inkscape:version="1.1.2 (0a00cf5339, 2022-02-04)"
   xmlns:inkscape="http://www.inkscape.org/namespaces/inkscape"
   xmlns:sodipodi="http://sodipodi.sourceforge.net/DTD/sodipodi-0.dtd"
   xmlns:xlink="http://www.w3.org/1999/xlink"
   xmlns="http://www.w3.org/2000/svg"
   xmlns:svg="http://www.w3.org/2000/svg"
   xmlns:rdf="http://www.w3.org/1999/02/22-rdf-syntax-ns#"
   xmlns:cc="http://creativecommons.org/ns#"
   xmlns:dc="http://purl.org/dc/elements/1.1/">
  <metadata
     id="metadata8">
    <rdf:RDF>
      <cc:Work
         rdf:about="">
        <dc:format>image/svg+xml</dc:format>
        <dc:type
           rdf:resource="http://purl.org/dc/dcmitype/StillImage" />
      </cc:Work>
    </rdf:RDF>
  </metadata>
  <defs
     id="defs6">
    <linearGradient
       inkscape:collect="always"
       id="linearGradient833">
      <stop
         style="stop-color:#dfe3e8;stop-opacity:1"
         offset="0"
         id="stop829" />
      <stop
         style="stop-color:#fefeff;stop-opacity:1"
         offset="1"
         id="stop831" />
    </linearGradient>
    <linearGradient
       inkscape:collect="always"
       id="linearGradient823">
      <stop
         style="stop-color:#ccd4da;stop-opacity:1"
         offset="0"
         id="stop819" />
      <stop
         style="stop-color:#ffffff;stop-opacity:1"
         offset="1"
         id="stop821" />
    </linearGradient>
    <linearGradient
       inkscape:collect="always"
       xlink:href="#linearGradient823"
       id="linearGradient825"
       x1="-741.83197"
       y1="959.04749"
       x2="-741.83197"
       y2="93.836403"
       gradientUnits="userSpaceOnUse"
       gradientTransform="matrix(0.13667801,0,0,0.13667801,162.31231,-5.989337)" />
    <linearGradient
       inkscape:collect="always"
       xlink:href="#linearGradient833"
       id="linearGradient835"
       x1="-738.76385"
       y1="931.43433"
       x2="-738.76385"
       y2="152.13077"
       gradientUnits="userSpaceOnUse"
       gradientTransform="matrix(0.13667801,0,0,0.13667801,162.31231,-5.989337)" />
  </defs>
  <sodipodi:namedview
     pagecolor="#ffffff"
     bordercolor="#666666"
     borderopacity="1"
     objecttolerance="10"
     gridtolerance="10"
     guidetolerance="10"
     inkscape:pageopacity="0"
     inkscape:pageshadow="2"
     inkscape:window-width="1920"
     inkscape:window-height="1030"
     id="namedview4"
     showgrid="false"
     inkscape:zoom="3.6874999"
     inkscape:cx="61.966103"
     inkscape:cy="64.406781"
     inkscape:window-x="0"
     inkscape:window-y="24"
     inkscape:window-maximized="1"
     inkscape:current-layer="svg2"
     inkscape:pagecheckerboard="0" />
  <circle
     style="opacity:1;fill:url(#linearGradient825);fill-opacity:1;stroke:none;stroke-width:0.78699166;stroke-linecap:round;stroke-linejoin:round;stroke-miterlimit:4;stroke-dasharray:none;stroke-opacity:1"
     id="path817"
     cx="63.591888"
     cy="64.286316"
     r="61.380009" />
  <circle
     r="55.089832"
     cy="64.286316"
     cx="63.591888"
     id="circle827"
     style="opacity:1;fill:url(#linearGradient835);fill-opacity:1;stroke:none;stroke-width:0.70634133;stroke-linecap:round;stroke-linejoin:round;stroke-miterlimit:4;stroke-dasharray:none;stroke-opacity:1" />
  <path
     style="opacity:0.2;stroke-width:2.17785"
     class="st0"
     d="m 45.550933,39.368436 c -0.558161,0 -1.122675,0.141241 -1.633391,0.421096 L 21.067107,52.329204 c -0.992253,0.559808 -1.603611,1.566894 -1.603611,2.658501 v 25.360067 c 0,1.091622 0.611337,2.126698 1.603611,2.658512 L 43.94731,95.571471 c 0.992254,0.5598 2.219833,0.5598 3.241262,0 l 10.591506,-5.818953 c 0.350249,-0.195893 0.350249,-0.701549 0,-0.89751 l -5.308516,-2.909476 c -0.175068,-0.08398 -0.381498,-0.08398 -0.52746,0 l -6.099685,3.356103 c -0.175105,0.08394 -0.377235,0.08394 -0.523173,0 L 26.116159,78.752679 c -0.204284,-0.05598 -0.704101,-0.421093 -0.501942,-0.421093 V 57.029473 c 0,-0.195892 0.326219,-0.362683 0.472145,-0.44663 l 19.20508,-10.553224 c 0.175068,-0.08394 0.377235,-0.08394 0.523177,0 l 19.600668,10.63829 c 0.175068,0.08398 0.165846,0.250734 0.165846,0.44663 v 18.698896 c 0,0.195892 0.21566,0.362645 0.361587,0.446623 l 4.972487,2.909465 c 0.350211,0.195893 0.816699,-0.05514 0.816699,-0.446623 V 55.072778 c 0,-1.091618 -0.611331,-2.130954 -1.603612,-2.662768 L 47.158759,39.789521 c -0.496097,-0.279836 -1.049722,-0.421092 -1.60786,-0.421092 z m 34.947712,0 c -0.557836,0 -1.118703,0.141317 -1.629139,0.421096 l -10.587247,5.818954 c -0.349984,0.195779 -0.349984,0.697432 0,0.893264 l 5.308513,2.909466 c 0.174992,0.08387 0.37731,0.08387 0.523177,0 l 6.095433,-3.356104 c 0.174993,-0.08394 0.381585,-0.08394 0.52746,0 l 19.192319,10.54472 c 0.204209,0.08387 0.497659,0.450909 0.497659,0.450909 v 21.289346 c 0,0.195817 -0.3264,0.362645 -0.472139,0.446626 L 80.762358,89.335689 c -0.174993,0.08398 -0.377311,0.08398 -0.523181,0 L 60.961794,78.701663 C 60.786802,78.617723 60.4601,78.450929 60.459854,78.255032 L 60.434154,59.5689 c -2.43e-4,-0.195817 -0.113575,-0.366954 -0.259427,-0.450909 l -5.049068,-2.909484 c -0.349984,-0.195779 -0.816703,0.05923 -0.816703,0.450909 v 23.637347 c 0,1.091086 0.611913,2.126956 1.603612,2.658512 l 22.956768,12.616226 c 0.991703,0.55956 2.216141,0.55956 3.23701,0 L 104.97379,83.010566 c 0.9917,-0.559563 1.60361,-1.567434 1.60361,-2.658505 V 55.009006 c 0,-1.09107 -0.61191,-2.126952 -1.60361,-2.658508 L 82.106467,39.789566 C 81.610616,39.509806 81.056428,39.36847 80.4986,39.36847 Z M 35.797386,65.50266 a 3.2667777,3.2667777 0 0 0 -3.266778,3.266778 3.2667777,3.2667777 0 0 0 3.266778,3.266778 3.2667777,3.2667777 0 0 0 3.266778,-3.266778 3.2667777,3.2667777 0 0 0 -3.266778,-3.266778 z m 10.889253,0 a 3.2667777,3.2667777 0 0 0 -3.266778,3.266778 3.2667777,3.2667777 0 0 0 3.266778,3.266778 3.2667777,3.2667777 0 0 0 3.266778,-3.266778 3.2667777,3.2667777 0 0 0 -3.266778,-3.266778 z m 32.667777,0 a 3.2667777,3.2667777 0 0 0 -3.266775,3.266778 3.2667777,3.2667777 0 0 0 3.266775,3.266778 3.2667777,3.2667777 0 0 0 3.266778,-3.266778 3.2667777,3.2667777 0 0 0 -3.266778,-3.266778 z m 10.889261,0 a 3.2667777,3.2667777 0 0 0 -3.266774,3.266778 3.2667777,3.2667777 0 0 0 3.266774,3.266778 3.2667777,3.2667777 0 0 0 3.266782,-3.266778 3.2667777,3.2667777 0 0 0 -3.266782,-3.266778 z"
     id="path6" />
  <path
     style="fill:#ff9e30;stroke-width:2.17785"
     class="st0"
     d="m 100.42814,54.870388 v 21.290003 c 0,0.195818 -0.32606,0.363629 -0.471819,0.447617 l -19.192319,10.54709 c -0.174992,0.08398 -0.379113,0.08398 -0.524992,0 L 60.960528,76.524084 c -0.174992,-0.08394 -0.502106,-0.251792 -0.502356,-0.447617 l -0.0223,-18.688192 c -2.46e-4,-0.195779 -0.116636,-0.363741 -0.262488,-0.447613 l -5.047616,-2.909533 c -0.349984,-0.195817 -0.816707,0.05597 -0.816707,0.447617 v 23.640019 c 0,1.091089 0.612488,2.1262 1.604221,2.657752 l 22.954949,12.617337 c 0.991695,0.559557 2.216735,0.559557 3.237604,0 L 104.97328,80.832466 c 0.99171,-0.559559 1.60423,-1.566675 1.60423,-2.657741 V 52.828139 c 0,-1.091078 -0.61249,-2.126203 -1.60423,-2.657756 L 82.105745,37.609002 c -0.991702,-0.559562 -2.216742,-0.559562 -3.237603,0 l -10.587871,5.819082 c -0.349984,0.195817 -0.349984,0.699409 0,0.895241 l 5.308517,2.909537 c 0.174992,0.08387 0.379113,0.08387 0.524991,0 l 6.096046,-3.357154 c 0.174992,-0.08398 0.379113,-0.08398 0.524991,0 l 19.192315,10.547078 c 0.204209,0.08387 0.500949,0.447617 0.500949,0.447617 z"
     id="path8" />
  <circle
     style="fill:#262c3f;fill-opacity:1;stroke-width:2.17785"
     class="st1"
     cx="90.243675"
     cy="66.59034"
     r="3.2667778"
     id="circle10" />
  <circle
     style="fill:#262c3f;fill-opacity:1;stroke-width:2.17785"
     class="st1"
     cx="79.354424"
     cy="66.59034"
     r="3.2667778"
     id="circle12" />
  <path
     style="fill:#262c3f;fill-opacity:1;stroke-width:2.17785"
     class="st1"
     d="m 25.612768,76.151668 -9e-6,-21.300525 c 0,-0.195931 0.329586,-0.363893 0.475522,-0.447863 L 45.291306,43.850975 c 0.175068,-0.08398 0.379366,-0.08398 0.525313,0 l 19.598793,10.636271 c 0.175068,0.08398 0.16732,0.251981 0.16732,0.447866 v 18.697441 c 0,0.195893 0.212031,0.363893 0.357959,0.447859 l 4.974077,2.910984 c 0.350173,0.195893 0.817115,-0.05597 0.817115,-0.447863 V 52.891824 c 0,-1.091618 -0.612896,-2.127258 -1.605116,-2.659064 L 47.159024,37.60918 c -0.992243,-0.559804 -2.217978,-0.559804 -3.239418,0 L 21.068598,50.148787 c -0.99226,0.559804 -1.605119,1.567453 -1.605119,2.65906 v 25.359111 c 0,1.091633 0.612816,2.127262 1.605119,2.659075 L 43.948803,93.39362 c 0.99225,0.559811 2.217985,0.559811 3.239418,0 l 10.593766,-5.821954 c 0.350249,-0.195893 0.350249,-0.699738 0,-0.895684 l -5.311476,-2.910981 c -0.175068,-0.08394 -0.37937,-0.08394 -0.52532,0 l -6.099447,3.358817 c -0.175068,0.08398 -0.37937,0.08398 -0.525321,0 L 26.117416,76.571521 C 25.913133,76.515541 25.4106,76.151623 25.612678,76.151623 Z"
     id="path14" />
  <circle
     style="fill:#ff9e30;stroke-width:2.17785"
     class="st0"
     cx="35.797382"
     cy="66.59034"
     r="3.2667778"
     id="circle16" />
  <circle
     style="fill:#ff9e30;stroke-width:2.17785"
     class="st0"
     cx="46.686642"
     cy="66.59034"
     r="3.2667778"
     id="circle18" />
</svg>
