<?xml version="1.0" encoding="UTF-8" standalone="no"?>
<svg
   width="128"
   height="128"
   viewBox="0 0 33.866666 33.866668"
   version="1.1"
   id="svg1015"
   inkscape:version="1.1.2 (0a00cf5339, 2022-02-04)"
   sodipodi:docname="whalebird.svg"
   xmlns:inkscape="http://www.inkscape.org/namespaces/inkscape"
   xmlns:sodipodi="http://sodipodi.sourceforge.net/DTD/sodipodi-0.dtd"
   xmlns:xlink="http://www.w3.org/1999/xlink"
   xmlns="http://www.w3.org/2000/svg"
   xmlns:svg="http://www.w3.org/2000/svg"
   xmlns:rdf="http://www.w3.org/1999/02/22-rdf-syntax-ns#"
   xmlns:cc="http://creativecommons.org/ns#"
   xmlns:dc="http://purl.org/dc/elements/1.1/">
  <defs
     id="defs1009">
    <linearGradient
       inkscape:collect="always"
       id="linearGradient873">
      <stop
         style="stop-color:#0b0b0b;stop-opacity:1;"
         offset="0"
         id="stop869" />
      <stop
         style="stop-color:#0b0b0b;stop-opacity:0.85882353;"
         offset="0.68076366"
         id="stop878" />
      <stop
         style="stop-color:#0b0b0b;stop-opacity:0.83137255;"
         offset="0.69925421"
         id="stop888" />
      <stop
         style="stop-color:#0b0b0b;stop-opacity:0.80392157;"
         offset="0.71879315"
         id="stop890" />
      <stop
         style="stop-color:#0b0b0b;stop-opacity:0.78039216;"
         offset="0.73593426"
         id="stop892" />
      <stop
         style="stop-color:#0b0b0b;stop-opacity:0.75686275;"
         offset="0.75022364"
         id="stop894" />
      <stop
         style="stop-color:#0b0b0b;stop-opacity:0.73333333;"
         offset="0.76798755"
         id="stop896" />
      <stop
         style="stop-color:#0b0b0b;stop-opacity:0.08235294;"
         offset="0.9150058"
         id="stop919" />
      <stop
         style="stop-color:#0b0b0b;stop-opacity:0.07058824;"
         offset="0.92246956"
         id="stop917" />
      <stop
         style="stop-color:#0b0b0b;stop-opacity:0.05882353;"
         offset="0.92918676"
         id="stop915" />
      <stop
         style="stop-color:#0b0b0b;stop-opacity:0.04705882;"
         offset="0.93840873"
         id="stop912" />
      <stop
         style="stop-color:#0b0b0b;stop-opacity:0.03137255;"
         offset="0.94760686"
         id="stop910" />
      <stop
         style="stop-color:#0b0b0b;stop-opacity:0.02352941;"
         offset="0.95380515"
         id="stop908" />
      <stop
         style="stop-color:#0b0b0b;stop-opacity:0.01568627;"
         offset="0.95886087"
         id="stop906" />
      <stop
         style="stop-color:#0b0b0b;stop-opacity:0.01176471;"
         offset="0.96356124"
         id="stop904" />
      <stop
         style="stop-color:#0b0b0b;stop-opacity:0.00784314;"
         offset="0.96845078"
         id="stop902" />
      <stop
         style="stop-color:#0b0b0b;stop-opacity:0.00392157;"
         offset="0.97347641"
         id="stop900" />
      <stop
         style="stop-color:#0b0b0b;stop-opacity:0;"
         offset="0.97812337"
         id="stop886" />
      <stop
         style="stop-color:#0b0b0b;stop-opacity:0;"
         offset="0.98456311"
         id="stop884" />
      <stop
         style="stop-color:#0b0b0b;stop-opacity:0;"
         offset="0.98700982"
         id="stop882" />
      <stop
         style="stop-color:#0b0b0b;stop-opacity:0;"
         offset="0.98924524"
         id="stop880" />
      <stop
         style="stop-color:#0b0b0b;stop-opacity:0;"
         offset="1"
         id="stop871" />
    </linearGradient>
    <linearGradient
       inkscape:collect="always"
       xlink:href="#linearGradient895"
       id="linearGradient897"
       x1="2685.9844"
       y1="1088.7905"
       x2="2685.9844"
       y2="1770.3615"
       gradientUnits="userSpaceOnUse"
       gradientTransform="matrix(0.04277854,0,0,0.04277854,-95.919086,-44.867312)" />
    <linearGradient
       inkscape:collect="always"
       id="linearGradient895">
      <stop
         style="stop-color:#6fe6ee;stop-opacity:1"
         offset="0"
         id="stop891" />
      <stop
         style="stop-color:#0da4c5;stop-opacity:1"
         offset="1"
         id="stop893" />
    </linearGradient>
    <linearGradient
       inkscape:collect="always"
       id="linearGradient879">
      <stop
         style="stop-color:#4eeef6;stop-opacity:1"
         offset="0"
         id="stop875" />
      <stop
         style="stop-color:#20add2;stop-opacity:1"
         offset="1"
         id="stop877" />
    </linearGradient>
    <radialGradient
       inkscape:collect="always"
       xlink:href="#linearGradient873"
       id="radialGradient898"
       gradientUnits="userSpaceOnUse"
       cx="60.636452"
       cy="20.456388"
       fx="60.636452"
       fy="20.456388"
       r="17.303919"
       gradientTransform="translate(-43.433354,-3.9448764)" />
    <radialGradient
       inkscape:collect="always"
       xlink:href="#linearGradient879"
       id="radialGradient993"
       cx="16.968126"
       cy="4.670938"
       fx="16.968126"
       fy="4.670938"
       r="13.695572"
       gradientUnits="userSpaceOnUse"
       gradientTransform="matrix(4.8885673,0,0,1.8641486,-65.723642,-2.4382716)" />
    <linearGradient
       inkscape:collect="always"
       xlink:href="#linearGradient1589"
       id="linearGradient1591"
       x1="8.0406513"
       y1="10.733815"
       x2="8.0406513"
       y2="43.592335"
       gradientUnits="userSpaceOnUse"
       gradientTransform="translate(0.07448785,-0.9528754)" />
    <linearGradient
       inkscape:collect="always"
       id="linearGradient1589">
      <stop
         style="stop-color:#ffffff;stop-opacity:1;"
         offset="0"
         id="stop1585" />
      <stop
         style="stop-color:#26b6d7;stop-opacity:1"
         offset="1"
         id="stop1587" />
    </linearGradient>
  </defs>
  <sodipodi:namedview
     id="base"
     pagecolor="#ffffff"
     bordercolor="#666666"
     borderopacity="1.0"
     inkscape:pageopacity="0.0"
     inkscape:pageshadow="2"
     inkscape:zoom="1.4"
     inkscape:cx="-128.57143"
     inkscape:cy="96.071428"
     inkscape:document-units="mm"
     inkscape:current-layer="layer1"
     inkscape:document-rotation="0"
     showgrid="false"
     units="px"
     inkscape:window-width="1920"
     inkscape:window-height="1028"
     inkscape:window-x="0"
     inkscape:window-y="26"
     inkscape:window-maximized="1"
     inkscape:pagecheckerboard="0" />
  <metadata
     id="metadata1012">
    <rdf:RDF>
      <cc:Work
         rdf:about="">
        <dc:format>image/svg+xml</dc:format>
        <dc:type
           rdf:resource="http://purl.org/dc/dcmitype/StillImage" />
      </cc:Work>
    </rdf:RDF>
  </metadata>
  <g
     inkscape:label="Capa 1"
     inkscape:groupmode="layer"
     id="layer1">
    <circle
       style="opacity:0.309726;fill:url(#radialGradient898);fill-opacity:1;stroke-width:3;stroke-linecap:square;stroke-linejoin:round"
       id="path867"
       cx="17.203098"
       cy="16.511513"
       r="17.303919" />
    <circle
       style="fill:url(#linearGradient897);fill-opacity:1;stroke:#b1aaaa;stroke-width:0.0575565;stroke-linecap:square;stroke-opacity:0.992157"
       id="circle839"
       cx="17.203098"
       cy="16.511513"
       r="15.118138" />
    <circle
       style="fill:url(#radialGradient993);fill-opacity:1;stroke:none;stroke-width:0.0498826;stroke-linecap:square;stroke-opacity:1"
       id="circle839-3"
       cx="17.203098"
       cy="16.511513"
       r="13.102469" />
    <path
       style="fill:#001358;fill-opacity:0.02935;stroke:none;stroke-width:0.8;stroke-miterlimit:4;stroke-dasharray:none;stroke-opacity:0.0340545;paint-order:stroke markers fill"
       d="m 20.767147,24.488084 c -0.336107,-0.167141 -0.709877,-0.445312 -0.877863,-0.653335 -0.386289,-0.478357 -0.509525,-0.74303 -0.873672,-0.466629 -0.474714,0.36033 -1.123897,0.549096 -1.72973,0.605449 -0.813364,0.07565 -0.878504,-0.0066 -0.561859,-0.708662 0.53967,-1.196712 0.540084,-1.847894 0.0011,-3.042744 -0.3678,-0.815594 -0.563116,-0.942163 -1.448077,-0.938388 -0.443058,0.0019 -1.167689,0.06895 -1.473624,0.174123 -0.547309,0.188156 -1.410518,0.489085 -1.491321,0.698636 -0.03025,0.07844 0.08097,0.241829 0.270384,0.397201 0.588236,0.482526 0.793658,1.299974 0.501529,1.995753 -0.132626,0.315876 -0.395152,0.628858 -0.527483,0.628858 -0.04126,0 -0.148012,-0.19023 -0.237238,-0.422732 -0.08923,-0.232502 -0.271074,-0.75328 -0.40411,-0.857419 -0.736283,-0.576353 -1.9933618,0.46867 -2.4321558,1.666274 -0.11323,0.309114 -0.249425,0.547584 -0.30263,0.529934 -0.208666,-0.06922 -0.363075,-0.774932 -0.324042,-1.48105 0.06018,-1.088679 0.631557,-1.997751 1.5826098,-2.517959 l 0.329784,-0.180387 0.10739,-1.080045 c 0.124587,-1.252982 0.30712,-1.942252 0.757461,-2.860266 0.735323,-1.498955 2.190456,-2.747013 3.650014,-3.442234 0.442365,-0.210711 0.910754,-0.435629 1.040863,-0.499821 0.173733,-0.08571 0.228371,-0.177947 0.205732,-0.347297 -0.04608,-0.344605 -0.453869,-1.196953 -0.727519,-1.520594 -0.303357,-0.3587712 -0.208606,-0.4958982 0.437998,-0.6338972 0.963559,-0.205646 1.948341,-0.06271 2.820603,0.380128 0.545577,0.2769852 1.355698,1.0636412 1.713975,1.6643352 0.26511,0.444484 0.397018,0.553976 1.110618,0.921886 3.399689,1.75277 4.816425,5.540918 3.581303,9.247675 -0.191453,0.574568 -0.468071,1.151067 -0.753706,1.570792 -0.718172,1.055388 -1.465074,1.463488 -2.678417,1.463488 -0.57367,0 -0.776126,-0.04647 -1.267994,-0.291073 z"
       id="path1564" />
    <path
       style="fill:#001358;fill-opacity:0.02935;stroke:none;stroke-width:0.8;stroke-miterlimit:4;stroke-dasharray:none;stroke-opacity:0.0340545;paint-order:stroke markers fill"
       d="m 20.820564,23.973001 c -0.336107,-0.167141 -0.709877,-0.445312 -0.877863,-0.653335 -0.386289,-0.478357 -0.509525,-0.74303 -0.873672,-0.466629 -0.474714,0.36033 -1.123897,0.549096 -1.72973,0.605449 -0.813364,0.07565 -0.878504,-0.0066 -0.561859,-0.708662 0.53967,-1.196712 0.540084,-1.847894 0.0011,-3.042744 -0.3678,-0.815594 -0.563116,-0.942163 -1.448077,-0.938388 -0.443058,0.0019 -1.167689,0.06895 -1.473624,0.174123 -0.547309,0.188156 -1.410518,0.489085 -1.491321,0.698636 -0.03025,0.07844 0.08097,0.241829 0.270384,0.397201 0.588236,0.482526 0.793658,1.299974 0.501529,1.995753 -0.132626,0.315876 -0.395152,0.628858 -0.527483,0.628858 -0.04126,0 -0.148012,-0.19023 -0.237238,-0.422732 -0.08923,-0.232502 -0.271074,-0.75328 -0.40411,-0.857419 -0.736283,-0.576353 -1.9933618,0.46867 -2.4321558,1.666274 -0.11323,0.309114 -0.249425,0.547584 -0.30263,0.529934 -0.208666,-0.06922 -0.363075,-0.774932 -0.324042,-1.48105 0.06018,-1.088679 0.631557,-1.997751 1.5826098,-2.517959 l 0.329784,-0.180387 0.10739,-1.080045 c 0.124587,-1.252982 0.30712,-1.942252 0.757461,-2.860266 0.735323,-1.498955 2.190456,-2.747013 3.650014,-3.442234 0.442365,-0.210711 0.910754,-0.435629 1.040863,-0.499821 0.173733,-0.08571 0.228371,-0.177947 0.205732,-0.347297 -0.04608,-0.344605 -0.453869,-1.1969532 -0.727519,-1.5205942 -0.303357,-0.358771 -0.208606,-0.495898 0.437998,-0.633897 0.963559,-0.205646 1.948341,-0.06272 2.820603,0.380128 0.545577,0.276985 1.355698,1.0636412 1.713975,1.6643352 0.26511,0.444484 0.397018,0.553976 1.110618,0.921886 3.399689,1.75277 4.816425,5.540918 3.581303,9.247675 -0.191453,0.574568 -0.468071,1.151067 -0.753706,1.570792 -0.718172,1.055388 -1.465074,1.463488 -2.678417,1.463488 -0.57367,0 -0.776126,-0.04647 -1.267994,-0.291073 z"
       id="path1364" />
    <path
       style="fill:url(#linearGradient1591);fill-opacity:1;stroke:#060935;stroke-width:0.8;stroke-miterlimit:4;stroke-dasharray:none;stroke-opacity:0.0340545;paint-order:stroke markers fill"
       d="M 20.432197,23.249811 C 20.09609,23.08267 19.72232,22.804499 19.554334,22.596476 c -0.386289,-0.478357 -0.509525,-0.74303 -0.873672,-0.466629 -0.474714,0.36033 -1.123897,0.549096 -1.72973,0.605449 -0.813364,0.07565 -0.878504,-0.0066 -0.561859,-0.708662 0.53967,-1.196712 0.540084,-1.847894 0.0011,-3.042744 -0.3678,-0.815594 -0.563116,-0.942163 -1.448077,-0.938388 -0.443058,0.0019 -1.167689,0.06895 -1.473624,0.174123 -0.547309,0.188156 -1.410518,0.489085 -1.491321,0.698636 -0.03025,0.07844 0.08097,0.241829 0.270384,0.397201 0.588236,0.482526 0.793658,1.299974 0.501529,1.995753 -0.132626,0.315876 -0.395152,0.628858 -0.527483,0.628858 -0.04126,0 -0.148012,-0.19023 -0.237238,-0.422732 -0.08923,-0.232502 -0.271074,-0.75328 -0.40411,-0.857419 -0.736283,-0.576353 -1.9933618,0.46867 -2.4321558,1.666274 -0.11323,0.309114 -0.249425,0.547584 -0.30263,0.529934 -0.208666,-0.06922 -0.363075,-0.774932 -0.324042,-1.48105 0.06018,-1.088679 0.631557,-1.997751 1.5826098,-2.517959 l 0.329784,-0.180387 0.10739,-1.080045 c 0.124587,-1.252982 0.30712,-1.942252 0.757461,-2.860266 0.735323,-1.498955 2.190456,-2.747013 3.650014,-3.442234 0.442365,-0.210711 0.910754,-0.435629 1.040863,-0.499821 0.173733,-0.08571 0.228371,-0.177947 0.205732,-0.347297 C 16.149179,10.102466 15.74139,9.2501178 15.46774,8.9264768 15.164383,8.5677055 15.259134,8.4305792 15.905738,8.29258 c 0.963559,-0.2056459 1.948341,-0.062715 2.820603,0.3801276 0.545577,0.2769852 1.355698,1.0636412 1.713975,1.6643354 0.26511,0.444484 0.397018,0.553976 1.110618,0.921886 3.399689,1.75277 4.816425,5.540918 3.581303,9.247675 -0.191453,0.574568 -0.468071,1.151067 -0.753706,1.570792 -0.718172,1.055388 -1.465074,1.463488 -2.678417,1.463488 -0.57367,0 -0.776126,-0.04647 -1.267994,-0.291073 z"
       id="path8" />
  </g>
</svg>
